<?xml version="1.0" encoding="utf-8"?>
<!-- Generator: Adobe Illustrator 23.1.0, SVG Export Plug-In . SVG Version: 6.00 Build 0)  -->
<svg version="1.1" id="Layer_1" xmlns="http://www.w3.org/2000/svg" xmlns:xlink="http://www.w3.org/1999/xlink" x="0px" y="0px"
	 viewBox="0 0 137.6 100" style="enable-background:new 0 0 137.6 100;" xml:space="preserve">
<style type="text/css">
	.st0{fill:#6E7485;}
</style>
<g transform="translate(-169.986 -154.37)">
	<g>
		<polygon class="st0" points="207.1,214.7 216.1,213.3 216,194 		"/>
		<path class="st0" d="M300.8,179.8c-0.7-1.8-1.6-3.5-2.6-5.1c-1.3-2.2-2.9-4.2-4.7-6c-0.6-0.6-1.3-1.2-2-1.8
			c-0.7-0.6-1.5-1.2-2.2-1.8c-1.6-1.2-3.2-2.3-4.9-3.2c-4.9-2.7-10.2-4.7-15.7-5.9c-7.3-1.6-14.8-2-22.3-1.4
			c-4.1,0.3-8.2,0.9-12.2,1.7c-5,1-9.8,2.5-14.6,4.2c-2.2,0.8-4.4,1.7-6.5,2.7c-6.7,3-13.1,6.9-18.9,11.4c-1.2,1-2.4,2-3.5,2.9
			c-0.7,0.6-1.3,1.2-2,1.8c-1.9,1.7-3.6,3.5-5.3,5.4c-1.2,1.4-2.4,2.9-3.5,4.4c-4.2,5.6-7.3,11.9-8.9,18.7
			c-1.7,6.8-1.3,13.9,1.1,20.4c0.2,0.5,0.4,1,0.6,1.5c0.6,1.5,1.4,2.9,2.3,4.2c0.9,1.4,1.9,2.7,2.9,4c0.2,0.2,0.3,0.4,0.5,0.6
			c0.9,1,1.9,2,3,3l0,0c1.1,0.9,2.2,1.8,3.3,2.7c5.8,4,12.4,6.8,19.4,8.3c8,1.7,16.2,2.1,24.3,1.3c3.6-0.3,7.2-0.9,10.8-1.7
			c4.8-1,9.5-2.4,14.1-4.1c2.3-0.9,4.6-1.8,6.9-2.9c5.3-2.4,10.4-5.4,15.2-8.8c1.6-1.1,3.2-2.4,4.7-3.6c0.7-0.6,1.5-1.2,2.2-1.8
			c1.1-1,2.2-2,3.2-3c0.2-0.2,0.4-0.4,0.6-0.6c1.2-1.2,2.4-2.5,3.5-3.8c1.1-1.3,2.2-2.6,3.2-3.9c4.5-5.8,7.7-12.5,9.3-19.7
			C303.7,193.4,303.3,186.3,300.8,179.8z M223.9,229.8c-0.7,0.1-5.5,0.9-6.6,1.1c-0.1,0-0.3,0-0.4,0c-0.6,0-0.7-0.3-0.7-0.8
			c0-1.4-0.1-9.1-0.1-9.2l-12.2,1.9c0,0.1-4.4,10.2-4.5,10.4c-0.2,0.5-0.4,0.6-1,0.7c-1.8,0.3-8,1.3-8.6,1.4c-0.2,0-0.3,0-0.5,0v0
			c-0.3,0-0.5-0.1-0.6-0.2c-0.1-0.2-0.1-0.5,0.2-0.9c0.2-0.3,27.8-56.9,30-61.4c0.2-0.5,0.7-0.9,1.2-1c0.5,0,0.8,0.4,0.8,1.2
			c0.3,3.2,2.7,35.7,3.8,49.6c0.3,3.4,0.4,5.5,0.4,5.6C225.2,229.3,225.1,229.6,223.9,229.8z M250.7,192.6c0,0.1,0,0.2-0.1,0.2
			c-0.1,0.4-1.6,4.4-2,5.7l0,0.1c0,0-2.6-2-4.1-2c-0.1,0-0.2,0-0.3,0c-1.1-0.1-2.1,0.4-2.7,1.2c-1,1.1-1.3,2.8-0.6,4.2
			c0.5,0.8,0.9,1.5,5.1,5.2c2.2,1.9,3.6,4.6,3.8,7.5c0.2,2.2-0.3,4.4-1.3,6.4c-0.9,1.6-2.1,3-3.5,4.2c-1.5,1.2-3.2,2.1-5.1,2.4
			c-1.6,0.3-3.3,0.5-5,0.5l0,0c-1.9,0-3.7-0.3-5.5-0.9c-1.3-0.5-1.5-0.9-1.1-2.3c0.3-1,1.8-6.3,1.8-6.3c0.2,0.4,0.5,0.8,0.9,1.1
			c0.9,0.8,2,1.4,3.2,1.6c0.5,0.1,1.1,0.2,1.6,0.2c1.8,0.1,3.6-0.8,4.5-2.4c0.4-1,0.5-2.2,0.1-3.2c-0.8-2-2.1-3.8-3.8-5.2
			c-1.8-1.5-3.2-3.5-4.1-5.7c-0.8-2.9-0.5-6,0.9-8.7c1.7-3.3,5.1-5.3,9.7-5.8c0.5-0.1,1-0.1,1.5-0.1c1.9,0,3.7,0.4,5.5,1
			C250.5,191.6,250.9,192.1,250.7,192.6z M282.3,187.8c-0.4,0.6-10.2,16.5-10.3,16.7l0.7,2.1c1.5,4.3,4.7,13.3,4.9,13.8
			c0.1,0.3,0.1,0.5,0,0.7c-0.1,0.1-0.3,0.2-0.7,0.3c-0.4,0.1-4.8,0.8-6.7,1.1c-0.1,0-0.2,0-0.4,0c-0.4,0-0.6-0.2-0.8-0.7
			c-0.2-0.6-5.4-15.2-5.5-15.4l-3.3,16.9c-0.1,0.7-0.4,0.8-0.9,0.9l-0.1,0c-1.9,0.3-5.8,0.9-6.6,1c-0.3,0.1-0.6,0.1-0.9,0.1l0,0
			c-0.1,0-0.3,0-0.4-0.1c-0.2-0.2-0.1-0.6,0.1-1.4c0.1-0.4,1.7-9.1,3.6-19.2l0-0.2c3.1-16.4,6.9-36.8,6.9-37.3
			c0.2-1.2,0.6-1.4,1.5-1.6c0.7-0.1,5.4-0.6,6.5-0.6h0.1c0.5,0,0.7,0.1,0.9,0.3c0.2,0.2,0.2,0.6,0.1,1.3c-0.2,0.9-6.5,34.2-7.2,38
			l0,0.1c0-0.1,2.1-3.5,4.3-7.2c2.5-4.2,5.1-8.5,5.2-8.8c0.3-0.6,0.8-0.9,1.4-0.9l4-0.4l2.7-0.3c0.2,0,0.3,0,0.4,0
			c0.1,0,0.2,0,0.3,0.1c0.1,0.1,0.2,0.2,0.2,0.3C282.4,187.6,282.4,187.7,282.3,187.8z"/>
	</g>
	<path class="st0" d="M301.4,167.8c-0.8,0-1.6-0.2-2.4-0.5c-1.5-0.6-2.7-1.8-3.3-3.3c-0.3-0.8-0.5-1.6-0.5-2.4
		c0-0.8,0.2-1.6,0.5-2.4c0.6-1.5,1.8-2.7,3.3-3.3c0.8-0.3,1.6-0.5,2.4-0.5c0.8,0,1.6,0.2,2.4,0.5c1.5,0.6,2.7,1.8,3.3,3.3
		c0.3,0.8,0.5,1.6,0.5,2.4c0,0.8-0.2,1.6-0.5,2.4c-0.6,1.5-1.8,2.7-3.3,3.3C303,167.6,302.2,167.8,301.4,167.8L301.4,167.8z
		 M301.4,156.5c-0.7,0-1.4,0.1-2,0.4c-2.6,1.1-3.8,4.1-2.7,6.7s4.1,3.8,6.7,2.7s3.8-4.1,2.7-6.7c-0.5-1.2-1.5-2.2-2.7-2.7
		C302.7,156.7,302,156.5,301.4,156.5L301.4,156.5z M300.3,165.1H299V158h2.7c0.7-0.1,1.3,0.1,1.9,0.5c0.4,0.4,0.6,1,0.6,1.6
		c0,0.5-0.1,1-0.5,1.4c-0.3,0.3-0.8,0.5-1.2,0.5l1.8,3H303l-1.8-2.9h-0.9V165.1L300.3,165.1z M300.3,159.1v2h0.9c0.2,0,0.4,0,0.6,0
		c0.2,0,0.4-0.1,0.5-0.1c0.2-0.1,0.3-0.2,0.4-0.3c0.1-0.2,0.2-0.4,0.2-0.5c0-0.2,0-0.4-0.2-0.5c-0.1-0.1-0.2-0.2-0.4-0.3
		c-0.2-0.1-0.4-0.1-0.5-0.1c-0.2,0-0.4,0-0.6,0L300.3,159.1z"/>
</g>
</svg>
