<?xml version="1.0" encoding="utf-8"?>
<!-- Generator: Adobe Illustrator 22.0.1, SVG Export Plug-In . SVG Version: 6.00 Build 0)  -->
<svg version="1.1" id="Layer_1" xmlns="http://www.w3.org/2000/svg" xmlns:xlink="http://www.w3.org/1999/xlink" x="0px" y="0px"
	 viewBox="0 0 455 78.2" style="enable-background:new 0 0 455 78.2;" xml:space="preserve">
<style type="text/css">
	.st0{fill:#6E7585;}
</style>
<g>
	<path class="st0" d="M71.7,44.4c-14.3,0-25.9-5.8-25.9-12.9c0-7.2,11.6-12.9,25.9-12.9s25.9,5.8,25.9,12.9S86.1,44.4,71.7,44.4
		 M56.2,5.6C27.6,5.6,4.4,17.1,4.4,31.4s23.2,25.9,51.8,25.9S108,45.8,108,31.4S84.8,5.6,56.2,5.6z"/>
	<g>
		<g>
			<path class="st0" d="M146.4,50.6c0,3.8-2.5,6.4-6.8,6.4h-4.8V44.2h4.8C143.9,44.2,146.4,46.7,146.4,50.6z M144.2,50.6
				c0-2.7-1.5-4.6-4.5-4.6h-2.9v9.1h2.9C142.7,55.1,144.2,53.3,144.2,50.6z"/>
			<path class="st0" d="M161.5,44.2v7.4c0,2.3-0.8,5.6-5.5,5.6c-4.6,0-5.4-3.2-5.4-5.4v-7.7h2.1v7.3c0,1.7,0.3,4,3.3,4
				c3.1,0,3.4-2.4,3.4-4.1V44L161.5,44.2L161.5,44.2z"/>
			<path class="st0" d="M177.2,53.3c0,2.1-1.7,3.7-4.6,3.7h-6V44.1h5.9c2.5,0,4.1,1.3,4.1,3.3c0,1.2-0.6,2.3-1.8,2.8
				C176.3,50.7,177.2,51.9,177.2,53.3z M168.7,49.5h3.8c1.3,0,2-0.8,2-1.8s-0.8-1.7-2-1.7h-3.9L168.7,49.5L168.7,49.5z M175,53.2
				c0-1.2-1-2-2.4-2h-3.9v3.9h3.9C174.1,55.2,175,54.4,175,53.2z"/>
			<path class="st0" d="M190,53.6h-6.5l-1.4,3.4H180l5.4-12.8h2.7l5.5,12.8h-2.2L190,53.6z M189.2,51.8l-2.5-5.9l-2.5,5.9H189.2z"/>
			<path class="st0" d="M197.4,44.2h2.1V57h-2.1V44.2z"/>
			<path class="st0" d="M214.3,46v3.8h6.5v1.8h-6.5V57h-2.1V44.1h8.8V46H214.3z"/>
			<path class="st0" d="M235.9,44.2v7.4c0,2.3-0.8,5.6-5.5,5.6c-4.6,0-5.4-3.2-5.4-5.4v-7.7h2.1v7.3c0,1.7,0.3,4,3.3,4
				c3.1,0,3.4-2.4,3.4-4.1V44L235.9,44.2L235.9,44.2z"/>
			<path class="st0" d="M251,46h-4.6v10.9h-2.1V46h-4.6v-1.9H251V46L251,46z"/>
			<path class="st0" d="M265.6,44.2v7.4c0,2.3-0.8,5.6-5.5,5.6c-4.6,0-5.4-3.2-5.4-5.4v-7.7h2.1v7.3c0,1.7,0.3,4,3.3,4
				c3.1,0,3.4-2.4,3.4-4.1V44L265.6,44.2L265.6,44.2z"/>
			<path class="st0" d="M274.8,51.9h-2.1v5h-2.1V44.1h5.5c2.8,0,4.6,1.5,4.6,3.8c0,2-1.5,3.5-3.7,3.8l3.9,5.2h-2.5L274.8,51.9z
				 M272.7,50.2h3.6c1.6,0,2.4-0.9,2.4-2.1c0-1.2-0.9-2.1-2.4-2.1h-3.6V50.2z"/>
			<path class="st0" d="M287.3,46v3.6h6.7v1.8h-6.7v3.7h6.9V57h-9V44.2h9v1.9L287.3,46L287.3,46z"/>
			<path class="st0" d="M308.4,46v3.8h6.5v1.8h-6.5V57h-2V44.1h8.8V46H308.4z"/>
			<path class="st0" d="M332.1,50.6c0,3.9-2.7,6.8-6.7,6.8s-6.7-2.8-6.7-6.8s2.7-6.8,6.7-6.8C329.4,43.9,332.1,46.7,332.1,50.6z
				 M329.9,50.6c0-2.9-1.7-5-4.5-5s-4.5,2-4.5,5s1.8,5,4.5,5C328.1,55.5,329.9,53.5,329.9,50.6z"/>
			<path class="st0" d="M347.2,44.2v7.4c0,2.3-0.8,5.6-5.5,5.6c-4.6,0-5.4-3.2-5.4-5.4v-7.7h2.1v7.3c0,1.7,0.3,4,3.3,4
				c3.1,0,3.4-2.4,3.4-4.1V44L347.2,44.2L347.2,44.2z"/>
			<path class="st0" d="M364.2,44.2V57h-2.5l-7.4-10.1V57h-2V44.2h2.5l7.4,10.2V44.2C362.3,44.2,364.2,44.2,364.2,44.2z"/>
			<path class="st0" d="M381,50.6c0,3.8-2.5,6.4-6.8,6.4h-4.8V44.2h4.8C378.4,44.2,381,46.7,381,50.6z M378.8,50.6
				c0-2.7-1.5-4.6-4.5-4.6h-2.9v9.1h2.9C377.3,55.1,378.8,53.3,378.8,50.6z"/>
			<path class="st0" d="M393.4,53.6h-6.5l-1.4,3.4h-2.1l5.4-12.8h2.7L397,57h-2.2L393.4,53.6z M392.7,51.8l-2.5-5.9l-2.5,5.9H392.7z
				"/>
			<path class="st0" d="M409.2,46h-4.6v10.9h-2.1V46h-4.6v-1.9h11.3L409.2,46L409.2,46z"/>
			<path class="st0" d="M413.1,44.2h2.1V57h-2.1V44.2z"/>
			<path class="st0" d="M433.1,50.6c0,3.9-2.7,6.8-6.7,6.8s-6.7-2.8-6.7-6.8s2.7-6.8,6.7-6.8C430.3,43.8,433.1,46.7,433.1,50.6z
				 M430.9,50.6c0-2.9-1.7-5-4.5-5s-4.5,2-4.5,5s1.8,5,4.5,5S430.9,53.5,430.9,50.6z"/>
			<path class="st0" d="M449.4,44.2V57h-2.5l-7.4-10.1V57h-2V44.2h2.5l7.4,10.2V44.2C447.5,44.2,449.4,44.2,449.4,44.2z"/>
		</g>
		<g>
			<polygon class="st0" points="182.2,12.9 180.7,11.6 179.5,13.1 181,14.3 			"/>
			<polygon class="st0" points="179.1,13.1 177.6,11.7 176.3,13.2 177.8,14.4 			"/>
			<polygon class="st0" points="168.4,10.8 166.8,9.4 165.6,10.9 167.1,12.2 			"/>
			<polygon class="st0" points="171.5,10.7 169.9,9.3 168.8,10.8 170.3,12 			"/>
			<polygon class="st0" points="354.6,7.7 353.1,6.3 351.9,7.8 353.4,9.1 			"/>
			<path class="st0" d="M432.8,11.7v-1.1h-0.1c-0.6,0.2-1.7,0.5-2.2,0.5s-1.3-0.8-1.3-1.5s0.7-1,1.4-1c0.5,0,0.9,0.1,1.4,0.3
				l0.2-0.1L432,7.7c-0.5-0.2-1-0.3-1.5-0.3c-1.2,0-2.3,0.8-2.3,2.3c0,0.7,0.3,1.4,1,2c-0.5,0.1-0.8,0.2-1.2,0.4v1.2l0.1,0.1
				C429,12.9,431.3,12.1,432.8,11.7z"/>
			<polygon class="st0" points="357.8,7.5 356.2,6.2 355,7.7 356.6,8.9 			"/>
			<polygon class="st0" points="154.8,29 156.4,30.3 157.6,28.9 156,27.5 			"/>
			<polygon class="st0" points="320.3,29 321.9,30.3 323.2,28.9 321.5,27.4 			"/>
			<path class="st0" d="M420.6,17.2c0.2,1.1,0.5,2.8,0.5,3.7c0,1.1-1,2-2.7,2c-1.6,0-2.8-0.9-2.8-3v-2.6H414v2.8
				c0,1.5-0.7,2.7-3,2.7c-2.1,0-3.6-1-3.6-3.1v-2.4h-1.6v2.6c0,1.7-0.8,2.9-3.2,2.9h-18.1c-2.9,0-3.6-0.9-3.6-3.4v-2.1h-1.6v2.3
				c0,2.4-1,3.3-2.8,3.3c-1.7,0-2.7-0.9-2.7-3v-2.6h-1.6v2.8c0,1.5-0.7,2.7-3,2.7c-2.1,0-3.6-1-3.6-3.1v-2.4H364v2.6
				c0,1.7-0.8,2.9-3.2,2.9h-1.2h-0.1c-1.6,0-2.5-0.7-2.5-2.8v-9l-1.8,0.2v1.5c-4.3,1.2-7.6,3.5-7.6,6.3c0,1.9,2.3,3,7.8,3.2
				c0.3,1.9,1.6,2.9,3.6,2.9l0,0h0.1h1.2h0.3c1.7,0,3.3-0.6,4.1-2.2c0.7,1.5,2.3,2.3,4.3,2.3c1.6,0,3.3-0.5,4.1-1.9
				c0.6,1.3,1.8,1.9,3.5,1.9c1.5,0,2.9-0.6,3.5-2.2c0.7,1.5,2,2,3.3,2.1l0,0H402h0.3c1.7,0,3.3-0.6,4.1-2.2c0.7,1.5,2.3,2.3,4.3,2.3
				c1.7,0,3.3-0.5,4.1-1.9c0.6,1.2,1.9,1.9,3.6,1.9c3.2,0,4.3-1.9,4.3-4.6c0-1.2-0.2-2.6-0.3-3.5L420.6,17.2z M355.2,20.2
				c-3.7-0.1-5.5-0.7-6.2-1.9c0.8-1.5,3.3-3,6.2-3.8V20.2z"/>
			<path class="st0" d="M331.8,12.7l-1.2,1.4c2.9,2.3,5.1,5,5.5,8.3c-1.2,0.6-3,0.9-4.7,0.9c-1.9,0-3-0.2-4.1-0.6v1.9
				c1.1,0.5,2.4,0.7,4,0.7c2.3,0,4.5-0.7,5.5-1.6c0.5-0.5,0.7-1.1,0.7-1.9C337.6,18.3,335.2,15,331.8,12.7z"/>
			<polygon class="st0" points="309.7,34.4 311.3,35.7 312.6,34.3 311,33 			"/>
			<path class="st0" d="M322.7,15.7c0.2,1.5,0.5,3.5,0.5,4.9s-0.7,2.4-3,2.4H320h-1c-2.1,0-4.5-0.5-6.4-1.1l-0.5,1.8
				c1.5,0.7,3.3,1.3,3.9,2.3c-1,1.6-4.3,2.9-7.4,2.9c-3.7,0-5.4-1.7-5.4-5c0-1.3,0.2-2.8,0.6-4.5l-1.5-0.3c-0.5,2-0.9,3.9-0.9,5.5
				c0,4.2,2.4,6.3,6.7,6.3c3.2,0,6.5-1.1,8.2-3c0.7-0.7,1-1.5,1-2.3c0-0.2-0.1-0.5-0.1-0.7c0.2,0,0.4,0.1,0.6,0.1l0,0h0.9h0.3h0.5
				c2.1,0,3.4-0.6,4.2-1.5c0.8-0.9,1-2.3,1-3.6c0-1.6-0.2-3.3-0.4-4.6L322.7,15.7z"/>
			<path class="st0" d="M446.3,15.4c-2.1,0-3.6,1.1-5.5,4.4c-1.2,2.3-2.1,3.2-3.4,3.2h-0.9h-1.9v-0.5c0-4-2.2-7.7-4.4-7.7
				c-1.1,0-1.9,0.7-2.7,1.7c-1,1.2-1.9,3-1.9,4.4c0,1.9,1.6,3.9,6.4,3.9h0.8c-0.7,1.9-3.3,3.6-7.7,4.5l-0.1,0.3l1,1.5
				c4.1-1.1,7-3,8-6.1h1.6h1.2c1.5,0,2.9-0.8,3.9-2.8c2,1.7,4.9,3.2,6.3,3.2c0.7,0,1.2-0.4,1.7-1.2c0.8-1.2,1.3-2.7,1.3-3.9
				C450.3,17.6,448.9,15.4,446.3,15.4z M433.1,23h-0.5c-4.2,0-5.4-1.6-5.4-2.5c0-0.7,1.1-3,2.7-4.1c2.1,1,3.2,4.3,3.2,6.1L433.1,23
				L433.1,23z M447.7,23.6c-1.7-0.3-3.6-1.3-5.7-2.8c1.7-3,2.7-3.6,4-3.6c1.5,0,2.8,1.4,2.8,3.7C448.7,21.8,448.3,22.8,447.7,23.6z"
				/>
			<path class="st0" d="M289.2,5.7l0.3,10.9c0,1.2,0.1,2.4,0.1,3.2c0,1.9-0.8,3-2.8,3l0,0h-1.3h-0.1c-2.2,0-3.2-1.1-3.2-3.6
				c0-1.5,0-3.7,0-5.5V5.6l-2,0.2l0.1,10c0.1,1.5,0.1,3.2,0.1,3.8c0,2.4-1,3.4-3,3.4h-1c-2.2,0-2.8-1.4-3.5-4
				c-0.6-2.1-1.6-3.6-3.8-3.6c-2.1,0-3.7,1.1-5.5,4.5c-1.2,2.3-2.1,3.2-3.5,3.2h-0.3c-2.9,0-3.6-0.9-3.6-3.4v-2.1h-1.6v2.3
				c0,2.4-1,3.3-2.8,3.3c-1.7,0-2.7-0.9-2.7-3v-2.6h-1.6v2.8c0,1.5-0.7,2.7-3,2.7c-2.1,0-3.6-1-3.6-3.1v-2.4h-1.6V20
				c0,1.7-0.8,2.9-3.2,2.9h-52c-2.7,0-3.8-0.7-3.8-3.1v-3.3h-1.6v3.2c0,2.3-1.3,3.2-3,3.2h-1.3H174c-1.6,0-2.6-0.1-3.9-0.4
				c0.9-0.6,1.5-1.2,2-1.9c0.5-0.7,0.7-1.2,0.7-2.1c0-2.7-2-4.9-4.2-4.9c-2.1,0-4.6,2.1-4.6,4.8c0,1.2,0.7,2.7,2.1,4
				c-1.4,0.3-2.7,0.5-3.8,0.5h-1.1c-2.7,0-3.8-0.7-3.8-3.1v-3.3h-1.6v3.2c0,2.3-1.3,3.2-3,3.2h-1.2c-2.3,0-3.2-1-3.3-3.4l-0.3-14
				l-2,0.2l0.6,12c0.1,1.2,0.1,4.1,0.1,4.9c0,3.2-2.2,5.4-6,5.4c-3.6,0-4.9-1.6-4.9-4.3c0-1.1,0.2-2.4,0.4-3.8l-1.5-0.3
				c-0.5,1.6-0.7,3.3-0.7,4.7c0,3.8,1.9,5.8,6.3,5.8c4.9,0,7.4-2.7,7.9-6.3c0.6,0.8,1.6,1.2,2.7,1.2l0,0h0.3h1h0.3
				c2.3,0,3.8-0.8,4.3-2.3c0.5,1.2,1.7,2.2,3.8,2.3l0,0h0.3h1h0.3c2,0,3.9-0.3,5.9-1.1c1.6,0.8,3.1,1.1,4.8,1.1h0.8h1.2h0.3
				c2.3,0,3.8-0.8,4.3-2.3c0.5,1.2,1.7,2.2,3.8,2.3l0,0h52.1h0.3c1.7,0,3.3-0.6,4.1-2.2c0.7,1.5,2.3,2.3,4.3,2.3
				c1.6,0,3.3-0.5,4.1-1.9c0.6,1.3,1.8,1.9,3.5,1.9c1.5,0,2.9-0.6,3.5-2.2c0.7,1.5,2,2,3.3,2.1l0,0h0.5h0.7c1.6,0,2.9-0.8,3.9-2.7
				c2,1.7,4.9,3.1,6.3,3.1c0.7,0,1.4-0.5,1.8-1.2c0.3-0.5,0.6-1.1,0.7-1.7c0.6,1.6,1.6,2.4,3,2.5l0,0h0.3h0.9h0.2
				c2.1,0,3.7-0.8,4.3-2.3c0.6,1.5,1.9,2.3,3.3,2.3l0,0h0.2h1h0.2c2.8,0,4.7-1.2,4.9-4.4c0.1-1.6,0.1-3.6,0.1-5.8V5.6L289.2,5.7z
				 M165.3,18.2c0.8-2,1.9-2.5,3-2.5s2.7,1.3,3,3.8c-0.7,0.9-1.4,1.5-3.2,2.3C166.7,20.8,165.8,19.7,165.3,18.2z M270.3,23.6
				c-1.7-0.3-3.6-1.3-5.7-2.8c1.7-3,2.7-3.6,3.9-3.6c1.5,0,2.8,1.4,2.8,3.7C271.3,21.8,270.9,22.8,270.3,23.6z"/>
			<polygon class="st0" points="306.6,34.7 308.2,35.9 309.4,34.6 307.8,33.2 			"/>
		</g>
	</g>
</g>
</svg>
