<?xml version="1.0" encoding="utf-8"?>
<!-- Generator: Adobe Illustrator 22.1.0, SVG Export Plug-In . SVG Version: 6.00 Build 0)  -->
<svg version="1.1" id="Layer_1" xmlns="http://www.w3.org/2000/svg" xmlns:xlink="http://www.w3.org/1999/xlink" x="0px" y="0px"
	 viewBox="0 0 120 120" style="enable-background:new 0 0 120 120;" xml:space="preserve">
<g>
	<path d="M43.3,30.8c0.2,0,0.4,0.1,0.7,0.1c0.2,0,0.4,0.1,0.6,0.1s0.3,0,0.6-0.1c0.2,0,0.4-0.1,0.6-0.1c0-0.2,0.1-0.4,0.1-0.6
		s0-0.4,0-0.5c0-0.2,0-0.3,0-0.5c0-0.2-0.1-0.4-0.1-0.6c-0.2,0-0.4-0.1-0.6-0.1s-0.4-0.1-0.6-0.1s-0.4,0-0.6,0.1
		c-0.2,0-0.4,0.1-0.7,0.1c0,0.2-0.1,0.4-0.1,0.6c0,0.2,0,0.4,0,0.5c0,0.2,0,0.3,0,0.5C43.2,30.3,43.2,30.5,43.3,30.8z"/>
	<g>
		<path d="M39.9,33.7c0,0.1,0,0.3,0,0.4s0,0.3,0,0.4s0.1,0.3,0.1,0.4h1.4v10.3c0,0.4-0.1,0.8-0.2,1.1c-0.1,0.3-0.3,0.4-0.4,0.6
			c-0.2,0.1-0.4,0.2-0.6,0.3c-0.2,0-0.4,0.1-0.6,0.1c-0.4,0-0.9-0.1-1.2-0.2c-0.1,0.3-0.2,0.5-0.3,0.8C38,48.3,38,48.5,38,48.9
			c0.6,0.2,1.2,0.3,2,0.3c0.5,0,0.9-0.1,1.4-0.2c0.4-0.1,0.8-0.3,1.1-0.6c0.3-0.3,0.6-0.7,0.8-1.1c0.2-0.4,0.3-1,0.3-1.7V33.4h-3.5
			C39.9,33.4,39.9,33.6,39.9,33.7z"/>
		<path d="M36.6,28.3c-0.1,0-0.3,0-0.5,0c-0.1,0-0.3,0-0.5,0c-0.2,0-0.4,0.1-0.6,0.1v5c-0.3-0.1-0.7-0.2-1-0.3
			C33.6,33,33.2,33,32.9,33c-0.8,0-1.7,0.1-2.4,0.4c-0.7,0.3-1.3,0.7-1.8,1.3c-0.5,0.6-0.9,1.2-1.2,2c-0.3,0.8-0.4,1.6-0.4,2.5
			c0,1.1,0.1,2,0.4,2.7c0.3,0.8,0.7,1.3,1.3,1.8c0.5,0.4,1.2,0.8,1.8,1c0.7,0.2,1.5,0.3,2.2,0.3c0.8,0,1.6-0.1,2.3-0.2
			c0.7-0.1,1.3-0.3,1.8-0.4V28.3C36.9,28.3,36.8,28.3,36.6,28.3z M35,43.1L35,43.1L35,43.1c-0.3,0-0.5,0.1-0.8,0.2
			c-0.3,0.1-0.7,0.1-1.1,0.1c-1.2,0-2-0.3-2.7-0.9c-0.7-0.7-0.9-1.7-1-3c0-0.7,0.1-1.2,0.2-1.7c0.1-0.5,0.4-1,0.7-1.4
			c0.3-0.4,0.7-0.7,1.1-0.9c0.4-0.3,0.9-0.3,1.6-0.3c0.4,0,0.8,0,1.1,0.1c0.3,0.1,0.7,0.1,0.9,0.3L35,43.1C35,43.1,35,43.1,35,43.1
			L35,43.1L35,43.1C35,43.1,35,43.1,35,43.1L35,43.1z"/>
		<path d="M81.3,33.1c-0.7,0.1-1.3,0.2-1.7,0.3c-0.5,0.1-0.9,0.4-1.2,0.6c-0.4-0.3-0.8-0.6-1.4-0.8c-0.5-0.2-1.2-0.3-1.8-0.3
			c-0.8,0-1.4,0.1-2,0.3c-0.6,0.2-1.1,0.5-1.5,0.9S71,35,70.8,35.4c-0.2,0.5-0.3,1-0.3,1.6c0,0.7,0.1,1.3,0.4,1.8
			c0.3,0.6,0.7,1,1.2,1.3c-0.4,0.3-0.8,0.7-0.9,1.1c-0.3,0.4-0.4,0.9-0.4,1.5c0,0.4,0.1,0.8,0.3,1.1c0.2,0.3,0.4,0.5,0.8,0.8
			c-0.5,0.3-0.9,0.7-1.3,1.2c-0.3,0.5-0.5,1-0.5,1.7c0,1,0.4,1.8,1.2,2.3c0.8,0.5,2,0.7,3.4,0.7c0.9,0,1.7-0.1,2.4-0.3
			c0.8-0.2,1.4-0.4,1.9-0.8c0.6-0.4,0.9-0.8,1.3-1.3c0.3-0.5,0.4-1,0.4-1.7c0-0.9-0.3-1.7-0.9-2.2c-0.6-0.6-1.5-0.8-2.9-0.8
			l-2.9-0.1c-0.7,0-1.1-0.1-1.3-0.3c-0.2-0.2-0.3-0.4-0.3-0.7c0-0.3,0.1-0.6,0.3-0.8c0.2-0.3,0.4-0.4,0.7-0.6c0.5,0.1,1,0.2,1.7,0.2
			s1.3-0.1,1.8-0.3c0.6-0.2,1-0.4,1.5-0.8c0.4-0.4,0.7-0.8,0.9-1.3c0.2-0.5,0.3-1.1,0.3-1.7c0-0.4-0.1-0.8-0.1-1
			c-0.1-0.3-0.2-0.6-0.4-0.8h2c0-0.2,0.1-0.4,0.1-0.6c0-0.2,0-0.4,0-0.5C81.3,33.8,81.3,33.4,81.3,33.1z M72.7,45.7
			c0.3-0.4,0.8-0.6,1.5-0.6l2.5,0.1c0.8,0,1.3,0.1,1.5,0.4c0.3,0.3,0.4,0.6,0.4,1c0,0.6-0.3,1.1-1,1.5c-0.7,0.4-1.6,0.6-2.7,0.6
			c-0.4,0-0.8,0-1.1-0.1c-0.3-0.1-0.7-0.1-0.8-0.3c-0.3-0.1-0.4-0.3-0.6-0.5c-0.1-0.2-0.2-0.5-0.2-0.8
			C72.2,46.5,72.4,46.1,72.7,45.7z M76.9,38.8c-0.4,0.4-0.9,0.7-1.8,0.7c-0.8,0-1.4-0.3-1.8-0.7c-0.4-0.4-0.6-1-0.6-1.7
			c0-0.7,0.2-1.3,0.6-1.8s0.9-0.7,1.8-0.7c0.8,0,1.4,0.3,1.8,0.7s0.6,1,0.6,1.8C77.5,37.8,77.3,38.4,76.9,38.8z"/>
		<path d="M54.1,34.1c-0.9-0.7-1.9-1.1-3.4-1.1c-0.6,0-1.2,0.1-1.7,0.1c-0.6,0.1-1.2,0.2-1.7,0.4c0,0.7,0.1,1.3,0.4,1.8
			c0.4-0.1,0.9-0.3,1.3-0.3c0.4-0.1,0.9-0.1,1.5-0.1c0.8,0,1.5,0.2,1.9,0.5c0.4,0.3,0.7,0.9,0.7,1.8v0.4c-0.2,0-0.4-0.1-0.8-0.1
			s-0.7-0.1-1.2-0.1c-0.7,0-1.2,0.1-1.8,0.3c-0.6,0.1-1.1,0.4-1.5,0.7c-0.4,0.3-0.8,0.7-1,1.2c-0.3,0.5-0.4,1.1-0.4,1.7
			c0,0.7,0.1,1.2,0.3,1.7c0.2,0.4,0.5,0.8,0.9,1.2c0.4,0.3,0.9,0.5,1.5,0.7c0.6,0.1,1.2,0.2,2,0.2c0.8,0,1.5-0.1,2.2-0.2
			c0.8-0.1,1.3-0.3,1.8-0.4v-7.2C55.2,35.9,54.8,34.8,54.1,34.1z M52.1,43.2c-0.4,0.1-0.7,0.1-1,0.1c-0.3,0-0.6,0-0.8-0.1
			c-0.3,0-0.6-0.1-0.8-0.3c-0.3-0.1-0.4-0.3-0.7-0.6c-0.2-0.2-0.3-0.7-0.3-1.1c0-0.7,0.3-1.2,0.7-1.6c0.4-0.3,1.2-0.5,2.1-0.5
			c0.3,0,0.5,0,0.8,0.1c0.3,0,0.7,0.1,0.8,0.1V43H53v0h0C52.7,43.1,52.5,43.2,52.1,43.2z"/>
		<path d="M64.1,33.1c-0.4,0-0.9,0.1-1.3,0.2c-0.4,0.1-0.7,0.3-1,0.5c-0.3,0.2-0.6,0.4-0.8,0.7c-0.3,0.3-0.4,0.5-0.6,0.8
			c0-0.3,0-0.6-0.1-0.9s-0.1-0.7-0.1-0.9c-0.2,0-0.3-0.1-0.4-0.1s-0.3,0-0.4,0c-0.2,0-0.3,0-0.4,0c-0.1,0-0.3,0.1-0.4,0.1l0,0v11.5
			c0.2,0,0.3,0.1,0.6,0.1c0.2,0,0.4,0,0.6,0c0.2,0,0.3,0,0.5,0c0.2,0,0.4-0.1,0.5-0.1V39c0-0.7,0.1-1.3,0.3-1.8
			c0.2-0.5,0.4-0.9,0.7-1.2c0.3-0.3,0.6-0.6,0.9-0.7c0.4-0.1,0.8-0.3,1.2-0.3c0.7,0,1.2,0.3,1.5,0.8c0.3,0.5,0.5,1.3,0.5,2.4v6.7
			c0.2,0,0.3,0.1,0.5,0.1c0.2,0,0.4,0,0.5,0c0.2,0,0.3,0,0.6,0c0.2,0,0.4-0.1,0.6-0.1v-7.3c0-1.5-0.3-2.6-0.9-3.4
			C66.3,33.4,65.3,33.1,64.1,33.1z"/>
		<path d="M92.5,36.7c-0.2-0.7-0.5-1.3-0.9-1.9c-0.4-0.6-1-0.9-1.7-1.3c-0.7-0.3-1.4-0.4-2.3-0.4s-1.7,0.1-2.3,0.4
			c-0.7,0.3-1.2,0.8-1.7,1.3c-0.4,0.6-0.8,1.2-0.9,1.9c-0.2,0.8-0.3,1.5-0.3,2.4s0.1,1.7,0.3,2.4c0.2,0.8,0.5,1.4,0.9,1.9
			c0.4,0.6,1,0.9,1.7,1.3c0.7,0.3,1.4,0.4,2.3,0.4c0.9,0,1.7-0.1,2.3-0.4c0.7-0.3,1.2-0.8,1.7-1.3c0.4-0.6,0.8-1.2,0.9-1.9
			c0.2-0.8,0.3-1.5,0.3-2.4S92.7,37.4,92.5,36.7z M89.8,42.2c-0.5,0.8-1.2,1.2-2.2,1.2s-1.8-0.4-2.2-1.2c-0.5-0.8-0.7-1.8-0.7-3.1
			c0-1.3,0.3-2.4,0.7-3.1c0.4-0.8,1.2-1.2,2.2-1.2s1.8,0.4,2.2,1.2c0.5,0.8,0.7,1.8,0.7,3.1C90.5,40.4,90.3,41.5,89.8,42.2z"/>
	</g>
	<g>
		<g>
			<path d="M87.3,91.7H32.7c-3.7,0-6.6-3-6.6-6.8V60c0-3.7,3-6.8,6.6-6.8h54.6c3.7,0,6.6,3,6.6,6.8v25
				C93.9,88.7,90.9,91.7,87.3,91.7z M32.7,55.4c-2.4,0-4.4,2.1-4.4,4.6v24.9c0,2.5,2,4.6,4.4,4.6h54.6c2.4,0,4.4-2.1,4.4-4.6V60
				c0-2.6-2-4.6-4.4-4.6H32.7z"/>
		</g>
	</g>
	<g>
		<path d="M44.4,81.7c-1.5,0-2.7-0.2-3.7-0.7c-1.1-0.5-2-1.2-2.7-2c-0.7-0.8-1.2-1.7-1.7-3c-0.4-1.3-0.6-2.5-0.6-3.9
			c0-1.5,0.2-2.8,0.6-3.8c0.5-1.3,1-2.3,1.7-3.1c0.7-0.8,1.6-1.5,2.6-2c1.1-0.5,2.2-0.7,3.7-0.7c0.9,0,1.6,0.1,2.3,0.2
			c0.4,0,0.9,0.2,1.6,0.4l0.4,0.2l-0.1,0.4c-0.1,0.2-0.1,0.5-0.3,0.8c-0.1,0.3-0.2,0.6-0.3,0.9l-0.2,0.4l-0.4-0.1
			c-0.4-0.1-0.7-0.2-1-0.2c-0.3-0.1-1-0.2-1.7-0.2c-1.8,0-3.1,0.6-4.1,1.8c-1,1.2-1.4,2.9-1.4,5.2c0,4.6,1.9,6.9,5.8,6.9
			c0.6,0,1.2-0.1,1.8-0.2c0.3,0,0.6-0.1,1-0.2l0.4-0.1l0.2,0.4c0.1,0.3,0.2,0.6,0.3,0.8c0.1,0.3,0.1,0.5,0.2,0.8l0.1,0.4l-0.4,0.1
			c-0.6,0.2-1.2,0.3-1.6,0.4C46,81.6,45.2,81.7,44.4,81.7z"/>
	</g>
	<g>
		<path d="M68.1,81.5c-0.3,0-0.7,0-1-0.1l-0.4,0l-0.4-12.7l0-1.5l-0.6,1.4l-3.7,8.9l-0.3,0c-0.1,0-0.2,0-0.3,0h-1.5l-0.1,0l-0.3,0
			L56,68.3l-0.6-1.2l0,1.3l-0.4,13l-0.4,0c-0.3,0-0.6,0.1-0.9,0.1c-0.3,0-0.6,0-0.9-0.1l-0.5,0l0.7-18.7l0.4,0
			c0.4,0,0.9-0.1,1.3-0.1c0.5,0,1.1,0.1,1.5,0.1l0.3,0l4.6,11.6l4.6-11.6l0.3,0c0.5-0.1,0.9-0.1,1.3-0.1c0.4,0,0.8,0,1.2,0.1l0.4,0
			l0.9,18.7l-0.5,0C68.7,81.5,68.3,81.5,68.1,81.5z"/>
	</g>
	<g>
		<path d="M77.7,81.7c-0.6,0-1.1,0-1.5-0.1c-0.5,0-0.9-0.1-1.3-0.2c-0.4-0.1-0.7-0.1-1.1-0.3l0,0l0,0c-0.2,0-0.4-0.1-0.6-0.2
			l-0.4-0.1c0,0,0.1-1,0.2-1.4c0.1-0.3,0.2-0.6,0.2-0.8l0.2-0.5l0.5,0.1c0.5,0.2,0.9,0.3,1.3,0.3c0.6,0.2,1.3,0.2,2.1,0.2
			c1.3,0,2.2-0.2,2.8-0.7c0.7-0.5,1.1-1.2,1.1-2.1c0-0.5-0.1-0.9-0.3-1.2c-0.2-0.3-0.4-0.6-0.7-0.8l-0.8-0.5
			c-0.2-0.1-0.5-0.2-0.7-0.3l-0.3-0.1l-1.6-0.6c-0.5-0.2-1-0.5-1.4-0.7l-0.1-0.1c-0.4-0.2-0.8-0.5-1.1-0.9c-0.3-0.3-0.5-0.7-0.7-1.3
			c-0.1-0.5-0.2-1.1-0.2-1.8c0-0.9,0.1-1.6,0.4-2.3c0.4-0.8,0.8-1.3,1.2-1.7c0.6-0.5,1.2-0.9,1.8-1c0.8-0.2,1.7-0.4,2.6-0.4
			c0.9,0,1.7,0.1,2.4,0.2c0.5,0.1,1,0.3,1.5,0.4l0.6,0.2l0,0.5c-0.1,0.5-0.2,1-0.4,1.4l-0.2,0.4l-0.6-0.2c-0.3-0.1-0.6-0.2-0.9-0.2
			l-0.1,0c-0.3-0.1-0.6-0.1-0.9-0.1C80.2,65,79.8,65,79.3,65c-0.2,0-0.6,0-1,0.1c-0.3,0.1-0.5,0.1-0.7,0.2l-0.3,0.1l0,0
			c-0.3,0.2-0.5,0.4-0.7,0.7c-0.2,0.3-0.3,0.7-0.3,1.3c0,0.4,0.1,0.8,0.2,1c0.1,0.3,0.3,0.5,0.6,0.7c0.3,0.2,0.5,0.4,0.8,0.5
			c0.2,0.1,0.5,0.2,0.7,0.3l1.6,0.6c0.7,0.2,1.3,0.5,1.7,0.9c0.6,0.3,1,0.6,1.3,1c0.4,0.5,0.7,1,0.9,1.5c0.2,0.5,0.3,1.1,0.3,2.1
			c0.1,0.7,0,1.5-0.4,2.2c-0.4,0.8-0.8,1.3-1.3,1.8c-0.6,0.5-1.3,0.9-2.2,1.2C79.8,81.6,78.9,81.7,77.7,81.7z"/>
	</g>
</g>
<g>
	<g>
		<path d="M60,120C26.9,120,0,93.1,0,60c0-4.8,0.7-9.7,2-15c0.2-0.8,0.9-1.3,1.7-1.3c0.2,0,0.3,0,0.4,0.1c0.5,0.1,0.9,0.4,1.1,0.8
			s0.3,0.9,0.2,1.4c-1.3,5-1.9,9.6-1.9,14.1c0,31.1,25.3,56.4,56.4,56.4c17.5,0,34.3-8.4,44.9-22.5l2.3-3.1h-7.3
			c-1,0-1.8-0.8-1.8-1.8c0-1,0.8-1.8,1.8-1.8h10.9c0.5,0,1,0.2,1.4,0.6s0.5,0.9,0.4,1.4l0,10.7c0,1-0.8,1.8-1.8,1.8
			c-1,0-1.8-0.8-1.8-1.8l0-5.2l-3.4,4c-4.4,5.2-9.5,9.5-15.3,12.9C81.2,117.1,70.7,120,60,120z"/>
	</g>
	<g>
		<path d="M116.2,76.3c-0.2,0-0.3,0-0.4-0.1c-0.5-0.1-0.9-0.4-1.1-0.8c-0.2-0.4-0.3-0.9-0.2-1.4c1.3-5,1.9-9.6,1.9-14.1
			c0-31.1-25.3-56.4-56.4-56.4c-17.5,0-34.3,8.4-44.9,22.5l-2.3,3.1h7.4c1,0,1.8,0.8,1.8,1.8c0,1-0.8,1.8-1.8,1.8H9.7
			c-0.3,0-0.4,0-0.5,0c-1,0-1.8-0.8-1.8-1.8V20.1c0-1,0.8-1.8,1.8-1.8c1,0,1.8,0.8,1.8,1.8l0.1,5.1l3.3-3.9
			c4.4-5.2,9.5-9.5,15.3-12.9C38.8,2.9,49.3,0,60,0c33.1,0,60,26.9,60,60c0,4.8-0.7,9.7-2,15C117.8,75.8,117.1,76.3,116.2,76.3z"/>
	</g>
</g>
</svg>
