<?xml version="1.0" encoding="utf-8"?>
<!-- Generator: Adobe Illustrator 22.1.0, SVG Export Plug-In . SVG Version: 6.00 Build 0)  -->
<svg version="1.1" id="Layer_1" xmlns="http://www.w3.org/2000/svg" xmlns:xlink="http://www.w3.org/1999/xlink" x="0px" y="0px"
	 viewBox="0 0 120 120" style="enable-background:new 0 0 120 120;" xml:space="preserve">
<style type="text/css">
	.st0{display:none;}
	.st1{display:inline;}
</style>
<g class="st0">
	<path class="st1" d="M60,90.9C43,90.9,29.1,77,29.1,60C29.1,43,43,29.1,60,29.1C77,29.1,90.9,43,90.9,60C90.9,77,77,90.9,60,90.9z
		 M60,31.1c-15.9,0-28.9,13-28.9,28.9s13,28.9,28.9,28.9s28.9-13,28.9-28.9S75.9,31.1,60,31.1z"/>
</g>
<g>
	<g>
		<path d="M76.3,74.7h-0.6l-0.4-0.2c-0.4-0.2-1.1-0.5-1.5-1.3c-1.5-2.3-3.2-4.5-5-6.3l-2.3-2.5l-7.9-8.2c0,0-3.4-3-4.8-4.8l-0.3-0.3
			c-0.4-0.6-0.6-1.1-0.9-1.7l-0.1-0.3v-0.3c-0.2-0.9,0-1.9,0.4-3.1c0.2-0.6,0.6-1.3,1.2-1.9c1.4-1.4,2.9-2.9,4.4-4.6l1.2-1.4
			l1.2,1.4c1.5,1.6,3.3,3.4,4.9,5c3.8,3.6,7.2,7.6,9.7,10.7c2.6,3.7,4,8,4,12.3c0,1.8-0.3,3.6-0.9,5.6l-0.1,0.3
			C78.3,73.9,77.4,74.7,76.3,74.7z M56.2,49.1l0.2,0.2c0.9,1.2,3.3,3.4,4.5,4.5l10.3,10.8c1.6,1.6,3.3,3.6,4.7,5.7
			c0.2-1.1,0.4-2.1,0.4-3.1c0-3.6-1.2-7.2-3.3-10.3c-2.4-2.9-5.7-6.8-9.4-10.3l0,0c-1.2-1.2-2.6-2.6-3.8-3.8
			c-1.1,1.2-2.2,2.3-3.3,3.4c-0.2,0.2-0.4,0.5-0.4,0.7c-0.3,0.8-0.3,1.2-0.3,1.4l0,0.3C56,48.8,56,48.9,56.2,49.1z"/>
	</g>
	<g>
		<path d="M60,88.5c-2.7,0-5.3-1-7.2-2.8c-2.1-1.9-3.3-4.5-3.4-7.4c-0.1-2.8,0.9-5.6,2.8-7.6c1-1.2,2.2-2.4,3.4-3.7
			c1.1-1.1,2.2-2.4,3.4-3.7l1.2-1.4l1.2,1.3c3,3.2,4.8,5.3,6.8,7.8c0.2,0.2,0.4,0.5,0.7,0.9c2.7,4.1,2.3,9.5-1,13.1
			c-1.9,2.1-4.5,3.3-7.4,3.4C60.3,88.5,60.2,88.5,60,88.5z M60.2,66.8c-0.8,0.8-1.5,1.6-2.2,2.4c-1.2,1.3-2.3,2.5-3.3,3.7
			c-1.3,1.5-2,3.4-2,5.3c0.1,2,0.9,3.8,2.3,5.1c1.4,1.3,3.3,2,5.3,1.9c2-0.1,3.8-0.9,5.1-2.3c2.3-2.6,2.6-6.3,0.7-9.2l-0.1-0.2
			c0-0.1-0.1-0.1-0.2-0.2l-0.1-0.1C64,71.1,62.5,69.2,60.2,66.8z"/>
	</g>
	<g>
		<path d="M44.7,75.2h-0.2c-1.5,0-2.4-1.4-2.8-2c-0.1-0.2-0.1-0.2-0.2-0.3c-0.1-0.2-0.2-0.4-0.4-0.6l-0.3-0.6
			c-0.9-3-0.9-6.1-0.2-9.3c0.8-3,1.9-5.3,3.4-7.4c1-1.4,2-2.7,2.9-3.7l1.1-1.3l2.6,2.3l5.9,6c0.7,0.7,0.8,1.7,0.3,2.7l-0.2,0.4
			l-6.1,6.9L48.4,71c-0.7,0.8-1.3,1.8-1.7,2.9l-0.1,0.3l-0.2,0.2C46.1,74.7,45.5,75.2,44.7,75.2z M44.1,70.7l0.1,0.2
			c0,0.1,0.1,0.2,0.1,0.2c0,0,0,0,0,0.1c0.5-0.8,1-1.6,1.5-2.3l2.1-2.6l5.5-6.3l-5-5.2c-0.5,0.7-1.1,1.4-1.7,2.2
			c-1.3,1.7-2.2,3.7-2.9,6.2C43.4,65.8,43.4,68.3,44.1,70.7z M54.2,60.7C54.2,60.7,54.2,60.7,54.2,60.7L54.2,60.7z"/>
	</g>
	<g>
		<path d="M59.8,95c-15.2,0-27.5-12.4-27.5-27.7c0-12.9,8.4-21.3,15.8-28.7c4.7-4.7,9.1-9.1,10.3-13.8l1.6-6.2l1.6,6.2
			c1.2,4.7,5.6,9.1,10.3,13.8l0.6,0.6c7.1,7.3,15.2,15.6,15.2,28.1C87.4,82.6,74.8,95,59.8,95z M60,29.6c-2.2,3.9-5.8,7.6-9.6,11.3
			c-7.3,7.3-14.9,14.9-14.9,26.4c0,13.5,10.9,24.4,24.2,24.4c13.2,0,24.3-11,24.6-24.4c0-11.2-7.6-18.9-14.3-25.7l-0.6-0.6
			C65.8,37.2,62.2,33.6,60,29.6z"/>
	</g>
</g>
<g>
	<g>
		<path d="M60,120C26.9,120,0,93.1,0,60c0-4.8,0.7-9.7,2-15c0.2-0.8,0.9-1.3,1.7-1.3c0.2,0,0.3,0,0.4,0.1c0.5,0.1,0.9,0.4,1.1,0.8
			s0.3,0.9,0.2,1.4c-1.3,5-1.9,9.6-1.9,14.1c0,31.1,25.3,56.4,56.4,56.4c17.5,0,34.3-8.4,44.9-22.5l2.3-3.1h-7.3
			c-1,0-1.8-0.8-1.8-1.8c0-1,0.8-1.8,1.8-1.8h10.9c0.5,0,1,0.2,1.4,0.6s0.5,0.9,0.4,1.4l0,10.7c0,1-0.8,1.8-1.8,1.8
			c-1,0-1.8-0.8-1.8-1.8l0-5.2l-3.4,4c-4.4,5.2-9.5,9.5-15.3,12.9C81.2,117.1,70.7,120,60,120z"/>
	</g>
	<g>
		<path d="M116.2,76.3c-0.2,0-0.3,0-0.4-0.1c-0.5-0.1-0.9-0.4-1.1-0.8c-0.2-0.4-0.3-0.9-0.2-1.4c1.3-5,1.9-9.6,1.9-14.1
			c0-31.1-25.3-56.4-56.4-56.4c-17.5,0-34.3,8.4-44.9,22.5l-2.3,3.1h7.4c1,0,1.8,0.8,1.8,1.8c0,1-0.8,1.8-1.8,1.8H9.7
			c-0.3,0-0.4,0-0.5,0c-1,0-1.8-0.8-1.8-1.8V20.1c0-1,0.8-1.8,1.8-1.8c1,0,1.8,0.8,1.8,1.8l0.1,5.1l3.3-3.9
			c4.4-5.2,9.5-9.5,15.3-12.9C38.8,2.9,49.3,0,60,0c33.1,0,60,26.9,60,60c0,4.8-0.7,9.7-2,15C117.8,75.8,117.1,76.3,116.2,76.3z"/>
	</g>
</g>
</svg>
