<?xml version="1.0" encoding="utf-8"?><svg xmlns="http://www.w3.org/2000/svg" width="19.941" height="20" viewBox="0 0 19.941 20">
  <path id="Path_9844" data-name="Path 9844" d="M264.768,1245.941a8.994,8.994,0,0,1-2.9-.55,19.334,19.334,0,0,1-6.881-4.673,19.693,19.693,0,0,1-4.573-6.681c-.954-2.56-.735-4.636.633-6l1.465-1.465a1.79,1.79,0,0,1,1.393-.627,2.029,2.029,0,0,1,1.684.915l2.122,2.982a1.962,1.962,0,0,1-.289,2.443l-1.62,1.619a.36.36,0,0,0-.079.356.189.189,0,0,0,.077.137h0s0,.023.017.054a8.5,8.5,0,0,0,1.191,2.062,10.563,10.563,0,0,0,4.435,3.365l.14.008a.445.445,0,0,0,.133-.031.46.46,0,0,1,.07-.02l.038,0,.033-.027,1.616-1.616a1.93,1.93,0,0,1,1.393-.576,2.057,2.057,0,0,1,1.061.29l.03.034,2.934,2.53a2.011,2.011,0,0,1,.874,1.447,1.923,1.923,0,0,1-.573,1.583l-1.116,1.115A4.359,4.359,0,0,1,264.768,1245.941Zm-13.1-17.344c-1.141,1.141-1.3,2.859-.477,5.107a21.449,21.449,0,0,0,10.97,10.868,7.064,7.064,0,0,0,2.559.511,3.807,3.807,0,0,0,2.8-1.09l.436-.436-4.961-3.708-.567.567a1.163,1.163,0,0,1-.838.374,1.658,1.658,0,0,1-.473-.1,11.578,11.578,0,0,1-4.849-3.753,7.783,7.783,0,0,1-1.244-2.331,1.169,1.169,0,0,1,.275-1.274l.564-.565-3.4-4.968Zm13.254,9.819a1.015,1.015,0,0,0-.788.344l-.476.474,4.909,3.761.063-.063a1.281,1.281,0,0,0,.332-.93.965.965,0,0,0-.5-.844l-.03-.035-2.935-2.531A1.084,1.084,0,0,0,264.919,1238.415ZM253.91,1226.8a1.015,1.015,0,0,0-.788.344l-.043.058,3.341,4.959.44-.44a1.105,1.105,0,0,0,.167-1.388l-2.125-2.985A1.108,1.108,0,0,0,253.91,1226.8Z" transform="translate(-249.835 -1225.941)"/>
</svg>
