<?xml version="1.0" encoding="utf-8"?><svg id="Group_2004" data-name="Group 2004" xmlns="http://www.w3.org/2000/svg" width="17.836" height="20" viewBox="0 0 17.836 20">
  <g id="Group_2003" data-name="Group 2003">
    <path id="Path_9841" data-name="Path 9841" d="M409.928,1011.636c1.686-2.8,3.816-6.726,3.816-8.747a6.18,6.18,0,1,0-12.359,0c0,2.02,2.13,5.951,3.816,8.747-2,.151-6.551.694-6.551,2.494,0,1.771,4.62,2.579,8.918,2.579s8.918-.808,8.918-2.579c0-1.8-4.559-2.343-6.559-2.494Zm-7.69-8.747a5.328,5.328,0,1,1,10.657,0c0,2.567-4.09,9.008-5.331,10.9-1.241-1.894-5.326-8.334-5.326-10.9Zm5.326,12.967c-5.22,0-8.065-1.143-8.065-1.73,0-.453,1.878-1.429,6.2-1.678.812,1.31,1.429,2.237,1.51,2.347a.435.435,0,0,0,.706,0c.086-.1.7-1.036,1.51-2.347,4.326.249,6.2,1.22,6.2,1.678,0,.592-2.849,1.73-8.07,1.73Z" transform="translate(-398.651 -996.71)"/>
    <path id="Path_9842" data-name="Path 9842" d="M418.262,1007.346a2.959,2.959,0,1,0-2.959,2.958A2.959,2.959,0,0,0,418.262,1007.346Zm-4.984,0a2.025,2.025,0,1,1,2.025,2.025A2.025,2.025,0,0,1,413.278,1007.346Z" transform="translate(-406.389 -1001.026)"/>
  </g>
</svg>
