<?xml version="1.0" encoding="utf-8"?>
<!-- Generator: Adobe Illustrator 23.1.0, SVG Export Plug-In . SVG Version: 6.00 Build 0)  -->
<svg version="1.1" id="Layer_1" xmlns="http://www.w3.org/2000/svg" xmlns:xlink="http://www.w3.org/1999/xlink" x="0px" y="0px"
	 viewBox="0 0 750 300" style="enable-background:new 0 0 750 300;" xml:space="preserve">
<style type="text/css">
	.st0{fill:#151E25;}
	.st1{fill:#C19A67;}
</style>
<title>gold-transp-bg</title>
<path class="st0" d="M144.1,77.1c-39.8,0-72.1,32.3-72.1,72.1c0,39.8,32.3,72.1,72.1,72.1s72.1-32.3,72.1-72.1c0,0,0,0,0,0
	C216.2,109.4,183.9,77.2,144.1,77.1z M79.3,149.2c0-9.1,1.9-18.1,5.6-26.4l30.9,84.7C93.5,196.7,79.3,174.1,79.3,149.2z
	 M144.1,214.1c-6.2,0-12.4-0.9-18.3-2.6l19.5-56.5l19.9,54.6c0.1,0.3,0.3,0.6,0.5,0.9C158.7,212.8,151.4,214.1,144.1,214.1z
	 M153,118.8c3.9-0.2,7.4-0.6,7.4-0.6c1.5-0.2,2.5-1.5,2.3-3c-0.2-1.4-1.4-2.4-2.8-2.4c0,0-10.5,0.8-17.3,0.8
	c-6.4,0-17.1-0.8-17.1-0.8c-3.5-0.2-3.9,5.1-0.4,5.3c0,0,3.3,0.4,6.8,0.6l10.1,27.7L128,189.1l-23.6-70.2c3.9-0.2,7.4-0.6,7.4-0.6
	c1.5-0.2,2.5-1.5,2.4-3c-0.2-1.4-1.4-2.4-2.8-2.4c0,0-10.5,0.8-17.3,0.8c-1.2,0-2.7,0-4.2-0.1c19.7-29.9,59.8-38.2,89.8-18.6
	c2.9,1.9,5.6,4,8.2,6.4c-0.3,0-0.6-0.1-0.8-0.1c-6.4,0-10.9,5.6-10.9,11.5c0,5.3,3.1,9.9,6.4,15.2c2.5,4.3,5.3,9.9,5.3,17.9
	c0,5.6-1.6,12.6-4.9,21l-6.5,21.6L153,118.8z M176.7,205.3l19.8-57.3c3.7-9.2,4.9-16.6,4.9-23.2c0-2.2-0.1-4.5-0.4-6.7
	C217.8,148.9,207.1,187.6,176.7,205.3L176.7,205.3z"/>
<path class="st0" d="M280.3,119.6l-14.6,43c-1.6,4.8-2.7,9.8-3.2,14.9h-0.4c-0.6-5.1-1.7-10-3.2-14.9l-14.6-43h-19.5l27.6,72.5h19.7
	l27.6-72.5H280.3z"/>
<polygon class="st0" points="309.5,119.5 304,134 304,192 323.5,192 323.5,119.5 "/>
<path class="st0" d="M392.6,128.1c-4.8-6.6-11.5-9.9-20.1-9.9c-9.1,0-15.2,3.6-19.9,10.8h-0.9l-2.8-9.4h-15.8V225h19.5v-30.4
	c0-1-0.3-4.5-1-10.5h1c4.8,6.2,10.8,9.3,19.4,9.3c5.3,0.1,10.5-1.4,14.8-4.5c4.4-3.3,7.8-7.8,9.7-13c2.4-6.4,3.6-13.3,3.4-20.2
	C399.9,143.9,397.5,134.7,392.6,128.1z M367.1,177.3c-5,0-8.7-1.7-11-5.1s-3.5-8.9-3.5-16.7v-2.1c0.1-6.9,1.3-11.9,3.5-14.9
	c2.2-3,5.8-4.5,10.7-4.5c4.7,0,8.1,1.8,10.3,5.4c2.2,3.6,3.3,8.9,3.3,16.1C380.4,170,376,177.3,367.1,177.3z"/>
<path class="st1" d="M462.9,91.7h11.9v16.8c-1.8,0.6-3.7,1.1-5.6,1.3c-2.1,0.3-4.3,0.4-6.4,0.4c-3.1,0.1-6.2-0.6-9-2.1
	c-2.4-1.4-4.4-3.5-5.5-6.1c-1.3-2.9-2-6.2-1.9-9.4c-0.1-3.2,0.6-6.4,2.1-9.3c1.4-2.6,3.5-4.8,6.1-6.2c3-1.5,6.3-2.3,9.6-2.2
	c1.8,0,3.7,0.2,5.5,0.5c1.6,0.3,3.2,0.8,4.8,1.5l-1.6,3.8c-1.3-0.6-2.7-1-4.1-1.4c-1.5-0.4-3.1-0.6-4.7-0.6c-4.1,0-7.3,1.2-9.6,3.7
	c-2.3,2.5-3.4,5.8-3.4,10.1c0,2.5,0.4,4.9,1.3,7.2c0.8,2,2.3,3.7,4.1,4.9c2.3,1.3,4.8,1.9,7.4,1.8c1.3,0,2.6-0.1,3.8-0.2
	c1-0.1,1.9-0.3,2.9-0.6V95.5h-7.5L462.9,91.7z"/>
<path class="st1" d="M517.7,92.6c0.1,3.2-0.5,6.4-1.8,9.3c-1.1,2.5-3,4.7-5.3,6.2c-2.6,1.5-5.6,2.3-8.7,2.2
	c-3.1,0.1-6.2-0.7-8.9-2.2c-2.4-1.5-4.2-3.6-5.2-6.2c-1.2-3-1.8-6.1-1.7-9.3c-0.1-3.1,0.5-6.3,1.7-9.2c1.1-2.5,2.9-4.7,5.2-6.2
	c2.7-1.6,5.9-2.3,9-2.2c3-0.1,6,0.7,8.6,2.2c2.3,1.5,4.2,3.6,5.3,6.2C517.2,86.3,517.8,89.4,517.7,92.6z M490.6,92.6
	c0,4.3,0.9,7.7,2.7,10.2s4.7,3.7,8.5,3.7c3.9,0,6.7-1.2,8.5-3.7c1.8-2.5,2.7-5.9,2.7-10.2c0-4.3-0.9-7.7-2.7-10.2
	c-1.8-2.5-4.6-3.7-8.4-3.7c-3.9,0-6.8,1.2-8.6,3.7C491.6,84.9,490.7,88.3,490.6,92.6z"/>
<path class="st1" d="M530.1,109.8V75.5h4.3V106h15v3.8L530.1,109.8z"/>
<path class="st1" d="M587.5,92.3c0,5.8-1.6,10.2-4.7,13.1s-7.5,4.4-13.2,4.4H560V75.5h10.6c3.1-0.1,6.2,0.6,9,1.9
	c2.5,1.2,4.5,3.2,5.9,5.7C586.9,86,587.6,89.1,587.5,92.3z M582.9,92.5c0-4.6-1.1-7.9-3.4-10s-5.5-3.2-9.6-3.2h-5.6v26.8h4.7
	C578.3,106.1,582.9,101.6,582.9,92.5z"/>
<path class="st1" d="M469.5,167.4l-4.1-10.6h-13.6l-4.1,10.6h-4.4l13.4-34.4h3.9l13.3,34.4H469.5z M464.1,153l-3.8-10.4
	c-0.1-0.2-0.3-0.7-0.5-1.4s-0.4-1.4-0.6-2.1s-0.4-1.3-0.5-1.6c-0.2,1-0.5,2-0.8,2.9s-0.5,1.7-0.7,2.2l-3.9,10.4H464.1z"/>
<path class="st1" d="M497.4,149.3h11.9v16.8c-1.8,0.6-3.7,1.1-5.6,1.4c-2.1,0.3-4.3,0.4-6.4,0.4c-3.1,0.1-6.2-0.6-9-2.1
	c-2.4-1.4-4.4-3.5-5.5-6.1c-1.3-2.9-2-6.2-1.9-9.4c-0.1-3.2,0.6-6.4,2.1-9.3c1.4-2.6,3.5-4.8,6.1-6.1c3-1.5,6.3-2.3,9.6-2.2
	c1.8,0,3.7,0.2,5.5,0.5c1.6,0.3,3.2,0.8,4.8,1.5l-1.6,3.8c-1.3-0.6-2.7-1-4.1-1.4c-1.5-0.4-3.1-0.6-4.7-0.6c-4.1,0-7.3,1.2-9.6,3.7
	c-2.3,2.5-3.4,5.8-3.4,10.1c0,2.5,0.4,4.9,1.3,7.2c0.8,2,2.3,3.7,4.1,4.9c2.3,1.3,4.8,1.9,7.4,1.8c1.3,0,2.6-0.1,3.8-0.2
	c1-0.1,1.9-0.3,2.9-0.6v-10.2h-7.5L497.4,149.3z"/>
<path class="st1" d="M541.5,167.4h-19.2v-34.3h19.2v3.8h-14.8v10.7h14v3.8h-14v12.2h14.8V167.4z"/>
<path class="st1" d="M581,167.4h-5l-18.3-28.5h-0.2c0.1,1.1,0.1,2.5,0.2,4.2c0.1,1.7,0.1,3.4,0.1,5.1v19.1h-4v-34.3h5l18.3,28.4h0.2
	c0-0.5-0.1-1.3-0.1-2.3s-0.1-2.1-0.1-3.3s-0.1-2.3-0.1-3.4v-19.3h4L581,167.4z"/>
<path class="st1" d="M609.8,136.4c-3.3-0.2-6.5,1.2-8.7,3.7c-2.1,2.5-3.2,5.8-3.2,10.1c0,4.3,1,7.7,3,10.1c2,2.5,5,3.7,8.9,3.7
	c1.4,0,2.8-0.1,4.2-0.4c1.3-0.3,2.7-0.6,4-1v3.8c-1.3,0.5-2.6,0.8-4,1c-1.6,0.2-3.2,0.4-4.9,0.3c-3.1,0.1-6.1-0.6-8.7-2.2
	c-2.3-1.5-4.2-3.6-5.3-6.1c-1.2-3-1.8-6.2-1.8-9.4c-0.1-3.2,0.6-6.3,1.9-9.1c1.2-2.6,3.1-4.7,5.6-6.2c2.7-1.6,5.9-2.3,9-2.2
	c3.3-0.1,6.5,0.6,9.5,2l-1.7,3.6c-1.2-0.5-2.4-0.9-3.6-1.2C612.6,136.6,611.2,136.4,609.8,136.4z"/>
<path class="st1" d="M639.1,150l8.9-16.9h4.7l-11.4,21v13.3H637v-13.1l-11.4-21.2h4.7L639.1,150z"/>
<path class="st1" d="M457.1,190.7c4.5,0,7.7,0.9,9.8,2.6c2.1,1.9,3.2,4.6,3.1,7.4c0,1.8-0.4,3.7-1.3,5.3c-1,1.8-2.5,3.2-4.3,4
	c-2.6,1.1-5.3,1.7-8.1,1.5h-3.9V225h-4.3v-34.3H457.1z M456.7,194.4h-4.4V208h3.5c3.3,0,5.7-0.5,7.3-1.6c1.6-1.1,2.4-2.8,2.4-5.4
	c0.1-1.9-0.7-3.7-2.1-4.9C462,195,459.7,194.4,456.7,194.4L456.7,194.4z"/>
<path class="st1" d="M501,225l-4.1-10.6h-13.6l-4.1,10.6h-4.4l13.4-34.4h3.9l13.3,34.4H501z M495.6,210.6l-3.8-10.4
	c-0.1-0.2-0.3-0.7-0.5-1.4s-0.5-1.4-0.6-2.1s-0.4-1.3-0.5-1.6c-0.2,1-0.5,2-0.8,2.9s-0.5,1.7-0.7,2.2l-3.9,10.4H495.6z"/>
<path class="st1" d="M524.4,190.7c4.3,0,7.4,0.8,9.4,2.4s3,4.1,3,7.3c0.1,1.6-0.3,3.1-1,4.6c-0.6,1.2-1.5,2.2-2.6,2.9
	c-1,0.7-2.1,1.3-3.3,1.7l9.5,15.4h-5l-8.3-14.2h-6.8V225H515v-34.3H524.4z M524.2,194.5h-4.9v12.7h5.1c2.8,0,4.8-0.5,6.1-1.6
	c1.3-1.3,2-3,1.9-4.9c0-2.2-0.7-3.8-2-4.8S527,194.5,524.2,194.5z"/>
<path class="st1" d="M560.5,225h-4.3v-30.5h-10.7v-3.8h25.7v3.8h-10.7V225z"/>
<path class="st1" d="M608.3,225h-5l-18.3-28.5h-0.2c0.1,1.1,0.1,2.5,0.2,4.2c0.1,1.7,0.2,3.4,0.2,5.1V225h-4v-34.3h5l18.3,28.4h0.2
	c0-0.5-0.1-1.3-0.1-2.3s-0.1-2.1-0.1-3.3s-0.1-2.3-0.1-3.4v-19.3h4L608.3,225z"/>
<path class="st1" d="M641.5,225h-19.2v-34.3h19.2v3.8h-14.8v10.7h14v3.8h-14v12.2h14.8V225z"/>
<path class="st1" d="M663.3,190.7c4.3,0,7.4,0.8,9.4,2.4s3,4.1,3,7.3c0.1,1.6-0.3,3.1-1,4.6c-0.6,1.2-1.5,2.2-2.6,2.9
	c-1,0.7-2.1,1.3-3.3,1.7l9.4,15.4h-5l-8.3-14.2h-6.8V225h-4.3v-34.3H663.3z M663.1,194.5h-4.9v12.7h5.1c2.8,0,4.8-0.5,6.1-1.6
	c1.3-1.3,2-3,1.9-4.9c0-2.2-0.7-3.8-2-4.8S665.9,194.5,663.1,194.5z"/>
<g>
	<path class="st1" d="M727.7,277.5h-705v-255h705V277.5z M27.7,272.5h695v-245h-695V272.5z"/>
</g>
</svg>
