<?xml version="1.0" encoding="utf-8"?>
<!-- Generator: Adobe Illustrator 22.1.0, SVG Export Plug-In . SVG Version: 6.00 Build 0)  -->
<svg version="1.1" id="Layer_1" xmlns="http://www.w3.org/2000/svg" xmlns:xlink="http://www.w3.org/1999/xlink" x="0px" y="0px"
	 viewBox="0 0 2771.1 363.6" style="enable-background:new 0 0 2771.1 363.6;" xml:space="preserve">
<style type="text/css">
	.st0{fill:#6E7585;}
	.st1{fill:#6E7685;}
</style>
<path class="st0" d="M2061.4,166.3c7.6-1.5,63.8-1.7,74.6-0.1c-2.8,2.6-5.8,2.3-8.5,2.9c-10.6,2.5-14.1,6-15.3,16.8
	c-0.6,5.6-0.4,11.3-0.4,17c-0.1,12.7,0.1,25.3-0.1,38c-0.1,4.6,1.1,6.6,6.1,6.6c26-0.2,52-0.1,78,0c4.4,0,5.8-1.7,5.7-5.9
	c-0.2-16.7,0.1-33.3-0.2-50c-0.3-17.7-5.9-21.3-18.9-23c-1.6-0.2-3.1-0.9-4.6-1.5c-0.1-0.1-0.1-0.6-0.2-1.4c24.8,0,49.5,0,75.1,0
	c-2.7,3.4-5.9,2.8-8.6,3.4c-11.1,2.6-14.6,6.2-15.9,17.4c-0.3,2.6-0.3,5.3-0.3,8c0,39.6,0,79.3,0,118.9c0,0.7,0,1.3,0,2
	c0.4,16.6,3.4,20.3,19.5,23.6c1.5,0.3,3.3-0.1,4.2,1.7c-7.6,2.5-67.7,2.4-75.1-0.5c4.5-1,8.3-1.9,12.1-2.7c6.7-1.3,10.6-5.2,11.6-12
	c0.5-3.6,1.2-7.3,1.2-10.9c0.1-16.7,0.1-33.3,0.1-50c0-7.3-0.2-7.5-6.9-7.5c-25.3-0.1-50.6,0.1-76-0.1c-5.1,0-6.9,1.5-6.8,6.8
	c0.3,17.7,0.1,35.3,0.2,53c0,2.6,0.4,5.3,0.8,7.9c1.1,6.9,4.9,11.5,12.1,12.9c3.6,0.7,7.1,1.6,12,2.6c-6.8,3.7-13,1.7-18.8,2
	c-6.6,0.4-13.3,0.1-20,0.1c-6.3,0-12.7,0.2-19-0.1c-6-0.3-12.3,1.5-19.7-2c5.3-1.2,9.2-2.1,13-2.9c7.1-1.4,11-5.8,11.9-12.9
	c0.5-4.3,1-8.6,1-12.9c0.1-39.3,0-78.6,0-117.9c0-2,0-4-0.2-6c-1.1-12.3-4.7-16.2-16.8-18.8c-2.3-0.5-4.5-1.1-6.7-1.7
	C2061.5,167.1,2061.5,166.6,2061.4,166.3z"/>
<path class="st0" d="M2268.4,339.8c3.9-0.9,7.7-1.7,11.6-2.6c7.1-1.6,10.8-6.3,11.6-13.3c0.4-4,0.5-8,0.5-12c0-38.6,0-77.3,0-115.9
	c0-1.7,0-3.3-0.1-5c-0.5-16.2-3-19.2-19.2-22.7c-1.5-0.3-3-0.8-4.4-2.9c2-0.1,4.1-0.4,6.1-0.4c44.3,0,88.6,0,132.9,0
	c9.3,0,9.3,0.1,9.6,9.1c0.2,7.7,0.4,15.3,0.5,23c0,1.6,0.1,3.5-2.1,3.9c-1.9,0.3-3.1-0.9-3.5-2.7c-0.2-1-0.5-1.9-0.7-2.9
	c-3.3-15.1-13.5-21.5-28.1-21.9c-18.3-0.4-36.6-0.5-55-0.4c-7,0-9.1,2-9.2,9c-0.3,19.3-0.1,38.6-0.2,58c0,4,1.9,5.1,5.5,5
	c16-0.2,32,0.3,48-0.3c14-0.5,18.5-4.6,22.7-18.3c0.4-1.3,0.6-2.6,0.9-3.9c0.4-1.7,1.2-3.3,3.2-3.2c2.2,0.1,2.2,2.1,2.2,3.7
	c0,9,0,18,0,27c0,8.3,0,16.7,0,25c0,1.6-0.1,3.6-2.2,3.8c-1.9,0.1-2.8-1.4-3.2-3.1c-0.1-0.7-0.2-1.3-0.4-2
	c-5.3-16.6-9.2-19.8-26.3-20.2c-14.6-0.4-29.3,0-44-0.2c-4.8-0.1-6.4,1.7-6.4,6.4c0.2,20.7-0.1,41.3,0.2,62
	c0.1,8.2,2.6,10.8,10.7,11.4c18,1.3,35.9,1.3,53.9-0.6c17.6-1.9,30.4-10.6,38.9-26.1c1.6-2.9,2.4-8.8,6.8-7c4.6,1.8,0.4,6.3-0.3,9.3
	c-2,8.7-4.8,17.3-7.2,26c-2.1,7.4-2.1,7.5-10.2,7.5c-43,0-85.9,0-128.9,0c-4.8,0-9.6,0-14.4,0
	C2268.4,341.5,2268.4,340.7,2268.4,339.8z"/>
<path class="st0" d="M2646.9,290.4c4.6,1.3,4.6,5.2,6,8c6.3,12.3,13.9,23.5,25.9,31.1c12.1,7.6,25.2,10.5,39.2,7.8
	c11.8-2.3,21-8.7,24.8-20.7c3.9-12.4,1.4-23.7-7.6-33.3c-3.9-4.2-8.5-7.5-13.4-10.4c-12.5-7.6-25.1-15.2-37.6-22.8
	c-5.4-3.3-10.8-6.6-15.6-10.7c-12.8-11.1-18.9-24.8-14.9-41.8c4.1-17.4,15.2-28.5,32.1-33.7c11.8-3.6,23.7-3.3,35.4,0.3
	c5.4,1.7,10.8,3.5,16.2,5c9.1,2.6,10.9,1.8,16.7-5.9c0.6-0.8,1.2-1.6,2.4-1.4c1.1,0.1,1.8,0.8,2,1.8c1.8,16.2,3.7,32.4,5.4,48.6
	c0.2,1.5,0.8,3.6-1.6,4c-2.1,0.4-2.7-1.4-3.3-2.9c-1.6-4-3-8.1-4.8-12c-8.4-18.2-23.2-27.6-42.5-30.9c-5.4-0.9-10.6-0.4-15.8,1
	c-20.3,5.5-27,27.5-13.1,43.3c6,6.8,13.7,11.6,21.4,16.2c11.5,6.8,23,13.4,34.4,20.4c7.4,4.6,14.4,9.7,20.4,16
	c16,16.5,16.3,42.9,0.6,59.8c-10,10.7-22.4,16.5-36.8,18.2c-12.4,1.4-24.6,0.6-36.5-3.5c-4.4-1.5-8.9-2.9-13.4-4.1
	c-5.8-1.6-11.3-1.8-14.4,4.8c-0.8,1.6-1.7,3-3.7,2.6c-1.4-0.3-2-1.7-2.1-3c-2-16.8-5.9-33.4-6.7-50.3
	C2645.9,291.3,2646.3,291.1,2646.9,290.4z"/>
<path class="st0" d="M2018.4,160.9c3.3,8.6,7.5,47.8,6,55.8c-4.5-1.3-4.4-5.6-5.5-8.6c-5.8-15.8-15.8-27.6-31.7-34
	c-9.1-3.7-18.5-5.5-28.3-3c-9.5,2.4-17.6,7.1-20.4,17.1c-2.9,10.3-0.8,19.8,6.9,27.7c6.4,6.5,14,11.2,21.7,15.9
	c15.7,9.4,32.1,17.7,46.5,29.2c10.3,8.2,17.6,18,18.8,31.7c1.9,20.3-8.7,38.1-28.5,47.1c-17.5,8-35.5,7.7-53.7,2.8
	c-5.1-1.4-10.1-3.3-15.3-4.7c-6.2-1.8-12-2.1-15.1,5.2c-0.6,1.3-1.6,2.2-3,2.1c-2.1-0.1-2.4-1.9-2.7-3.6c-2.2-15.5-4.5-31-6.7-46.5
	c-0.2-1.5-0.9-3.5,1.3-4.2c2.1-0.6,2.8,1.1,3.5,2.6c3.4,7.3,6.9,14.4,11.9,20.8c13.7,17.7,31.5,26.5,54,23.2
	c12.8-1.8,22.6-8.6,26.4-21.4c3.9-13.2,0.7-25-9.6-34.6c-4.9-4.6-10.6-8.1-16.2-11.6c-11.1-6.8-22.3-13.3-33.4-20.1
	c-5.1-3.1-10.2-6.4-14.8-10.2c-13-10.9-19.2-24.5-15.4-41.6c3.9-17.5,14.8-28.7,31.7-34c10-3.1,20.3-3.9,30.6-1.1
	c6.1,1.7,12.2,3.3,18.3,5.1C2008.6,171.9,2009.3,171.7,2018.4,160.9z"/>
<path class="st0" d="M1356.2,165.7c21.3,0,41.6,0,62.4,0c-1.5,3.4-4.1,2.8-6.2,3.3c-13.9,3.5-17.4,7.3-18.9,21.9
	c-0.7,6.3-0.9,12.6-0.9,19c-0.1,22.3-0.1,44.7-0.1,67c0,10.4-1,20.6-4.2,30.6c-4.9,15.3-14.7,26.2-29.5,31.9
	c-24.6,9.5-49.6,9.4-74.2,0.4c-16.1-5.9-26.2-17.9-31-34.2c-2.5-8.3-3.6-16.9-3.6-25.7c0-27,0-54,0-81c0-3,0-6-0.1-9
	c-0.5-14.3-3.8-18.2-17.6-21c-2.2-0.4-4.7-0.3-6.6-1.9c5.5-2.4,49.7-3.2,75.9-1.4c-1.9,4-5.7,2.9-8.5,3.5
	c-11.5,2.5-14.5,5.6-15.9,17.2c-0.4,3.6-0.5,7.3-0.6,11c0,26.7,0,53.3,0,80c0,8.3,0.5,16.7,2.3,24.8c3.7,17.4,14.4,28.2,31.5,32.4
	c14.2,3.5,28.5,2.8,42.4-1.9c14.3-4.9,23.3-14.9,27-29.6c2-8.1,2.8-16.4,2.8-24.8c0.1-25.7,0.1-51.3,0-77c0-4.3-0.5-8.6-0.8-13
	c-0.9-10.2-6.4-16.4-16.4-18.8C1362.4,168.7,1359.1,169.3,1356.2,165.7z"/>
<path class="st0" d="M1624.7,340c4.5-1,8.3-1.9,12.2-2.7c7.1-1.5,11-5.9,11.8-13c0.4-3.6,0.8-7.3,0.8-10.9c0.1-39.6,0-79.2,0-118.9
	c0-1.3,0-2.7-0.1-4c-0.7-15.3-3.8-18.9-18.8-22.1c-1.7-0.4-4.1,0.2-5.2-2.8c25.3,0,50.3,0,75.8,0c-1.4,3.6-4.9,2.6-7.3,3.1
	c-13.2,2.7-16.8,6.7-17.8,20c-0.2,2.3-0.1,4.7-0.1,7c0,40.3,0,80.6,0,120.9c0,2.3-0.1,4.7,0.2,7c0.8,6.4,2.9,9.2,9.4,9.6
	c22.3,1.5,44.6,1.8,66.6-3.1c10.8-2.4,17.9-9.8,24-18.3c1-1.4,1.7-2.9,2.8-4.1c3-3.1,3.2-10.9,8.5-8.9c3.1,1.2-0.7,7.7-1.7,11.6
	c-2.3,8.4-5.4,16.5-7.3,24.9c-1.3,5.8-4,7.3-9.7,7.2c-23.6-0.3-47.3-0.1-70.9-0.1c-22,0-44,0-65.9,0
	C1629.9,342.3,1627.4,343.3,1624.7,340z"/>
<path class="st0" d="M1883.3,340.6c-8,2.5-72.7,2.4-80.4-0.5c5-0.9,9.1-1.6,13.1-2.5c9.3-2.1,12.2-5.3,13.5-14.8
	c0.4-3.3,0.5-6.6,0.5-10c0-39.3,0-78.6,0-118c0-0.3,0-0.7,0-1c-0.3-19.3-3-22.5-21.6-25.7c-1.5-0.3-3.3,0.1-4.5-1.4
	c6.1-2.1,65.9-2.7,80.2-0.7c-3.9,2.4-7.5,2.3-10.9,2.9c-11.3,2.3-14.7,5.9-15.9,17.2c-0.4,3.6-0.5,7.3-0.5,11c0,37.3,0,74.6,0,112
	c0,25.5,3,28.1,25.1,30.3C1882.4,339.5,1882.8,340.2,1883.3,340.6z"/>
<path class="st1" d="M2244.5,120.9c-10.9-25.1-20.8-47.9-30.8-70.9c-3.4,1.7-2,4.3-2,6.3c-0.1,14,0,28,0,42
	c0,8.5,0.1,16.8,10.5,20.3c-9,0-17.9,0-26.9,0c-0.5-2.1,1.1-2.5,2.2-2.7c6.7-1.2,8.3-6,8.3-11.8c0.1-13.3,0.2-26.6,0.2-40
	c0-6-0.3-12,0-18c0.5-7.9-1.5-13.8-10.8-15.5c7.4-2.2,14.8-1.5,22-1.2c3.1,0.2,3.5,3.7,4.5,6.1c7.4,17.1,14.8,34.2,22.2,51.3
	c1.2,2.7,1.8,5.7,5,8.1c6.9-16.3,13.6-32.1,20.4-48c2.5-5.8,3.2-13.4,8.2-16.7c5.4-3.5,13-0.8,19.6-1.2c1.2-0.1,2.6-0.5,3.5,0.9
	c-9.4,5.9-9.4,5.9-9.5,18.8c0,17.7-0.1,35.3,0,53c0,11.1,0.1,11.1,9.5,16.4c-10.7,1.2-21.4,0.9-33.7,0.8
	c10.8-6.7,10.8-6.7,10.9-18.8c0-17.6,0-35.3-0.8-53.2C2265.3,70.4,2256.2,94.8,2244.5,120.9z"/>
<path class="st1" d="M2743.1,29.5c8.9,0,17.7,0,26.6,0c-0.1,0.7,0,1.8-0.2,1.9c-8.2,2.3-10.3,8.2-10.2,16c0.2,20.7,0,41.3,0,62
	c0,3.2,0,6.5,0,10.1c-2.1-1.1-0.4-0.1-1.7,0c-0.3,0-0.7,0-1-0.2c-0.8-0.6-1.6-1.2-2.2-1.9c-17.1-22.6-34.1-45.2-51.1-67.7
	c-3.4,0.6-2.5,3.1-2.5,4.8c0,15.3,0,30.7,0.1,46c0,7.6,0.7,14.9,10.6,17.1c-9.3,2.4-18.1,1.4-26.8,1.4c-0.6-2.4,0.8-2.9,2-3.1
	c6.2-1.1,8.2-5.4,8.2-10.9c0.2-20.7,0.1-41.3,0.2-62c0.1-7.4-6.1-9.3-10.7-13.8c5.5,0,10.9,0.2,16.4-0.1c4.1-0.2,5.7,2.8,7.7,5.4
	c13.1,17.3,26.1,34.6,39.2,51.8c1.3,1.7,2,4.3,5.4,4.7c0-16.3,0.3-32.4-0.1-48.6C2753,36.1,2751.5,35.2,2743.1,29.5z"/>
<path class="st1" d="M1865.8,90.8c2.3-1.4,1.3-3.6,1.3-5.4c0.1-12,0-24,0-36c0-8.2-0.6-16.2-10.6-19.5c8.8,0,17.6,0,26.4,0
	c-10.9,3.7-10.2,12.7-10.3,21.3c-0.1,19.7,0,39.3-0.1,59c0,3.1,0.9,6.5-1.8,10.9c-18.6-24.5-36.5-48.2-54.4-71.9
	c-3.4,1.9-2.1,4.5-2.2,6.6c-0.1,14.7-0.2,29.3,0.1,44c0.2,11.5,1,12.6,10.5,18.6c-8.9,0.9-17.9,0.9-26.9,0.6c0.1-0.9,0.1-2,0.3-2
	c8.6-1.8,10.4-7.9,10.3-15.6c-0.1-19-0.2-38,0.2-57c0.1-7.9-5.2-10.7-10.8-15.1c5.7,0,11.4,0,17.1,0c4.1,0,5.5,3.3,7.4,5.9
	c12.9,17,25.7,34,38.6,51C1862.3,87.9,1863.1,90.4,1865.8,90.8z"/>
<path class="st1" d="M2365.9,56.9c0.9,10.4,0.5,20.1,0.2,31.5c-8.6-13.6-8.6-13.7-23.6-13.6c-14.7,0.1-12.4-1.7-12.6,12.8
	c-0.1,6.3,0.1,12.7,0,19c-0.1,4.5,1.9,6.9,6.5,6.9c4.7,0,9.3,0,14,0.1c11.2,0.2,20.3-3.4,25-14.4c0.5-1.2,1.2-2.4,3.7-2
	c0.3,6.8-2.6,13.1-4.1,19.6c-0.6,2.4-3,2.3-5,2.3c-20.9,0-41.7,0-62.3,0c-0.9-2.1,0.1-2.8,1-3c6.8-1,8.3-5.7,8.3-11.6
	c0-6.3,0-12.7,0-19c0-13-0.1-26,0-39c0-7.3-0.4-14.2-10.7-15.5c2.6-2.9,5-2,7.1-2c17.7-0.1,35.3-0.1,53,0c7,0,7.1,0.2,7.3,7.3
	c0.1,3.8,0,7.6,0,11c-2.4,0.5-3.3-0.2-3.5-1.2c-1.7-9.5-8.2-12-16.8-11.8c-6,0.2-12,0-18,0c-3.7,0-5.5,1.7-5.5,5.4
	c0,8.3,0,16.7,0,25c0,2.9,1.3,4.3,4.2,4.2c6.3-0.1,12.7,0,19-0.1c4.5,0,7.5-2.3,8.8-6.7C2362.5,60.7,2362.4,58.5,2365.9,56.9z"/>
<path class="st0" d="M990.2,182.2c0-57.3,0-114.6,0-171.9c0-3,0.2-5.9,0.6-8.9c0.1-0.6,1.5-1.4,2.2-1.4c0.8,0,2.1,0.9,2.1,1.6
	c0.3,3,0.4,6,0.4,8.9c0,97.3,0,194.6,0,291.8c0,17,0,34,0,51c0,1.7,0.1,3.3,0,5c-0.1,2.2,0.7,5.4-2.8,5.3c-3.2-0.1-2.7-3.2-2.7-5.5
	c0-10.3,0-20.7,0-31C990.2,278.8,990.2,230.5,990.2,182.2z"/>
<path class="st1" d="M1232.2,119.9c-1.9-8.8-3.1-17.6-3.6-26.5c4-1,3.9,2.3,4.7,4c2.7,5.9,6.1,11.1,11.6,14.7
	c8.5,5.6,19.4,4.5,24.4-2.3c5.2-7.2,3.4-17.5-4.8-23.8c-7.1-5.5-14.8-10.2-22.1-15.4c-8-5.7-11.9-13.3-10.6-23.2
	c1.6-12.6,11.7-20.9,24.4-19.8c3.3,0.3,6.7,1,9.7,2.3c4.7,2,8.8,2.8,12.6-2.8c2.3,5.6,1.5,10.3,2.4,14.8c0.8,4.2,1.4,8.5,0.8,12.9
	c-3.9,0.9-3.3-2.3-4-4.2c-2.8-7.5-7.4-13.3-15.2-16.3c-7.2-2.7-14.5-0.8-17.8,4.6c-3.1,5.1-1.8,12,3.1,17.3c3.5,3.7,7.8,6.2,11.9,9
	c5.4,3.8,11.1,7.4,16.2,11.7c9.3,8,11.8,18.4,7.6,28.7c-3.8,9.3-13.7,15.4-24.8,15.5c-4.4,0-8.6-1.2-12.7-2.4
	C1238.7,116.6,1238.7,116.5,1232.2,119.9z"/>
<path class="st1" d="M1209.3,28.1c1.5,8.9,2.9,17.6,2.4,26.8c-4.2-0.3-3.6-3.7-4.5-5.8c-2.9-6.7-7.3-11.9-14.2-14.6
	c-7.2-2.9-14.4-1.2-18,4c-3.5,5.2-2.2,12.6,3.3,18.1c4,4.1,9,6.8,13.7,10c4.9,3.4,9.9,6.8,14.5,10.7c8.4,7.2,11.3,16.4,7.5,27
	c-3.8,10.6-12,15.5-22.8,16.8c-5.4,0.6-10.7-0.6-15.6-2.6c-4.7-1.9-8.8-2.7-12.8,3.4c-2.2-10.5-3.4-19.4-4-29.9
	c4.4,2.8,5,6.6,6.7,9.4c4,6.9,9.1,12.3,17.3,13.9c7.9,1.5,14.1-0.9,17.5-6.5c3.6-6.1,2.6-14.7-2.9-20.2c-2.6-2.6-5.6-4.7-8.6-6.8
	c-4.9-3.5-10-6.6-14.9-10.1c-12.2-8.8-15.6-20.4-9.5-32.1c5.5-10.7,16.4-14.3,30.2-10.2C1202.8,31.7,1202.8,31.7,1209.3,28.1z"/>
<path class="st1" d="M2075.6,48.8c-3-2.5-2.7-5.1-3.7-7.2c-1.6-3.6-4.2-5.8-8.2-6.4c-8.6-1.2-17.3-0.6-25.9-0.6
	c-3.4,0-4.5,2.2-4.5,5.3c0,8.3,0.1,16.6,0,24.9c0,3.6,1.8,4.6,5,4.4c2-0.1,4,0,6,0c15.5,0,15.5,0,23.2-12.9
	c1.4,5.8,0.7,10.6,0.8,15.3c0.1,4.9,0,9.9,0,14.6c-3.1,0.9-3.7-1-3.9-2.5c-1.3-6.9-5.8-9.2-12.3-8.9c-5.9,0.3-13.3-2.5-17.3,1.2
	c-4.2,3.8-1.1,11.3-1.5,17.2c-0.2,2.3,0,4.7,0,7c-0.1,7.7-1,15.7,9.6,18.3c-10.7,0-21.4,0-32.1,0c0-0.3-0.1-1.4,0-1.5
	c8.5-1.6,9.4-7.7,9.3-15c-0.2-18.3,0-36.6-0.1-54.9c0-11.5-0.1-11.5-11.4-18.1c4.7,0,7.5,0,10.3,0c17,0,33.9,0.2,50.9-0.1
	c5.1-0.1,7.5,1.5,7.1,6.7C2076.5,39.9,2078.2,44.2,2075.6,48.8z"/>
<path class="st1" d="M2584.5,29.3c0,9.1,0,18.3,0,28c-3.6-0.6-3.5-3.8-4.4-5.9c-4.7-11.1-12.4-18-24.9-18.1
	c-13-0.1-21.3,7-26.1,18.3c-5.6,13.3-6.2,27.3-1.8,41.1c6.7,21.3,28.2,28.9,47.4,17.2c3.6-2.2,6-6.1,10.4-7c1.7,2.7-0.1,3.9-1.4,5.3
	c-13,13.2-28.7,16.7-45.9,10.8c-17.2-6-25.4-19.6-27.7-37.1c-0.9-7.3-0.4-14.6,1.6-21.8c6.2-22.3,25.6-35.1,48.7-31.7
	c2.6,0.4,5.3,0.8,7.8,1.6c5.2,1.8,10.3,3.1,14.9-2.2C2583.5,28.3,2584,28.8,2584.5,29.3z"/>
<path class="st1" d="M1463.8,102.3c-12.9,22.8-46,23.9-62.7,8.8c-19.1-17.3-20-57,2.9-74.7c12.4-9.6,26.2-10.3,40.8-6.6
	c8.4,2.1,8.4,2.2,16-1.3c1.4,9.6,0.9,18.9,1.3,29c-4.6-1.6-4.5-5.1-5.6-7.5c-4.8-10.1-12.1-16.5-23.8-16.9
	c-12.1-0.4-20.4,5.6-25.5,15.9c-7.5,15.1-8,31-1.9,46.5c7.7,19.4,28.5,25.4,46.4,14.3C1455.2,107.6,1457.7,103.8,1463.8,102.3z"/>
<path class="st1" d="M1607.4,118.5c9.8-2.3,10.5-9.1,10.4-17.2c-0.3-19.7,0-39.3-0.1-59c0-7.2-0.2-7.2-7.1-7.2
	c-12.5-0.1-15.1,1.8-19.3,14.1c-0.3,0.9-1,1.6-2.2,3.5c-2.8-7.4-1-14.1-0.7-20.7c0.1-2.5,2.6-2.7,4.6-2.7c21,0,42,0,63,0
	c2.2,0,4.2,0.7,4.2,3.2c0,6.4,1.1,12.9-0.2,20.6c-3.8-3.3-3.5-7-4.8-9.8c-3-6.5-16.3-11-22.6-7.7c-2.7,1.4-2,4-2,6.2
	c-0.1,11.3,0,22.7,0,34c0,8.3,0.2,16.7,0,25c-0.2,8.1,0.3,15.5,10.6,17.8C1629.8,118.5,1618.6,118.5,1607.4,118.5z"/>
<path class="st1" d="M1471.1,29.7c11.2,0,22.5,0,33.7,0c0.6,1.5-0.4,2.2-1.2,2.2c-7.4,0.8-8.8,6-8.8,12.2c0,8-0.1,15.9-0.1,23.9
	c0,10.3,0,20.6,0,30.9c0.1,13.5,0.1,13.5,11.4,19.7c-12.4,0-23.7,0-35,0c0.1-0.5,0.1-1.5,0.4-1.6c10.2-4.1,10.2-4.1,10.3-15
	c0.1-17.9-0.2-35.9,0.1-53.8C1482,39.8,1481.5,32.3,1471.1,29.7z"/>
<path class="st1" d="M1701.3,31.2c-10.8,1.1-11.9,7.9-11.7,16.3c0.4,17.3,0.1,34.6,0.1,51.9c0,13.2,0,13.2,12,19.2
	c-12.5,0-23.8,0-35.2,0c0-0.5,0-1.6,0.2-1.6c9.1-1.3,10.3-7.6,10.3-15.3c-0.2-18.3,0-36.6-0.1-54.9c-0.1-11.1-0.5-11.5-10.6-17.6
	c5.7,0,11.4,0,17,0c5.6,0,11.2,0,16.9,0C1700.6,29.8,1701,30.5,1701.3,31.2z"/>
<path class="st1" d="M2467.8,29.7c12.4,0,23.7,0,34.9,0c0.5,2.2-1.2,2.3-2.3,2.5c-6.3,0.9-7.9,5.2-7.9,10.8c0,8.7-0.1,17.3-0.1,26
	c0,10.3,0.1,20.6,0,31c-0.1,8.1-0.7,16.4,10.5,18.6c-11.3,0-22.7,0-34,0c0-0.3-0.1-1.3,0.2-1.4c10.3-4.3,10.4-4.3,10.4-16
	c0-17.6,0-35.3,0-52.9C2479.5,35.6,2479.5,35.6,2467.8,29.7z"/>
<path class="st0" d="M913.8,48.6c-16.4-19.1-36.7-31.6-61.2-37.4c-21.9-5.2-44.1-6.5-66.5-6.5c-43,0-86,0-129,0c-1.3,0-2.7,0-4,0
	c-5.3,0.3-6.3,1.6-5.7,6.6c0.4,3.9,3,3.7,5.7,3.7c8.6,0.1,17.3-0.6,25.7,2.4c11,3.8,18.2,10.5,19.9,22.6c1.4,10.3,2.1,20.5,2.1,30.9
	c0,37,0,74,0,111c0,37.3,0.1,74.7,0,112c0,11.3,0,22.7-2.9,33.8c-3.7,14.3-19.7,22.8-33.6,18.3c-9.9-3.2-17.5-9.3-23.3-17.9
	c-7.1-10.6-12.5-22-17.4-33.7c-25.5-60.5-50.9-121-76.4-181.4c-14.3-34.1-28.7-68.1-43-102.2c-1.5-3.6-2.9-6.4-7.7-6.3
	c-4.3,0.1-5.7,2.6-6.9,5.9c-0.6,1.6-1.3,3.1-1.9,4.6c-37.2,86.6-74.4,173.2-111.7,259.8c-6.6,15.3-12.8,30.8-21.1,45.3
	c-3.1,5.5-6.6,10.8-10.8,15.6c-2.7,3.1-5.5,3.4-8.5,0.4c-3.1-3-5.7-6.5-8.1-10.2c-6.1-9.6-11.1-19.7-15.5-30.2
	c-29-68.8-57.8-137.6-86.8-206.3c-11-26.1-22-52.2-33-78.3c-2.5-6-5.7-7.8-10.3-6.3c-3.9,1.2-4.1,5-5.3,7.9
	c-34.3,79.5-68.3,159.2-102.6,238.7c-9.2,21.4-17.9,43.1-28.5,63.9c-8.7,17.1-19.7,31-40.4,33.2c-4.5,0.5-5.1,3.2-4.9,7
	c0.2,4.8,3.6,4,6.4,4c32.7,0,65.3,0,98,0c3.2,0,5.8-0.1,5.9-4.5c0.1-4.3-1.5-5.8-5.7-6.1c-6.6-0.4-13.2-1.6-19.6-3.7
	c-12.2-4.1-16.9-12.3-13.9-24.7c1.2-5.2,2.8-10.3,4.8-15.2c7.8-18.7,16.1-37.3,23.9-56.1c1.9-4.5,4.5-5.7,9.1-5.7
	c40.3,0.1,80.7,0.2,121,0c5.2,0,7.7,1.9,9.6,6.5c6.9,17,14.2,33.8,21.2,50.7c2.5,6.2,4.7,12.5,6,19c3.3,15.7-2,24.1-17.8,27.6
	c-4.2,0.9-8.5,1.4-12.8,1.9c-3.8,0.5-3.6,3.2-3.6,5.9c-0.1,2.9,1.1,4.4,4.1,4.4c2.3,0,4.7,0,7,0c56,0,112,0,168,0c1.7,0,3.3,0,5,0
	c3.2,0.1,5.9,0,6-4.5c0.1-4.2-1.4-5.8-5.7-6.1c-7.3-0.5-14.6-1.7-21.5-4.4c-10.2-4-14.4-11.5-12.3-22.1c0.8-4.2,1.8-8.5,3.4-12.5
	c8.6-20.6,17.5-41.1,26-61.7c1.8-4.3,4.8-4.7,8.7-4.7c40.3,0.1,80.7,0.1,121-0.1c5.2,0,7.7,1.8,9.6,6.4
	c6.7,16.7,13.9,33.2,20.8,49.8c3.3,8,6.3,16.2,7.3,24.9c1.2,10.5-3,17.2-12.8,21.1c-5.6,2.2-11.5,3.4-17.6,3.5
	c-4.2,0.1-4.8,2.5-4.9,5.9c0,3.5,1.7,4.7,5,4.6c2-0.1,4,0,6,0c80.7,0,161.3,0,242,0c1.7,0,3.3-0.1,5,0c3.3,0.2,5.7-0.3,5.8-4.7
	c0.1-4.4-1.5-5.8-5.8-5.7c-8.3,0.2-16.7,0.5-24.8-2c-11.4-3.6-19.1-10.4-21.1-22.8c-1.4-8.6-2.1-17.2-2.2-25.9
	c-0.1-32-0.1-64-0.1-96c0-1.3,0-2.7,0-4c0-2.9,1-4.4,4.2-3.7c2.9,0.6,5.9,1,8.9,1.5c19.8,3.4,39.6,5.8,59.7,4.7
	c21.5-1.2,42.2-5.5,61.1-16.6C939.6,154,944.7,84.6,913.8,48.6z M110.9,223.3c19.9-45.9,39.3-90.7,59.7-137.8
	c20.1,46.8,39,91.9,58.3,137.8C189.2,223.3,151,223.3,110.9,223.3z M423,223.4c20-46.2,39.4-91,59.8-138.1
	c19.9,47.1,38.9,92.1,58.3,138.1C501.3,223.4,463,223.4,423,223.4z M867.2,127.6c-7.4,33.5-35.6,55.9-69.8,55.6
	c-12.7-0.1-25.1-2.7-37.7-4.2c-5.1-0.6-5.4-3.8-5.4-7.7c0.1-22.3,0-44.6,0-66.9c0-21.6,0-43.3,0-64.9c0-7.9,0.1-8.1,7.9-9.6
	c19.2-3.8,38.3-5,57.3,1.4c17.9,6,31.4,17.3,39.7,34.3C868.9,85.2,871.9,105.9,867.2,127.6z"/>
<path class="st0" d="M2598.1,323.6c-17.1-20-34.2-40-51.2-60c-1.8-2.2-4.6-3.9-4.7-7.3c2.9-2,6.4-1.8,9.5-2.5c8.5-2,16.6-5,24-9.6
	c8.9-5.6,14.5-13.4,16.6-23.9c4.2-21-4.7-38.4-24.5-47.2c-13.3-5.9-27.5-7.8-41.9-7.9c-25.6-0.2-51.3-0.1-76.9-0.1
	c-1.3,0-3.3-0.9-3.9,1.5c1.4,2,3.5,1.7,5.4,2.1c13.9,3.1,16.9,6.7,17.5,21.1c0.1,2,0.1,4,0.1,6c0,38,0,75.9,0,113.9
	c0,4.3,0,8.7-0.5,13c-1,9.3-4.2,12.6-13.2,15.2c-3.1,0.9-6.9,0-9.6,3.1c11.6,2.4,69.1,1.7,75.3-1c-4-0.8-7.6-1.5-11.1-2.3
	c-9.3-2.3-12.1-5.4-13.4-14.9c-0.5-3.6-0.6-7.3-0.6-11c-0.1-14.3-0.1-28.6,0-43c0-3.2-1.6-7.7,1.9-9.1c3.5-1.4,7.9-0.9,11.8-0.4
	c2.6,0.4,3.9,3.4,5.7,5.4c20.4,23.7,40.9,47.4,61.1,71.3c3.8,4.4,7.6,6.6,13.6,6.4c9.6-0.4,19.3-0.1,29-0.1c2.2,0,4.8,1,6.9-2.9
	C2613,338.8,2605.1,331.9,2598.1,323.6z M2499.2,251.4c-3.7,0.2-4.4-2-4.3-5c0.1-10.7,0-21.3,0-32c0-10-0.2-20,0-30
	c0.2-8.4,2.3-10.6,10.7-11.1c11.3-0.6,22.6-0.4,33.6,3.1c15.6,5.1,24.1,15.7,24.7,31.4c0.8,18.5-6.1,30.6-21.5,36.8
	C2528.6,250.3,2513.9,250.8,2499.2,251.4z"/>
<path class="st0" d="M1573.6,259.5c-7.9-4.3-16.4-6.9-27.3-10.4c8.6-3.1,15.1-4.4,21.1-7.4c10.2-5.2,16.6-13.2,18.2-24.7
	c3-22.4-6.2-37.5-27.3-45.1c-13.3-4.8-27.2-6.5-41.3-6.6c-26-0.2-52-0.1-78-0.1c-1.3,0-3.2-0.7-4.3,1.9c1.8,0.4,3.2,1,4.8,1.1
	c16.6,1.9,21,6.1,21.4,24.9c0,0.7,0,1.3,0,2c0,39.3,0,78.7-0.1,118c0,4-0.5,8-1,11.9c-1,7.1-5.2,11.3-12.3,12.6
	c-4.3,0.8-8.5,1.6-12.8,2.5c0.7,1.9,1.7,2.2,2.6,2.2c33.7-0.3,67.3,0.9,101-0.7c12.1-0.6,23.8-3.1,34.6-8.9
	c15.3-8.2,22.4-21.1,22.8-38.2C1596.1,277.8,1587.7,267,1573.6,259.5z M1487.8,182.4c0.2-7.1,1.9-9,8.8-9.3
	c12.3-0.6,24.6-0.4,36.6,3.1c19.4,5.5,29.7,22.7,25.7,42.4c-2.7,13.1-11.1,20.8-23.6,24.4c-14.3,4.1-29.1,2.3-43.7,2.8
	c-3.9,0.1-3.9-2.6-3.9-5.4c0-9.6,0-19.3,0-28.9c0,0,0,0,0,0C1487.8,201.7,1487.6,192,1487.8,182.4z M1559.2,318.3
	c-3.1,4.5-7.3,7.6-12.3,9.8c-15.7,7-32.1,8.1-48.9,5.9c-8-1.1-10.1-3.8-10.2-12c-0.2-10.3,0-20.6,0-30.9c0-10.6,0.1-21.3,0-31.9
	c0-3.7,1.2-5.4,5.2-5.4c16-0.1,31.9,0.4,47.3,5.7C1564.2,267.7,1573.8,297.4,1559.2,318.3z"/>
<path class="st0" d="M1193.1,178.3c-4.8-3.1-9.8-5.6-15.2-7.5c-11.8-4-24-5.5-36.4-5.6c-23.3-0.1-46.6-0.1-70-0.1
	c-2.1,0-4.4-0.6-6.3,0.8c1.1,3,3.4,2.4,5.2,2.8c13.9,3.2,16.9,6.7,17.7,21c0.1,2,0.1,4,0.1,6c0,38,0,75.9,0,113.9c0,5-0.2,10-1,14.9
	c-1,6.8-4.7,11.6-11.9,13c-3.5,0.7-6.9,1.6-11.1,2.6c7.3,2.9,68.3,3,76.2,0.5c-1.7-2.2-4.2-1.3-6.2-1.7c-15.9-2.6-19.3-6-19.6-22.1
	c-0.4-15.6,0-31.3-0.2-47c-0.1-4.7,1.4-6.6,6.3-6.4c8.6,0.3,17.3,0.4,26,0.1c15.5-0.5,30.1-4.3,44-11.5
	C1215.6,238.9,1221.6,196.5,1193.1,178.3z M1159.1,251.6c-13.1,5.1-26.8,4.5-40.5,3.6c-4.4-0.3-4.2-3.5-4.2-6.5c0-11,0-22,0-33
	c0,0,0,0,0,0c0-10.7-0.2-21.3,0.1-32c0.2-8.7,2-10.4,10.8-10.8c11.1-0.5,22,0.6,32.5,4.3c16.1,5.7,24.9,17.7,25.4,34.6
	C1183.7,231.6,1175.6,245.1,1159.1,251.6z"/>
<path class="st1" d="M2427.5,76.3c4-1.4,6.9-2.2,9.6-3.5c8.3-3.8,12.9-10,12.8-19.5c-0.1-11.6-5.5-19.2-17.5-22.2
	c-15.9-3.9-31.9-1.1-47.9-1.5c8.9,6.5,9,6.5,9,18c0,10,0,20,0,29.9c0,9-0.1,18,0,26.9c0,5.8-1.1,10.7-8,11.8
	c-0.9,0.2-1.4,1.3-0.8,2.6c10.4,0,20.9,0,31.4,0c-3.7-3.7-9.5-4.3-9.5-10.8c0-9-0.4-18-0.2-26.9c0.1-3.8,3.4-4.9,6.3-2.4
	c1.7,1.5,3,3.5,4.4,5.4c7.5,9.8,14.9,19.6,22.4,29.4c1.6,2.1,2.7,5.1,5.6,5.4c6,0.5,12.1,0.8,18.6-0.3
	C2447.6,107,2439.6,90.3,2427.5,76.3z M2406.3,58.1c0-1.3,0-2.7,0-4c0,0,0,0,0.1,0c0-4.6,0-9.3,0-13.9c0-2.5,1-4.4,3.6-5.3
	c13.7-4.6,27,5.6,26,19.9c-0.6,7.8-4.6,12.9-12,15.4C2408.8,75.5,2406.3,73.9,2406.3,58.1z"/>
<path class="st1" d="M1375.4,51.9c-7-15.9-21.4-25-38.8-24.5c-16.6,0.5-30.7,10.4-36.6,26.3c-5.1,13.6-5.1,27.4,0,41
	c6.1,16.2,20.7,26.3,37.5,26.5c17,0.1,31.5-9.5,38.2-25.5c2.9-6.8,4.2-14,3.9-21.6C1380,66.5,1378.5,59,1375.4,51.9z M1363.4,92.2
	c-1.3,6.7-4.2,12.5-9.3,17.2c-9.5,8.8-23,8.7-32.3-0.2c-5-4.8-7.8-10.8-9.2-17.4c-2.4-11.5-2.3-23.2-0.1-34.7
	c0.6-3.2,1.8-6.4,3.3-9.4c4.6-9.3,11.7-15.5,22.5-15.4c10.8,0.1,17.9,6.4,22.4,15.7c4,8.3,4.3,17.3,4.7,26.3
	C1365.6,80.5,1364.5,86.4,1363.4,92.2z"/>
<path class="st1" d="M2001.3,56.9c-5.2-17.3-19.8-28.8-37.4-29.4c-18.4-0.7-33.9,9.4-40.1,26.9c-4.9,13.6-4.8,27.5,0.5,41
	c6.6,16.9,22.3,26.8,39.9,25.9c17.3-0.9,32.2-12.7,37.2-29.8c1.6-5.4,2.6-11,2.3-16.8C2004.1,68.5,2003.1,62.7,2001.3,56.9z
	 M1985.2,99.4c-4.4,9.8-11.5,16.3-22.8,16.5c-10.2,0.2-19.5-6.2-23.4-17.1c-5.8-16.2-5.8-32.7-0.1-48.9
	c3.8-10.9,13.1-17.5,23.1-17.6c9.9-0.1,19.1,6.6,23.4,17.2c1.1,2.8,1.9,5.7,2.5,8.6c1.2,5.2,1.5,10.5,1.4,15.9
	C1989.5,82.8,1988.8,91.4,1985.2,99.4z"/>
<path class="st1" d="M1788.3,56.4c-5.8-18.4-20.9-29.2-39.7-28.9c-18.5,0.3-33.4,11.9-38.7,30.2c-1.6,5.5-2.5,11-2.4,16.7
	c0.3,3.3,0.3,6.7,0.9,9.9c0.7,3.6,1.7,7.1,3,10.5c6.3,16.2,20.7,26.2,37.6,26.3c17.3,0.1,32.4-10.2,38.5-26.6
	C1792.2,82,1792.3,69.1,1788.3,56.4z M1773.7,95.9c-1.1,3.1-2.4,6.3-4.2,9c-11,16-33,14.9-41.5-2.7c-8.8-18.3-8.4-37.5,0-55.9
	c3.9-8.6,11.4-13.9,21.4-13.8c10.4,0.1,17.5,5.8,22.1,14.6c4.4,8.5,5,17.8,5,27.2C1776.5,81.6,1776.1,88.9,1773.7,95.9z"/>
<path class="st1" d="M1587.2,104.5c-9.2-22.5-18.4-45-27.8-67.4c-1.3-3.1-1.8-7-5.2-9.1c-3.4,2.5-3.7,6-4.9,9
	c-7,17.3-13.6,34.7-20.8,51.9c-4.3,10.4-6.5,22-17.5,29.6c8.8,0,16.1,0,25.4,0c-5.1-3.3-10.6-4-8.8-9.9c1.8-6,2.6-12.9,6.9-17.4
	c3.5-3.7,9.5-0.9,14.4-1.5c0.7-0.1,1.3,0,2,0c18.6,0,18.9,0.2,23.2,18c0.2,0.6,0.4,1.3,0.6,1.9c0.6,3-0.2,5.2-3.4,6.2
	c-1.4,0.4-3.4,0.2-3.6,3.2c1.9,0.1,3.7,0.3,5.6,0.3c7.9,0,15.7,0,23.6,0c0.3-0.7,0.6-1.5,0.9-2.2
	C1591.4,115.1,1589.3,109.8,1587.2,104.5z M1560.2,84.5c-7.3,0-14.5,0-21.8,0c0.1-7,6.5-24.8,13-35.9c4.2,10.7,8.2,20.8,12.2,30.9
	C1564.9,82.7,1563.9,84.5,1560.2,84.5z"/>
<path class="st1" d="M2667.8,102.2c-9.2-22.5-18.5-45-27.8-67.4c-1-2.3-1.1-5.3-4.6-6.7c-2.6,2.1-3.3,5.4-4.5,8.4
	c-8.3,20.7-16.5,41.5-24.8,62.2c-2.9,7.3-5.3,14.8-12.9,19.5c7.9,1,15.3,1.6,24.3,0.2c-4.4-3.2-9.7-3.6-8.2-9.2
	c1.8-6.7,3-13.6,7.7-19.1c0.5-0.6,1.9-0.4,2.9-0.4c8.3,0,16.7,0,25-0.1c2.6,0,4.5,0.8,5.4,3.4c1.9,5.3,4,10.6,5.7,16
	c1,3.2,0.2,5.9-3.7,6.8c-1.4,0.3-3.4,0.5-2.7,3.2c9.6,0,19.2,0,28.8,0C2672.5,114.5,2670.3,108.3,2667.8,102.2z M2638.5,84.5
	c-6.3,0.1-12.6,0-20.5,0c4.8-12.4,9.1-23.7,13.4-34.9c0.7-0.1,1.3-0.2,2-0.3c4.3,11.1,8.7,22.1,13.1,33.5
	C2643.2,85.1,2640.8,84.4,2638.5,84.5z"/>
<path class="st1" d="M1139,101.5c-9.2-22.5-18.4-44.9-27.7-67.4c-0.9-2.2-0.9-5.5-4.7-5.8c-2.2,2.1-2.9,5.1-4,7.9
	c-6.8,17-13.3,34.1-20.3,51c-4.6,11-6.8,23.3-18.9,31.9c9.4-0.2,16.8,1.1,24.4-1c-2.1-2.9-5.6-2.3-6.7-5.3c-1.1-3,4-20.5,6.9-22.3
	c1-0.6,2.5-0.8,3.8-0.8c8.3-0.1,16.6,0,25,0c2.1,0,4.1,0.5,4.9,2.6c2.1,5.6,4.3,11.2,6,16.9c1,3.2,0.1,5.9-3.9,6.7
	c-1.3,0.3-3.5,0.5-2.7,2.7c9.9,0,19.6,0,29.4,0C1143.8,114.4,1141.6,107.9,1139,101.5z M1090.1,83.8c4-12.1,8.5-23.2,14.2-36.3
	c5.1,13.1,9.5,24.3,14.4,36.8C1108.1,84.3,1099.5,85.1,1090.1,83.8z"/>
<path class="st1" d="M2159.9,118.6c10.2,0,19.8,0,29.3,0c-6.6-4.7-8.7-11.7-11.4-18.3c-8.6-20.9-17.1-41.8-25.8-62.7
	c-1.4-3.3-1.9-7.1-5.5-9.7c-3.4,2.8-3.7,6.3-4.9,9.3c-7.3,18.2-14.5,36.4-21.8,54.6c-3.9,9.5-6.2,20-16.7,26.7c9,0,16.3,0,26,0
	c-4-2.2-6.4-2.8-7.7-4.3c-3.7-4.1-0.9-8.4,0.8-12.1c2.1-4.4,0.8-11.3,7.9-12.5c1.6-0.3,3.3-0.1,5-0.1c4.7,0,9.3,0,14,0
	c11,0,11,0,14.8,10.2c0.5,1.2,1,2.5,1.4,3.7C2168.6,112.9,2168.6,112.9,2159.9,118.6z M2130.9,84.4c0.1-7.1,6.5-24.6,13.1-35.7
	c4.6,11.7,8.9,22.7,13.8,35C2148.4,85.1,2139.6,84.2,2130.9,84.4z"/>
</svg>
