<?xml version="1.0" encoding="utf-8"?>
<!-- Generator: Adobe Illustrator 22.1.0, SVG Export Plug-In . SVG Version: 6.00 Build 0)  -->
<svg version="1.1" id="Isolation_Mode" xmlns="http://www.w3.org/2000/svg" xmlns:xlink="http://www.w3.org/1999/xlink" x="0px"
	 y="0px" viewBox="0 0 1503.5 315.7" style="enable-background:new 0 0 1503.5 315.7;" xml:space="preserve">
<style type="text/css">
	.st0{fill:#6E7585;}
</style>
<g>
	<path id="QuinStreet_2_" class="st0" d="M185.3,145.7c0-27.6-8.7-50.5-26.1-68.7s-40-27.4-67.7-27.4c-27.1,0-49.1,9.1-66,27.4
		S0,118.2,0,145.7v40.7c0,27.7,8.5,50.6,25.4,68.8s39,27.3,66.2,27.3c6.5,0,12.9-0.5,19.3-1.6c6.1-1,12-2.7,17.7-5.1l41.7,39.8
		l25.2-22.5l-37.7-36.5c8.8-8.9,15.7-19.4,20.2-31.1c4.8-12.4,7.3-25.7,7.2-39L185.3,145.7L185.3,145.7z M147.6,186.5
		c0,19.2-5,34.8-15,46.9s-23.7,18.2-41,18.2c-16.7,0-29.9-6.1-39.5-18.3c-9.6-12.2-14.5-27.8-14.5-46.9v-41
		c0-18.9,4.8-34.4,14.5-46.5s22.8-18.2,39.4-18.2c17.2,0,30.9,6.1,41,18.2s15.2,27.6,15.2,46.5V186.5z M331.4,279.3h33V111.1h-37.8
		v121.6c-3.4,6.1-8.4,11-14.5,14.2c-6.2,3.3-13.8,4.9-22.9,4.9c-9.6,0-16.9-3-21.6-8.9c-4.8-5.9-7.2-16.2-7.2-30.9V111.1h-37.6
		v100.6c0,24.3,5.1,42.1,15.2,53.6c10.2,11.5,24.3,17.3,42.3,17.3c10.6,0,19.9-2.4,28-7.2c8.3-5.1,15.2-12.1,20.1-20.6L331.4,279.3z
		 M442.2,111.1h-37.8v168.2h37.8V111.1z M442.2,36.8h-37.8v33.1h37.8V36.8L442.2,36.8z M483.9,111.1v168.2h37.8v-122
		c3.6-5.6,8.5-10.2,14.3-13.4c6-3.3,12.9-5,19.8-4.9c10.7,0,18.6,2.7,23.9,8c5.2,5.3,7.9,14.3,7.9,27v105.4h37.8V173.6
		c0-22.5-4.9-39-14.7-49.7s-23.5-15.9-41-15.9c-9.9-0.2-19.6,2.3-28.2,7.2c-8.5,4.9-15.6,11.8-20.8,20.1l-2.2-24.3L483.9,111.1
		L483.9,111.1z M778.5,243.8c-7.8,5.6-18.7,8.4-32.7,8.4c-15.2,0-27.6-3.4-37.2-10.2c-9.5-6.8-14.3-17.1-14.3-30.9H658l-0.3,0.9
		c-0.5,21.8,8.1,38.9,26,51.5c17.8,12.6,38.6,18.9,62.2,18.9c24.6,0,44.4-5.6,59.5-16.7c15.1-11.1,22.6-26.1,22.6-45
		c0-17.8-6.3-32.5-19-44c-12.7-11.5-31.2-20.5-55.5-27c-18.6-5.1-31.9-10.4-39.9-16.1c-8-5.7-12.1-12.8-12.1-21.4
		c-0.2-9.1,3.9-17.7,11.1-23.3c7.4-6,18-9,31.8-9c14.6,0,25.9,3.6,33.8,10.8C786.1,98,790,107.4,790,119h36.2l0.3-0.9
		c0.5-18.8-6.8-34.8-21.9-48.3s-35.1-20.1-60-20.1c-23.9,0-43.3,5.9-58.4,17.7c-15.1,11.8-22.6,26.8-22.6,45.1
		c0,17.7,6.8,32.1,20.5,43c13.6,10.9,33.1,19.7,58.4,26.4c17.7,4.7,30.1,10.1,37.1,16.1c6.9,5.7,10.7,14.2,10.5,23.1
		C790.4,230.1,786.1,238.7,778.5,243.8z M871,70.2v40.9h-25.7v28H871v93c0,17.4,3.9,30.2,11.8,38.3c7.9,8.1,18.8,12.2,32.7,12.2
		c4.7,0,9.3-0.5,13.8-1.5c4-0.8,7.9-2.2,11.5-4.1l-4.1-27.7c-1.8,0.6-3.7,1.1-5.6,1.5c-2,0.4-4,0.5-6.1,0.5c-5,0-9-1.5-12-4.4
		c-3-3-4.5-7.9-4.5-14.8v-93h30.2v-28h-30.2V70.2L871,70.2L871,70.2z M1059.8,109.8c-1.8-0.5-3.6-1-5.5-1.3
		c-2.1-0.4-4.2-0.6-6.4-0.5c-8.3-0.1-16.4,2.4-23.1,7.3c-6.7,4.9-12.2,11.6-16.4,20.2l-2.5-24.4h-34.5v168.2h37.8V162.4
		c2.5-5.4,6.4-10,11.4-13.2c4.9-3.1,11.1-4.7,18.4-4.7l16.2,0.6L1059.8,109.8z M1189.8,276.8c10.5-3.9,18.9-8.6,25.2-14.2
		l-12.1-24.8c-6.5,4.5-13.5,8.1-21,10.7c-7.3,2.5-16,3.7-26.1,3.7c-12.8,0-22.7-4.2-29.9-12.7c-7.2-8.5-11.1-19.4-11.7-32.7l0.3-0.8
		h105v-22.2c0-23.1-6-41.5-18.1-55.3c-12.1-13.7-29.5-20.6-52.2-20.6c-21.2-0.1-38.8,7.9-52.8,24c-14.1,16.1-21.1,36.4-21.1,60.9
		v6.2c0,24.5,7.1,44.5,21.2,60.1c14.2,15.6,33.2,23.4,57,23.4C1167.2,282.6,1179.3,280.6,1189.8,276.8L1189.8,276.8z M1173.7,148.4
		c5.4,6.7,8.2,15.4,8.2,26.1v3.9h-66.7l-0.3-0.8c1.4-11.4,5.2-20.8,11.2-28.2c6-7.4,13.7-11.1,23-11.1
		C1160,138.3,1168.2,141.7,1173.7,148.4L1173.7,148.4z M1361.3,276.8c10.5-3.9,18.9-8.6,25.2-14.2l-12.1-24.8
		c-6.5,4.5-13.5,8.1-21,10.7c-7.3,2.5-16,3.7-26.1,3.7c-12.8,0-22.7-4.2-29.9-12.7c-7.2-8.5-11.1-19.4-11.7-32.7l0.3-0.8h105v-22.2
		c0-23.1-6-41.5-18.1-55.3c-12.1-13.7-29.5-20.6-52.2-20.6c-21.2-0.1-38.8,7.9-52.8,24c-14.1,16.1-21.1,36.4-21.1,60.9v6.2
		c0,24.5,7.1,44.5,21.2,60.1c14.2,15.6,33.2,23.4,57,23.4C1338.7,282.6,1350.9,280.6,1361.3,276.8L1361.3,276.8z M1345.2,148.4
		c5.5,6.7,8.2,15.4,8.2,26.1v3.9h-66.7l-0.3-0.8c1.5-11.4,5.2-20.8,11.2-28.2c6-7.4,13.7-11.1,23-11.1
		C1331.6,138.3,1339.8,141.7,1345.2,148.4L1345.2,148.4z M1433.6,70.2v40.9H1408v28h25.7v93c0,17.4,3.9,30.2,11.8,38.3
		s18.8,12.2,32.7,12.2c4.7,0,9.3-0.5,13.8-1.5c4-0.8,7.9-2.2,11.5-4.1l-4-27.7c-1.8,0.6-3.7,1.1-5.6,1.5c-2,0.4-4,0.5-6.1,0.5
		c-5,0-9-1.5-12-4.4c-3-3-4.5-7.9-4.5-14.8v-93h30.2v-28h-30.2V70.2L1433.6,70.2L1433.6,70.2z"/>
	<path id="Ellipse_1_copy_3_2_" class="st0" d="M422.4,0C447,0,467,20,467,44.7c0,24.7-20,44.7-44.7,44.6c-24.7,0-44.6-20-44.6-44.7
		C377.7,20,397.7,0,422.4,0z"/>
</g>
</svg>
