<?xml version="1.0" encoding="utf-8"?>
<!-- Generator: Adobe Illustrator 22.1.0, SVG Export Plug-In . SVG Version: 6.00 Build 0)  -->
<svg version="1.1" id="Layer_1" xmlns="http://www.w3.org/2000/svg" xmlns:xlink="http://www.w3.org/1999/xlink" x="0px" y="0px"
	 viewBox="0 0 137.7 35.2" style="enable-background:new 0 0 137.7 35.2;" xml:space="preserve">
<style type="text/css">
	.st0{fill:#6E7485;}
</style>
<path class="st0" d="M12,15.1c-1.8-0.3-3.7-0.8-5.4-1.4c-0.5-0.2-0.8-0.7-0.8-1.3c0-0.5,0.3-1,0.7-1.2c0.7-0.4,1.6-0.6,2.4-0.5
	c1.1-0.1,2.2,0.3,2.9,1.1c0.3,0.5,0.5,1,0.6,1.6h5.2c-0.2-2.4-1.1-4.1-2.7-5.1C13.1,7.1,11,6.6,8.9,6.7c-2.2-0.1-4.4,0.6-6.1,2
	c-1.4,1.2-2.2,2.9-2.2,4.7C0.5,14.7,1,16,2,16.9C3.4,18,5,18.7,6.8,19c1.9,0.4,3.7,0.9,5.4,1.6c0.7,0.4,0.9,1.4,0.5,2.1
	c-0.2,0.3-0.4,0.5-0.7,0.6c-0.8,0.3-1.6,0.5-2.4,0.5c-1.7,0-2.9-0.3-3.6-1c-0.4-0.6-0.7-1.3-0.7-2H0c0,1.9,0.8,3.8,2.2,5
	c1.5,1.3,3.8,2,6.9,2c3.1,0,5.3-0.6,6.8-1.9c1.4-1.2,2.3-3,2.2-4.8c0-1.4-0.5-2.8-1.5-3.7C15.3,16.2,13.7,15.5,12,15.1"/>
<path class="st0" d="M27,1.9h-5.1v5.5h-2.8v3.7h2.8v12.2c-0.1,1,0.2,2,0.9,2.8c0.9,0.9,2.6,1.4,5,1.3l2.5-0.1v-3.9
	c-0.2,0-0.3,0-0.5,0s-0.3,0-0.5,0c-0.6,0.1-1.3,0-1.9-0.3c-0.3-0.5-0.4-1-0.3-1.5V11.1h3.2V7.4H27L27,1.9L27,1.9z"/>
<path class="st0" d="M45.3,21.8c-0.8,1.1-2.1,1.7-3.5,1.6c-1.4,0.1-2.7-0.5-3.5-1.6c-0.9-1.4-1.3-3-1.2-4.6
	c-0.1-1.6,0.3-3.2,1.2-4.6c0.8-1.1,2.1-1.7,3.5-1.6c1.4-0.1,2.7,0.5,3.5,1.6c0.9,1.4,1.3,3,1.2,4.6C46.6,18.8,46.2,20.4,45.3,21.8
	 M41.8,6.6c-3.4,0-6,1.1-7.6,3.2c-1.7,2.1-2.6,4.8-2.5,7.5c-0.1,2.7,0.8,5.4,2.5,7.5c1.7,2.1,4.2,3.1,7.6,3.1s6-1,7.6-3.1
	c1.7-2.1,2.6-4.8,2.5-7.5c0.1-2.7-0.8-5.3-2.5-7.5C47.8,7.6,45.2,6.6,41.8,6.6"/>
<path class="st0" d="M88.1,8.6v2.5h2.9v16h5.2v-16h3.4V7.5h-3.4V5.8c0-0.4,0.1-0.8,0.4-1.1C97,4.3,97.5,4.2,98,4.3
	c0.7,0,1.2,0,1.5,0.1V0.1C99,0.1,98.7,0,98.4,0s-0.6,0-0.9,0c-2.9,0-4.7,0.6-5.5,1.8C91.3,2.6,91,4.1,91,6.2v1.3h-2.8"/>
<path class="st0" d="M113.8,18.1c0,1.1-0.1,2.1-0.5,3.1c-0.6,1.4-2.1,2.3-3.6,2.1c-1.2,0.1-2.3-0.5-2.8-1.5
	c-0.3-0.8-0.4-1.7-0.4-2.6v-12h-5.3v12c-0.1,1.8,0.2,3.5,0.9,5.2c1,2.1,3,3.2,5.9,3.2c0.9,0,1.8-0.1,2.7-0.4
	c0.9-0.3,1.7-0.8,2.4-1.5c0.3-0.2,0.5-0.5,0.7-0.8c0.2-0.3,0.3-0.5,0.4-0.5v2.8h5.1V7.3h-5.3L113.8,18.1L113.8,18.1z"/>
<polygon class="st0" points="122,0.3 127.2,0.3 127.2,27.1 122,27.1 122,0.3 "/>
<path class="st0" d="M66.2,6.8c-0.2,0-0.4,0-0.4,0c-0.1,0-0.2,0-0.2,0c-1.4-0.1-2.7,0.4-3.8,1.2c-0.8,0.8-1.5,1.7-2.1,2.7V7.3h-5
	v19.9h5.2v-9.5c-0.1-1.2,0.1-2.4,0.6-3.5c0.7-1.4,2.1-2,4.2-2c0.2,0,0.4,0,0.6,0s0.5,0,0.9,0.1L66.2,6.8L66.2,6.8z"/>
<path class="st0" d="M74.4,28c0,0.4-0.1,0.8-0.3,1.2c-0.2,0.5-0.4,1-0.8,1.3c-0.3,0.2-0.7,0.4-1.2,0.4C71.5,31,71,31,70.6,31l-0.7,0
	v4.2c0.6,0,1,0.1,1.3,0.1s0.7,0,1.1,0c2.3,0,3.8-0.5,4.6-1.4s1.8-3.2,3.1-7l6.4-18.2l0.4-1.1l-5.5,0l-4.1,14.5L72.9,7.3h-5.5
	C67.3,7.3,74.4,28,74.4,28z"/>
<path class="st0" d="M133.7,20.1c2.2,0,3.9,1.8,3.9,3.9s-1.8,3.9-3.9,3.9s-3.9-1.8-3.9-3.9c0,0,0,0,0,0
	C129.8,21.9,131.6,20.1,133.7,20.1z"/>
</svg>
