<?xml version="1.0" encoding="utf-8"?>
<!-- Generator: Adobe Illustrator 22.1.0, SVG Export Plug-In . SVG Version: 6.00 Build 0)  -->
<svg version="1.1" id="Isolation_Mode" xmlns="http://www.w3.org/2000/svg" xmlns:xlink="http://www.w3.org/1999/xlink" x="0px"
	 y="0px" viewBox="0 0 187.1 23.7" style="enable-background:new 0 0 187.1 23.7;" xml:space="preserve">
<style type="text/css">
	.st0{fill-rule:evenodd;clip-rule:evenodd;fill:#6E7585;}
</style>
<g>
	<polygon class="st0" points="134.8,0.3 131,0.3 131,23.7 149,23.7 151.4,19.9 134.8,19.9 134.8,0.3 134.8,0.3 	"/>
	<path class="st0" d="M82.3,1.4l-14,22.3h4.6l4.2-6.7h9.1l2.4-3.8h-9.1l4.9-7.7L96,23.7h4.6L86.5,1.4l0,0
		C85.6-0.1,83.3-0.1,82.3,1.4L82.3,1.4L82.3,1.4L82.3,1.4z"/>
	<path class="st0" d="M109.5,4.1h16.1l2.4-3.8l-18.6,0l0,0c-6.5,0-10.7,5.2-10.7,11.7c0,6.5,4.3,11.7,10.7,11.7l0,0l15.7,0l2.5-3.8
		h-18.1l0,0c-4.4,0-6.9-3.5-6.9-7.9C102.6,7.6,105.2,4.1,109.5,4.1L109.5,4.1L109.5,4.1L109.5,4.1z"/>
	<path class="st0" d="M27.3,0.3H10.7l0,0C4.3,0.3,0,5.5,0,12c0,6.5,4.3,11.7,10.7,11.7l0,0h16.6l0,0c6.5,0,10.7-5.2,10.7-11.7
		C38.1,5.5,33.8,0.3,27.3,0.3L27.3,0.3L27.3,0.3L27.3,0.3z M27.3,19.9H10.7l0,0c-4.4,0-6.9-3.5-6.9-7.9c0-4.4,2.6-7.9,6.9-7.9l0,0
		h16.6l0,0c4.4,0,6.9,3.5,6.9,7.9C34.2,16.4,31.7,19.9,27.3,19.9L27.3,19.9L27.3,19.9L27.3,19.9z"/>
	<path class="st0" d="M162.4,4.1h16.1l2.4-3.8l-18.6,0l0,0c-6.5,0-10.7,5.2-10.7,11.7c0,6.5,4.3,11.7,10.7,11.7l0,0l15.7,0l2.5-3.8
		h-18.1l0,0c-3.7,0-6.1-2.6-6.7-6l0,0h20.3l2.4-3.8h-22.7l0,0C156.3,6.6,158.7,4.1,162.4,4.1L162.4,4.1L162.4,4.1L162.4,4.1z"/>
	<path class="st0" d="M59.9,14.2c3.8,0,7-3.1,7-7c0-3.8-3.1-7-7-7l0,0l-19.5,0v23.4h4.3V4.1h15.2l0,0c1.7,0,3.1,1.4,3.1,3.1
		c0,1.7-1.4,3.1-3.1,3.1l0,0H47.7l13.8,13.3H67l-9.9-9.5L59.9,14.2L59.9,14.2L59.9,14.2z"/>
	<path class="st0" d="M185,0c-1.2,0-2.1,0.9-2.1,2.1c0,1.2,1,2.1,2.1,2.1c1.1,0,2.1-0.9,2.1-2.1C187.1,0.9,186.1,0,185,0L185,0
		L185,0L185,0z M185,3.8c-1,0-1.7-0.7-1.7-1.7c0-1,0.7-1.7,1.7-1.7c0.9,0,1.7,0.7,1.7,1.7C186.7,3.1,185.9,3.8,185,3.8L185,3.8
		L185,3.8L185,3.8z"/>
	<path class="st0" d="M185.3,2.2c0.4,0,0.6-0.2,0.6-0.7c0-0.5-0.3-0.7-0.9-0.7l0,0h-0.9v2.4h0.4v-1h0.4l0.6,1h0.4L185.3,2.2
		L185.3,2.2L185.3,2.2z M184.5,1.9V1.2h0.5l0,0c0.3,0,0.5,0.1,0.5,0.4c0,0.4-0.3,0.4-0.6,0.4l0,0H184.5L184.5,1.9L184.5,1.9z"/>
</g>
</svg>
