<?xml version="1.0" encoding="utf-8"?>
<!-- Generator: Adobe Illustrator 22.1.0, SVG Export Plug-In . SVG Version: 6.00 Build 0)  -->
<svg version="1.1" id="svg3959" xmlns="http://www.w3.org/2000/svg" xmlns:xlink="http://www.w3.org/1999/xlink" x="0px" y="0px"
	 viewBox="0 0 1003.8 337.4" style="enable-background:new 0 0 1003.8 337.4;" xml:space="preserve">
<style type="text/css">
	.st0{fill:#6E7485;}
</style>
<path id="path2982" class="st0" d="M500,188.3h65.5c0-27.8-15.2-38.5-31-38.5C513.5,149.8,502.3,168.5,500,188.3 M537.1,278
	c-40.5,0-65.2-34.5-65.2-68.7c0-31.3,22.1-69.8,66.1-69.8c24.4,0,54,16.9,54,59.5h-93.1v8.1c0,29,15.5,54.3,46,54.3
	c20.1,0,40.6-16.4,46-29.8C590,255,567.8,278,537.1,278"/>
<path id="path2986" class="st0" d="M792.8,261.8c-13.5,0-21.9-8.6-21.9-23.9c0-14.6,10.4-21.5,23.8-26.7
	c13.5-4.3,21.6-6.3,30.8-10.9v46.5C817.5,255.2,806.9,261.8,792.8,261.8 M849.5,260.6v-4.5h0v-0.9v-77c0-33.9-28.5-38.8-45.1-38.8
	c-23.3,0-34.8,7.5-45.4,14.4l0.6,35.6c6.9-20.7,16.9-39.1,41.3-39.1c18.1,0,24.7,12.9,24.7,25c0,1.4,0,10.9-1.2,12
	c-8.9,9.5-43.4,13.5-58.6,23c-14.9,8.9-19.2,21.6-19.2,32.5c0,12.3,8.9,35,34.5,35c19.3,0,34.2-10.3,43.4-19.5c0,0,0-0.1,0.1-0.1
	v2.2c0,6.3-3.1,12.2-7.7,14.7c0,0,10.8-1.9,19.8-1.9c9.1,0,20.9,1.9,20.9,1.9C852.9,272.8,849.5,266.9,849.5,260.6"/>
<path id="path2990" class="st0" d="M640.8,260.6v-4.5v-66.5v-5.8v-13.8v-11.1c0-10.6,2.9-17.2,7.2-19.6c0,0-10.6-0.9-19.6,7.3
	c-9-8.2-19.7-7.3-19.7-7.3c0,0,0.1,0,0.1,0.1h-0.1c4.3,2.3,7.2,9,7.2,19.6v11.1v19.7v66.4v4.5c0,6.3-3.1,12.2-7.7,14.7
	c0,0,10.8-1.8,19.9-1.8c9,0,20.9,1.8,20.9,1.8C644.2,272.8,640.8,266.9,640.8,260.6"/>
<path id="path2994" class="st0" d="M637.4,96.5c-3.4,2.9-6.4,6-8,9.2c-7.7-24.6-53.3-38.4-30.5-65.4c-46.7,44.8,22.6,55.9,30.5,95.1
	c0.7-10,6.2-17.3,13-24C643.3,105.6,641,100.9,637.4,96.5"/>
<path id="path2998" class="st0" d="M669.8,58.1c-5.9-24.5-50.7-45.5-38.1-58.1c-31,18.8,7.7,42.7,25.4,62.3
	c5.7,7.7,2.8,14.2-3.1,20.2c-12.6-23.9-53.4-41.5-36.8-60c-31.2,27.3-0.8,44.2,18.1,63.3c2.3,2.4,4.4,4.7,6.3,7.2
	c3.2,4.3,5.5,8.7,6.1,13.4c0.4,2.9,0.1,6-1,9.1c-0.7,2-1.6,4.1-3,6.2c9.4-8.9,13.4-17,13.7-24.5C666.9,87.8,673.8,76.5,669.8,58.1"
	/>
<path id="path3002" class="st0" d="M218.8,260.6v-4.5h-0.1v-66.4v-19.6v-9.7c0-12,0.6-19,7.5-21c-2,0-12.9,0.8-20,2.2
	c-7.1-1.3-17.3-2.2-19.4-2.2c6.8,2,7.4,8.9,7.4,21v24.4v4.9v56.6c-8.3,8.1-16.4,14.7-30.4,14.7c-16.4,0-29.6-12.6-29.6-37v-34.2
	v-14.1v-15.3c0-12,0.6-19,7.5-21c-2.1,0-13,0.8-20,2.2c-7-1.3-17.9-2.2-19.9-2.2c6.9,2,7.4,8.9,7.4,21v29.3h0v34.2
	c0,42.8,26.7,54,43.7,54c19.8,0,32.5-10,41.2-19.3v1.9c0,6.3-3.5,12.2-8.1,14.7c0,0,10.7-1.8,19.8-1.8c9.1,0,20.9,1.8,20.9,1.8
	C222.2,272.8,218.8,266.9,218.8,260.6"/>
<path id="path3006" class="st0" d="M451.7,260.6v-4.5v-77.3c0-27-23-39.4-42.5-39.4c-18.4,0-36.5,13.5-45.4,25.3
	c-5.7-16.4-23-25.3-39.1-25.3c-19.6,0-35,14.4-42,19.8l-0.2,0.3c0-11.5,0.8-18.2,7.5-20.1c-2.1,0-12.9,0.8-20,2.2
	c-7-1.3-17.3-2.2-19.4-2.2c6.9,2,7.5,8.9,7.5,21v13.8v15.5v66.4v4.5c0,6.3-3.5,12.2-8.1,14.7c0,0,10.8-1.8,19.9-1.8
	c9.1,0,20.9,1.8,20.9,1.8c-4.6-2.6-8.1-8.4-8.1-14.7v-4.5v-85.6c5.5-6.6,15.8-14.7,29-14.7c23,0,29.9,14.1,29.9,30.5v69.8v4.5
	c0,6.3-3.1,12.2-7.7,14.7c0,0,10.8-1.8,19.9-1.8c9.1,0,20.9,1.8,20.9,1.8c-4.6-2.6-8-8.4-8-14.7v-4.5v-77.9c0-1.4,0-2.9-0.6-4.3
	c7.1-10,19.5-18.1,31-18.1c22.1,0,30.1,14.7,30.1,31.6v68.7v4.5c0,6.3-3.7,12.2-8.4,14.7c0,0,10.8-1.8,19.9-1.8c9.1,0,21,1.8,21,1.8
	C455.2,272.8,451.7,266.9,451.7,260.6"/>
<path id="path3010" class="st0" d="M732.7,139.4c-10,0-25,15-31,25.3c0,0-0.2,0.3-0.6,0.7v-5.1c0-11.9,0.6-18.9,7.5-20.9
	c-2,0-12.9,0.9-19.9,2.2c-7.1-1.3-17.3-2.2-19.4-2.2c6.9,2,7.5,9,7.5,20.9v29.4v66.4v4.5c0,6.3-3.2,12.1-7.8,14.7
	c0,0,10.8-1.9,19.9-1.9c9,0,20.9,1.9,20.9,1.9c-4.6-2.5-8.1-8.4-8.1-14.7v-4.5v-80.7c5.5-6.9,14.1-15.5,25-15.5
	c7.5,0,12.6,3.4,16.9,8.9v-27C740.2,140.3,739.7,139.4,732.7,139.4"/>
<path id="path3014" class="st0" d="M995.7,260.6v-2.1v-2.4v-76.7c0-26.4-20.7-39.9-43.1-39.9c-19,0-37.1,15-43.4,20.4v-29.6v-29.4
	c0-12,0.6-19,7.5-20.9c-2.1,0-12.9,0.8-20,2.2c-7.1-1.4-17.9-2.2-20-2.2c6.9,2,7.5,8.9,7.5,20.9v8.5v20.8v125.9v4.5
	c0,6.3-3.2,12.2-7.8,14.7c0,0,10.8-1.8,19.9-1.8c9,0,20.9,1.8,20.9,1.8c-4.6-2.6-8.1-8.4-8.1-14.7v-4.5v-84.8
	c5.5-7.4,18.4-14.9,31.4-14.9c23.5,0,30.7,15.5,30.7,32.5v67.2v2.4v2.1c0,6.3-3.7,12.2-8.3,14.7c0,0,10.8-1.8,19.9-1.8
	c9,0,20.9,1.8,20.9,1.8C999.1,272.8,995.7,266.9,995.7,260.6"/>
<path id="path3018" class="st0" d="M64.3,82.1C57.2,80.8,44.9,80,42.8,80c6.9,2,7.5,8.9,7.5,20.9v29.4v113.2c0,75-41.4,88.8-50.3,94
	c69.6-10.6,77.9-81.6,77.9-96.5V130.3v-29.4c0-12,0.6-19,7.5-20.9C83.3,80,71.3,80.8,64.3,82.1"/>
</svg>
