<?xml version="1.0" encoding="utf-8"?>
<!-- Generator: Adobe Illustrator 22.1.0, SVG Export Plug-In . SVG Version: 6.00 Build 0)  -->
<svg version="1.1" id="Layer_1" xmlns="http://www.w3.org/2000/svg" xmlns:xlink="http://www.w3.org/1999/xlink" x="0px" y="0px"
	 viewBox="0 0 176.7 46.7" style="enable-background:new 0 0 176.7 46.7;" xml:space="preserve">
<style type="text/css">
	.st0{fill-rule:evenodd;clip-rule:evenodd;fill:#6E7485;}
</style>
<polygon class="st0" points="102.9,13 113,9.3 102.9,5.4 102.9,0 120.5,7.1 120.5,11.5 102.9,18.6 102.9,13 "/>
<path class="st0" d="M6.7,46.7L6.7,46.7L6.7,46.7L6.7,46.7z M6.7,46.7c-3.7,0-6.7-1.9-6.7-6v-0.2c0-5,4.4-6.7,9.6-6.7l2.5,0v-1
	c0-2-0.9-3.3-3-3.3c-1.9,0-2.9,1.1-3.1,2.7H0.6c0.4-4.5,4-6.7,8.8-6.7c4.9,0,8.4,2.1,8.4,7.2v13.6h-5.6v-2.3
	C11.3,45.4,9.4,46.7,6.7,46.7L6.7,46.7z M12.2,39.5v-1.9H9.9c-2.8,0-4.2,0.8-4.2,2.6v0.2c0,1.4,0.9,2.4,2.8,2.4
	C10.4,42.7,12.2,41.6,12.2,39.5L12.2,39.5z"/>
<path class="st0" d="M30.8,46.7c-5.7,0-9.7-3.5-9.7-10.4V36c0-6.9,4.4-10.6,9.8-10.6c4.6,0,8.5,2.3,8.9,7.7l-5.5,0
	c-0.4-2-1.4-3.3-3.4-3.3c-2.4,0-4.1,1.9-4.1,5.9v0.6c0,4.1,1.5,6,4.1,6c1.9,0,3.4-1.4,3.7-3.7l5.2,0C39.4,43.4,36.3,46.7,30.8,46.7
	L30.8,46.7z"/>
<path class="st0" d="M52,46.7c-5.7,0-9.7-3.5-9.7-10.4V36c0-6.9,4.4-10.6,9.8-10.6c4.6,0,8.5,2.3,8.9,7.7h-5.5
	c-0.3-2-1.4-3.3-3.4-3.3c-2.4,0-4.1,1.9-4.1,5.9v0.6c0,4.1,1.5,6,4.1,6c1.9,0,3.4-1.4,3.7-3.7H61C60.6,43.4,57.5,46.7,52,46.7
	L52,46.7z"/>
<path class="st0" d="M73.3,46.7c-5.9,0-9.9-3.5-9.9-10.3V36c0-6.8,4.2-10.6,9.7-10.6c5.1,0,9.3,2.8,9.3,9.6v2.5l-13.3,0
	c0.2,3.7,1.8,5.1,4.2,5.1c2.2,0,3.4-1.2,3.7-2.7l5.3,0C81.8,43.8,78.7,46.7,73.3,46.7L73.3,46.7z M69.3,33.7h7.6
	c-0.1-3-1.5-4.3-3.7-4.3C71.4,29.4,69.7,30.4,69.3,33.7L69.3,33.7z"/>
<path class="st0" d="M85.9,25.9h5.7v3c1-1.9,3-3.5,6.2-3.5c3.7,0,6.2,2.2,6.2,7.2v13.6l-5.7,0V33.5c0-2.4-1-3.4-3-3.4
	c-2,0-3.6,1.2-3.6,3.8v12.4h-5.7L85.9,25.9L85.9,25.9L85.9,25.9z"/>
<path class="st0" d="M114.6,19.7v6.2l3.9,0v4.2h-3.9v9.7c0,1.5,0.7,2.2,2,2.2c0.8,0,1.4-0.1,2-0.3v4.4c-0.7,0.2-1.8,0.4-3.2,0.4
	c-4.4,0-6.5-2-6.5-6.2V30.1l-2.4,0v-4.2h2.4v-3.8L114.6,19.7L114.6,19.7L114.6,19.7z"/>
<path class="st0" d="M139.9,46.3h-5.7v-3c-1,1.9-2.9,3.4-5.9,3.4c-3.7,0-6.4-2.2-6.4-7V25.9h5.7v12.9c0,2.3,0.9,3.4,3,3.4
	c2,0,3.6-1.2,3.6-3.8V25.9h5.7L139.9,46.3L139.9,46.3L139.9,46.3z"/>
<path class="st0" d="M144.1,25.9h5.7v3.7c1.2-2.7,3.1-4,6.1-4v5.6c-3.9,0-6.1,1.2-6.1,4.6v10.5l-5.7,0V25.9L144.1,25.9L144.1,25.9z"
	/>
<path class="st0" d="M167.6,46.7c-5.9,0-9.9-3.5-9.9-10.3V36c0-6.8,4.2-10.6,9.7-10.6c5.1,0,9.3,2.8,9.3,9.6v2.5l-13.3,0
	c0.2,3.7,1.8,5.1,4.2,5.1c2.2,0,3.4-1.2,3.7-2.7l5.3,0C176.1,43.8,172.9,46.7,167.6,46.7L167.6,46.7z M163.5,33.7h7.6
	c-0.1-3-1.5-4.3-3.7-4.3C165.6,29.4,164,30.4,163.5,33.7L163.5,33.7z"/>
</svg>
