<?xml version="1.0" encoding="utf-8"?>
<!-- Generator: Adobe Illustrator 22.1.0, SVG Export Plug-In . SVG Version: 6.00 Build 0)  -->
<svg version="1.1" id="Layer_1" xmlns="http://www.w3.org/2000/svg" xmlns:xlink="http://www.w3.org/1999/xlink" x="0px" y="0px"
	 viewBox="0 0 255 45" style="enable-background:new 0 0 255 45;" xml:space="preserve">
<style type="text/css">
	.st0{fill:#00AFDB;}
	.st1{fill:#6E7585;}
	.st2{fill:#FFFFFF;}
	.st3{fill:#6E7485;}
</style>
<g>
	<path class="st0" d="M213.9,3.5c0,9.5,0,19,0,28.5c-0.9,0-1.7,0-2.6,0c0-9.5,0-18.9,0-28.4c-2.8,0-5.4,0-8.1,0
		c0,11.9,0,23.8,0,35.7c0.5,0,0.9,0,1.3,0c8.6,0,17.2,0,25.9,0c2.2,0,2.8-0.7,2.8-2.9c0-10.6,0-21.2,0-31.8c0-0.4,0-0.7,0-1.1
		c-2.8,0-5.5,0-8.3,0c0,9.5,0,19,0,28.4c-0.9,0-1.7,0-2.6,0c0-9.5,0-19,0-28.4C219.4,3.5,216.8,3.5,213.9,3.5z"/>
	<path class="st1" d="M255,15.2c0-3.1,0-6,0-9c0-2-0.7-2.7-2.7-2.7c-4.6,0-9.2,0-13.9,0c-1.9,0-2.7,0.7-2.7,2.7c0,5.7,0,11.4,0,17.1
		c0,0.3,0,0.7,0.1,1.1c3.6,0,7.2,0,10.7,0c0,2.4,0,4.8,0,7.1c-0.9,0-1.7,0-2.5,0c0-1.8,0-3.5,0-5.2c-2.8,0-5.5,0-8.3,0
		c0,3.5,0,6.8,0,10.2c0,2,0.7,2.7,2.7,2.7c4.6,0,9.2,0,13.7,0c2,0,2.8-0.7,2.8-2.7c0-6.1,0-12.1,0-18.2c0-0.4,0-0.8,0-1.2
		c-3.7,0-7.3,0-10.8,0c0-2.1,0-4.1,0-6.1c0.9,0,1.7,0,2.5,0c0,1.4,0,2.8,0,4.2C249.5,15.2,252.2,15.2,255,15.2z"/>
	<path class="st1" d="M178.6,39.2c0-0.4,0.1-0.6,0.1-0.9c0-10.8,0-21.5,0-32.3c0-1.8-0.8-2.5-2.5-2.5c-5.2,0-10.5,0-15.7,0
		c-0.3,0-0.6,0-0.8,0.1c0,11.9,0,23.8,0,35.6c2.8,0,5.4,0,8.2,0c0-9.4,0-18.8,0-28.2c0.9,0,1.7,0,2.6,0c0,9.4,0,18.8,0,28.2
		C173.2,39.2,175.8,39.2,178.6,39.2z"/>
	<path class="st0" d="M100.8,3.6c0,4.5,0,8.8,0,13.2c-0.9,0-1.7,0-2.6,0c0-4.4,0-8.8,0-13.2c-2.8,0-5.5,0-8.2,0
		c0,11.9,0,23.7,0,35.6c2.8,0,5.5,0,8.3,0c0-5,0-9.9,0-14.8c0.9,0,1.7,0,2.6,0c0,5,0,9.9,0,14.8c2.8,0,5.5,0,8.2,0c0-5,0-9.8,0-14.7
		c0-1.4,0.2-2.8-1.6-3.4c1.6-1.4,1.6-1.4,1.6-3.5c0-4.3,0-8.5,0-12.8c0-0.4,0-0.8,0-1.2C106.3,3.6,103.6,3.6,100.8,3.6z"/>
	<path class="st1" d="M111.7,3.6c0,11.9,0,23.7,0,35.6c6.4,0,12.7,0,19.1,0c0-4.1,0-8.2,0-12.2c-2.8,0-5.5,0-8.4,0
		c0,1.7,0,3.4,0,5.1c-0.9,0-1.6,0-2.4,0c0-2.6,0-5.1,0-7.8c3.6,0,7.2,0,10.8,0c0-2.3,0-4.5,0-6.8c-3.6,0-7.2,0-10.8,0
		c0-2.2,0-4.3,0-6.4c0.8,0,1.6,0,2.5,0c0,1.3,0,2.5,0,3.8c2.9,0,5.6,0,8.3,0c0-3.8,0-7.4,0-11.1C124.5,3.6,118.2,3.6,111.7,3.6z"/>
	<path class="st1" d="M65.4,39.2c0-4.1,0-8.2,0-12.2c-2.8,0-5.5,0-8.3,0c0,1.7,0,3.4,0,5c-0.9,0-1.7,0-2.4,0c0-2.6,0-5.1,0-7.8
		c3.6,0,7.2,0,10.8,0c0-2.3,0-4.5,0-6.9c-3.6,0-7.2,0-10.7,0c0-2.2,0-4.3,0-6.5c0.8,0,1.6,0,2.5,0c0,1.3,0,2.6,0,3.8
		c2.9,0,5.6,0,8.3,0c0-3.8,0-7.5,0-11.1c-6.4,0-12.7,0-19.1,0c0,11.9,0,23.7,0,35.6C52.7,39.2,59,39.2,65.4,39.2z"/>
	<path class="st1" d="M181.3,3.5c0,12,0,23.8,0,35.7c6.4,0,12.7,0,19,0c0-4.1,0-8.2,0-12.3c-2.8,0-5.5,0-8.3,0c0,1.7,0,3.4,0,5.1
		c-0.9,0-1.7,0-2.5,0c0-2.6,0-5.1,0-7.8c3.6,0,7.2,0,10.8,0c0-2.3,0-4.5,0-6.8c-3.6,0-7.2,0-10.8,0c0-2.2,0-4.3,0-6.4
		c0.9,0,1.6,0,2.5,0c0,1.3,0,2.5,0,3.8c2.8,0,5.5,0,8.2,0c0-3.8,0-7.5,0-11.2C194,3.5,187.7,3.5,181.3,3.5z"/>
	<path class="st1" d="M13.5,14.3c0,1.2,0,2.3,0,3.3c0,0.7,0.2,1.1,0.9,1.3c1.6,0.4,3.2,0.8,4.7,1.3c0.9,0.2,1.7,0.5,2.7,0.7
		c0-3.1,0-6,0-8.9c0-2.2-0.7-3.1-2.8-3.7c-2.6-0.7-5.2-1.4-7.8-2.1c-2-0.5-4-1.1-6.1-1.7c-1.4-0.4-2.4,0-2.4,1.2
		c-0.1,2.5,0,4.9,0,7.4c2.5,0.6,3.5,1.6,3.5,3.9c0.1,3.7-0.5,4.6-3.5,5.4c-0.3,2.4-0.3,2.4,1.9,2.9c0.1,0,0.1,0,0.2,0
		c2.9,0.8,5.8,1.6,8.7,2.4c0,2.4,0,4.7,0,7.1c-0.9-0.2-1.7-0.5-2.6-0.7c0-1.8,0-3.5,0-5.3c-2.8-0.8-5.5-1.5-8.3-2.3
		c0,3.6,0,6.9,0,10.3c0,1.9,0.8,2.9,2.6,3.4c4.7,1.3,9.4,2.6,14.1,3.9c1.9,0.5,2.6-0.1,2.6-2c0-6.1,0-12.3,0-18.4c0-0.3,0-0.6,0-1
		c-0.4-0.1-0.6-0.2-0.9-0.3c-3.1-0.9-6.2-1.7-9.2-2.6C11.5,19.7,11,19.3,11,19c-0.1-1.8,0-3.6,0-5.6C11.8,13.9,12.6,14.1,13.5,14.3z
		"/>
	<path class="st1" d="M43.7,13.2c0-2.2,0-4.2,0-6.3c0-2.2-0.7-2.8-2.8-2.2c-5.1,1.4-10.2,2.9-15.3,4.2c-0.8,0.2-1.1,0.5-1.1,1.4
		c0,11.1,0,22.1,0,33.2c0,0.5,0,0.9,0,1.5c2.5-0.7,4.7-1.4,7.1-1.9c0.9-0.2,1.3-0.6,1.3-1.6c0-6.8,0-13.6,0-20.4c0-2,0-3.9,0-5.9
		c0-0.3,0.2-0.8,0.5-0.9c0.6-0.3,1.3-0.4,2.1-0.6c0,9.5,0,18.8,0,28.3c2.5-0.7,4.9-1.4,7.3-2c0.8-0.2,1-0.5,1-1.3
		c0-5.1,0-10.1,0-15.2c0-0.4,0-0.8,0-1.2c-0.5,0-0.8,0-1.1,0c-1.8-0.1-3.2-1.3-3.4-3.1c-0.1-1-0.1-2,0-3c0.2-1.7,1.6-2.9,3.3-3
		C42.9,13.1,43.3,13.2,43.7,13.2z"/>
	<path class="st2" d="M45.3,17.8L45.3,17.8c0-0.3,0-0.6,0-0.9c0-1.6-1-2.5-2.5-2.5s-2.4,0.9-2.5,2.5c0,0.7,0,1.3,0,2
		c0.1,1.3,1,2.1,2.3,2.2c1.4,0.1,2.5-0.7,2.7-2C45.4,18.6,45.3,18.2,45.3,17.8z"/>
	<path class="st3" d="M213.9,3.5c2.9,0,5.6,0,8.4,0c0,9.5,0,18.9,0,28.4c0.9,0,1.7,0,2.6,0c0-9.4,0-18.9,0-28.4c2.8,0,5.5,0,8.3,0
		c0,0.4,0,0.7,0,1.1c0,10.6,0,21.2,0,31.8c0,2.2-0.6,2.9-2.8,2.9c-8.6,0-17.2,0-25.9,0c-0.4,0-0.8,0-1.3,0c0-11.9,0-23.8,0-35.7
		c2.7,0,5.3,0,8.1,0c0,9.5,0,18.9,0,28.4c0.9,0,1.7,0,2.6,0C213.9,22.5,213.9,13.1,213.9,3.5z"/>
	<path class="st3" d="M87.4,6.1c0-1.8-0.7-2.6-2.6-2.6c-4.6,0-9.2,0-13.7,0c-2.2,0-2.9,0.7-2.9,3c0,10.5,0,21,0,31.5
		c0,0.4,0,0.8,0.1,1.2c2.8,0,5.5,0,8.2,0c0-2.6,0-5.2,0-7.8c0.9,0,1.7,0,2.6,0c0,2.6,0,5.2,0,7.8c2.8,0,5.5,0,8.3,0
		c0-0.3,0.1-0.6,0.1-0.9C87.4,27.5,87.4,16.8,87.4,6.1z M79,23.8c-0.8,0-1.6,0-2.5,0c0-4.2,0-8.5,0-12.8c0.8,0,1.6,0,2.5,0
		C79,15.2,79,19.5,79,23.8z"/>
	<path class="st3" d="M133.6,3.5c0.5,0,1,0,1.5,0c5,0,10,0,14.9,0c2,0,2.7,0.7,2.7,2.8c0,4.3,0,8.7,0,13c0,1-0.1,1.8-1,2.4
		c-0.1,0.1-0.1,0.7,0,0.8c0.8,0.5,1,1.3,1,2.2c0,4.8,0,9.7,0,14.6c-2.8,0-5.5,0-8.3,0c0-4.6,0-9.1,0-13.7c-0.9,0-1.7,0-2.6,0
		c0,4.6,0,9.2,0,13.8c-2.8,0-5.5,0-8.2,0C133.6,27.3,133.6,15.5,133.6,3.5z M144.3,17.9c0-2.4,0-4.6,0-6.9c-0.9,0-1.7,0-2.4,0
		c0,2.3,0,4.6,0,6.9C142.8,17.9,143.5,17.9,144.3,17.9z"/>
	<path class="st3" d="M255,15.2c-2.8,0-5.5,0-8.3,0c0-1.4,0-2.8,0-4.2c-0.9,0-1.7,0-2.5,0c0,2,0,4,0,6.1c3.6,0,7.1,0,10.8,0
		c0,0.5,0,0.8,0,1.2c0,6.1,0,12.1,0,18.2c0,2-0.7,2.7-2.8,2.7c-4.6,0-9.2,0-13.7,0c-2,0-2.7-0.7-2.7-2.7c0-3.4,0-6.8,0-10.2
		c2.8,0,5.5,0,8.3,0c0,1.7,0,3.4,0,5.2c0.9,0,1.7,0,2.5,0c0-2.3,0-4.6,0-7.1c-3.6,0-7.1,0-10.7,0c0-0.4-0.1-0.8-0.1-1.1
		c0-5.7,0-11.4,0-17.1c0-2,0.7-2.7,2.7-2.7c4.6,0,9.2,0,13.9,0c1.9,0,2.7,0.8,2.7,2.7C255,9.2,255,12.2,255,15.2z"/>
	<path class="st3" d="M178.6,39.2c-2.8,0-5.4,0-8.2,0c0-9.4,0-18.8,0-28.2c-0.9,0-1.7,0-2.6,0c0,9.4,0,18.8,0,28.2
		c-2.8,0-5.5,0-8.2,0c0-11.8,0-23.7,0-35.6c0.3,0,0.6-0.1,0.8-0.1c5.2,0,10.5,0,15.7,0c1.8,0,2.5,0.8,2.5,2.5c0,10.8,0,21.5,0,32.3
		C178.7,38.6,178.6,38.9,178.6,39.2z"/>
	<path class="st3" d="M100.8,3.6c2.8,0,5.5,0,8.3,0c0,0.5,0,0.8,0,1.2c0,4.3,0,8.5,0,12.8c0,2.1,0,2.1-1.6,3.5
		c1.8,0.5,1.6,2,1.6,3.4c0,4.9,0,9.7,0,14.7c-2.8,0-5.5,0-8.2,0c0-4.9,0-9.8,0-14.8c-0.9,0-1.7,0-2.6,0c0,4.9,0,9.8,0,14.8
		c-2.8,0-5.5,0-8.3,0c0-11.8,0-23.7,0-35.6c2.7,0,5.4,0,8.2,0c0,4.4,0,8.8,0,13.2c0.9,0,1.7,0,2.6,0C100.8,12.4,100.8,8,100.8,3.6z"
		/>
	<path class="st3" d="M111.7,3.6c6.4,0,12.7,0,19.1,0c0,3.7,0,7.4,0,11.1c-2.7,0-5.5,0-8.3,0c0-1.2,0-2.5,0-3.8c-0.9,0-1.7,0-2.5,0
		c0,2.1,0,4.2,0,6.4c3.6,0,7.1,0,10.8,0c0,2.3,0,4.5,0,6.8c-3.6,0-7.1,0-10.8,0c0,2.7,0,5.2,0,7.8c0.8,0,1.5,0,2.4,0
		c0-1.7,0-3.3,0-5.1c2.8,0,5.6,0,8.4,0c0,4,0,8.1,0,12.2c-6.4,0-12.7,0-19.1,0C111.7,27.3,111.7,15.5,111.7,3.6z"/>
	<path class="st3" d="M65.4,39.2c-6.3,0-12.7,0-19.1,0c0-11.9,0-23.7,0-35.6c6.3,0,12.7,0,19.1,0c0,3.7,0,7.4,0,11.1
		c-2.7,0-5.4,0-8.3,0c0-1.3,0-2.5,0-3.8c-0.9,0-1.6,0-2.5,0c0,2.1,0,4.2,0,6.5c3.6,0,7.1,0,10.7,0c0,2.3,0,4.6,0,6.9
		c-3.6,0-7.1,0-10.8,0c0,2.6,0,5.1,0,7.8c0.8,0,1.5,0,2.4,0c0-1.7,0-3.3,0-5c2.8,0,5.5,0,8.3,0C65.4,31,65.4,35.1,65.4,39.2z"/>
	<path class="st3" d="M181.3,3.5c6.4,0,12.6,0,19,0c0,3.7,0,7.5,0,11.2c-2.7,0-5.4,0-8.2,0c0-1.3,0-2.5,0-3.8c-0.9,0-1.7,0-2.5,0
		c0,2.1,0,4.2,0,6.4c3.6,0,7.1,0,10.8,0c0,2.3,0,4.5,0,6.8c-3.6,0-7.1,0-10.8,0c0,2.6,0,5.2,0,7.8c0.8,0,1.6,0,2.5,0
		c0-1.7,0-3.3,0-5.1c2.8,0,5.5,0,8.3,0c0,4.1,0,8.1,0,12.3c-6.3,0-12.6,0-19,0C181.3,27.4,181.3,15.5,181.3,3.5z"/>
	<path class="st3" d="M13.5,14.3c-0.9-0.2-1.7-0.5-2.6-0.7c0,1.9,0,3.8,0,5.6c0,0.3,0.4,0.7,0.8,0.8c3.1,0.9,6.1,1.7,9.2,2.6
		c0.3,0.1,0.6,0.2,0.9,0.3c0,0.3,0,0.6,0,1c0,6.1,0,12.3,0,18.4c0,1.9-0.7,2.5-2.6,2c-4.7-1.3-9.4-2.6-14.1-3.9
		c-1.8-0.5-2.6-1.5-2.6-3.4c0-3.4,0-6.8,0-10.3c2.8,0.8,5.5,1.5,8.3,2.3c0,1.8,0,3.5,0,5.3c0.9,0.2,1.7,0.5,2.6,0.7
		c0-2.4,0-4.7,0-7.1c-2.9-0.8-5.8-1.6-8.7-2.4c-0.1,0-0.1,0-0.2,0c-2.2-0.6-2.2-0.6-1.9-2.9c3-0.8,3.6-1.7,3.5-5.4
		c0-2.3-1-3.4-3.5-3.9c0-2.4-0.1-4.9,0-7.4c0-1.2,1-1.6,2.4-1.2c2.1,0.5,4.1,1.1,6.2,1.7c2.6,0.7,5.2,1.4,7.8,2.1
		c2.1,0.6,2.8,1.5,2.8,3.7c0,2.9,0,5.8,0,8.9c-1-0.3-1.8-0.5-2.7-0.7c-1.6-0.4-3.1-0.9-4.7-1.3c-0.8-0.2-1-0.5-0.9-1.3
		C13.6,16.6,13.5,15.5,13.5,14.3z"/>
	<path class="st3" d="M43.7,13.2c-0.5,0-0.9,0-1.2,0c-1.8,0.1-3.1,1.3-3.3,3c-0.1,1-0.1,2,0,3c0.2,1.8,1.6,3,3.4,3.1
		c0.3,0,0.6,0,1.1,0c0,0.4,0,0.8,0,1.2c0,5.1,0,10.1,0,15.2c0,0.8-0.2,1.1-1,1.3c-2.4,0.6-4.7,1.3-7.3,2c0-9.5,0-18.8,0-28.3
		c-0.8,0.2-1.5,0.3-2.1,0.6c-0.2,0.1-0.4,0.6-0.5,0.9c0,2,0,3.9,0,5.9c0,6.8,0,13.6,0,20.4c0,1-0.3,1.4-1.3,1.6
		c-2.3,0.6-4.6,1.2-7.1,1.9c0-0.6,0-1.1,0-1.5c0-11.1,0-22.1,0-33.2c0-0.9,0.3-1.2,1.1-1.4c5.1-1.4,10.2-2.8,15.3-4.2
		c2.1-0.6,2.8,0,2.8,2.2C43.7,8.9,43.7,11,43.7,13.2z"/>
	<path class="st3" d="M45.3,17.8c0,0.4,0.1,0.9,0,1.3c-0.2,1.3-1.2,2.1-2.7,2c-1.3-0.1-2.2-0.9-2.3-2.2c0-0.6,0-1.3,0-2
		c0-1.6,0.9-2.5,2.5-2.5s2.5,0.9,2.5,2.5C45.4,17.2,45.3,17.5,45.3,17.8L45.3,17.8z"/>
	<path class="st3" d="M5,17.8c0,0.4,0.1,0.9,0,1.3c-0.2,1.3-1.2,2.1-2.7,2C1,21,0.1,20.2,0,18.9c0-0.6,0-1.3,0-2
		c0-1.6,0.9-2.5,2.5-2.5S5,15.3,5,16.9C5,17.2,5,17.5,5,17.8L5,17.8z"/>
	<path class="st3" d="M23.2,6.8c0,0-5.7-1.5-6.7-1.8c0.8-2.9,3.5-5,6.7-5c3.1,0,5.8,2.1,6.7,5C28.7,5.3,23.2,6.8,23.2,6.8z"/>
</g>
</svg>
