<?xml version="1.0" encoding="utf-8"?>
<!-- Generator: Adobe Illustrator 22.1.0, SVG Export Plug-In . SVG Version: 6.00 Build 0)  -->
<svg version="1.1" id="Isolation_Mode" xmlns="http://www.w3.org/2000/svg" xmlns:xlink="http://www.w3.org/1999/xlink" x="0px"
	 y="0px" viewBox="0 0 1326.1 597.9" style="enable-background:new 0 0 1326.1 597.9;" xml:space="preserve">
<style type="text/css">
	.st0{fill:#161E25;}
</style>
<g>
	<path class="st0" d="M291.6,0C130.6,0,0,130.5,0,291.6c0,161,130.5,291.6,291.6,291.6c161,0,291.6-130.5,291.6-291.6
		c0,0,0-0.1,0-0.1C583,130.6,452.6,0.2,291.6,0z M29.5,291.6c0-36.7,7.7-73.1,22.7-106.6l125.1,342.6
		C86.8,483.7,29.4,392,29.5,291.6z M291.6,553.8c-25.1,0-50-3.6-74.1-10.7l78.7-228.6l80.6,220.8c0.5,1.2,1.1,2.5,1.9,3.6
		C350.7,548.7,321.3,553.8,291.6,553.8L291.6,553.8z M327.6,168.8c15.8-0.8,30-2.5,30-2.5c5.9-0.7,10.2-6.1,9.5-12
		c-0.7-5.6-5.5-9.8-11.2-9.6c0,0-42.5,3.3-69.9,3.3c-25.8,0-69.1-3.3-69.1-3.3c-14.1-0.8-15.8,20.8-1.7,21.6c0,0,13.4,1.7,27.5,2.5
		l40.8,111.9l-57.2,172L131,168.8c15.8-0.8,30-2.5,30-2.5c5.9-0.7,10.2-6.1,9.5-12c-0.7-5.6-5.5-9.8-11.2-9.6c0,0-42.5,3.3-69.9,3.3
		c-4.9,0-10.7,0-16.9-0.3c79.5-121,242-154.6,363-75.1c11.7,7.7,22.8,16.3,33.1,25.8c-1.1,0-2.2-0.2-3.4-0.2
		c-25.7,0-44,22.4-44,46.5c0,21.6,12.5,39.9,25.8,61.5c9.9,17.5,21.6,39.9,21.6,72.3c0,22.5-6.6,50.8-19.9,84.9l-26.2,87.4
		L327.6,168.8z M423.3,518.3l80.1-231.5c15-37.4,19.9-67.3,19.9-93.9c0-9-0.6-18-1.8-27C589.6,290.6,546.1,446.8,423.3,518.3z"/>
	<path class="st0" d="M842.3,171.5l-58.9,173.9c-6.4,19.6-10.7,39.7-13.1,60.2h-1.5c-2.3-20.4-6.7-40.6-13.1-60.2l-58.9-173.9h-78.7
		l111.7,293.2h79.6l111.7-293.2L842.3,171.5z"/>
	<polygon class="st0" points="960.4,171.5 938.1,229.9 938.1,464.6 1016.9,464.6 1016.9,171.5 	"/>
	<path class="st0" d="M1296.7,206.1c-19.6-26.8-46.7-40.1-81.3-40.1c-36.7,0-61.6,14.5-80.4,43.5h-3.7l-11.3-38h-63.8v426.5h78.8
		V474.8c0-3.8-1.3-18-4-42.5h4c19.6,25,43.8,37.5,78.2,37.5c21.3,0.5,42.3-5.8,59.8-18c17.9-13.3,31.5-31.6,39.2-52.6
		c9.7-26.1,14.4-53.8,13.7-81.6C1326,270,1316.2,232.8,1296.7,206.1z M1193.5,405.1c-20.2,0-35.1-6.8-44.5-20.5s-14.1-36.2-14-67.7
		v-8.7c0.4-28,5.1-48,14.2-60.2c9.1-12.1,23.5-18.2,43.3-18.2c18.9,0,32.7,7.2,41.6,21.6c8.8,14.4,13.3,36.1,13.2,64.9
		C1247.2,375.6,1229.3,405.1,1193.5,405.1L1193.5,405.1z"/>
</g>
</svg>
