<?xml version="1.0" encoding="utf-8"?>
<!-- Generator: Adobe Illustrator 22.1.0, SVG Export Plug-In . SVG Version: 6.00 Build 0)  -->
<svg version="1.1" id="Layer_1" xmlns="http://www.w3.org/2000/svg" xmlns:xlink="http://www.w3.org/1999/xlink" x="0px" y="0px"
	 viewBox="0 0 120 120" style="enable-background:new 0 0 120 120;" xml:space="preserve">
<style type="text/css">
	.st0{display:none;}
	.st1{display:inline;}
</style>
<g class="st0">
	<path class="st1" d="M60,120C26.9,120,0,93.1,0,60C0,26.9,26.9,0,60,0c33.1,0,60,26.9,60,60C120,93.1,93.1,120,60,120z M60,3.9
		C29.1,3.9,3.9,29.1,3.9,60s25.2,56.1,56.1,56.1s56.1-25.2,56.1-56.1S90.9,3.9,60,3.9z"/>
</g>
<path d="M36.5,26.5c-5.5,0-9.9,4.6-9.9,10.1c0,4.2,2.7,7.9,6.7,9.1c-1,5,0.3,10.4,4.1,14.2l0.3,0.3l-0.2,0.1l-0.1,0.1l-0.1,0.1
	c-3.7,3.7-5.1,8.9-4.3,13.7c-3.7,1.5-6.5,5-6.5,9.3c0,5.5,4.5,10.1,10.1,10.1c4.3,0,7.8-2.7,9.2-6.6c4.8,0.8,9.9-0.6,13.7-4.3v0
	l0.1-0.1l0.3,0.3c3.8,3.8,9.3,5.2,14.4,4.1c1.4,3.9,5,6.7,9.3,6.7c5.5,0,10.1-4.5,10.1-10.1v0c-0.2-4.5-3.3-8.2-7.5-9.4
	c0.8-4.8-0.7-9.8-4.3-13.4l-0.3-0.3l0.1-0.1c3.8-3.8,5.1-9.1,4.2-14c4.2-1.2,7.3-4.9,7.3-9.4c0-5.5-4.5-10.1-10.1-10.1
	c-4.6,0-8.2,3.1-9.4,7.3c-5-1-10.2,0.4-14.2,4.2l-0.3-0.2c0,0,0,0,0,0c-3.6-3.7-8.6-4.9-13.3-4.3C44.7,29.5,40.9,26.5,36.5,26.5z
	 M36.5,29.4c3.5,0,6.5,2.5,7,5.9l0.2,1.5l1.5-0.3c4.2-0.9,8.8,0.1,11.9,3.4v0l0.1,0.1l-4.2,4.2L53,44.1c-2.6-2.6-6.9-2.6-9.5,0
	c-2.6,2.6-2.6,6.9,0,9.5l0.1,0.1l0.3,0.3l8.3,8.2l5.2,5.2l-4.2,4.2l-6.4-6.4L40.6,59l-0.4-0.3l-0.8-0.8c-3.4-3.4-4.4-8.4-3.1-12.7
	l0.5-1.6l-1.7-0.3c-3.4-0.5-5.6-3.3-5.6-6.7C29.5,32.7,32.7,29.4,36.5,29.4z M83.1,29.5c4,0,7.1,3.3,7.1,7.1c0,3.7-2.7,6.5-6.2,7
	l-1.6,0.2l0.5,1.6c1.2,4.3,0.1,9.2-3.3,12.6l-0.1,0.1L75.2,54l0.1-0.1c2.6-2.6,2.6-6.9,0-9.5c-2.6-2.6-6.9-2.6-9.5,0L52.2,58.1
	L48,53.9l6.1-6.2l6.3-6.2l1.1-1.2c3.6-3.4,8.4-4.6,12.7-3.3l1.6,0.5l0.2-1.7C76.6,32.2,79.4,29.5,83.1,29.5z M48.2,45.1
	c1,0,1.9,0.4,2.7,1.1l0.3,0.3l-5.3,5.4l-0.4-0.3l0,0c-1.4-1.5-1.4-3.9,0-5.3C46.2,45.4,47.2,45.1,48.2,45.1z M70.6,45.3
	c1,0,1.9,0.4,2.7,1.1c1.5,1.5,1.5,3.9,0,5.4L73.2,52l-5.4-5.4l0.1-0.1C68.7,45.7,69.7,45.3,70.6,45.3z M65.8,48.7l5.4,5.4l1,1
	l6.1,6.1l1.5,1.5c3.3,3.3,4.5,7.8,3.4,12l-0.4,1.5l1.6,0.2c3.5,0.5,6.2,3.3,6.3,7c0,0,0,0,0,0c0,4-3.3,7.1-7.1,7.1
	c-3.6,0-6.4-2.4-7-5.6l-0.3-1.6l-1.6,0.5c-4.4,1.4-9.3,0.3-12.7-3l-0.4-0.4l4.2-4.2l0.2,0.2c2.6,2.6,6.8,2.5,9.4,0
	c2.6-2.6,2.6-6.8,0.1-9.4l-0.1-0.1L61.6,52.9L65.8,48.7z M59.5,54.9l5.5,5.5l-5.2,5.2l-5.4-5.5L59.5,54.9z M39.6,62.3l4.3,4.4
	l-0.2,0.2c-2.6,2.6-2.6,6.9,0,9.5c2.6,2.6,6.9,2.6,9.5,0l0,0v0l1.1-1.2l0-0.1l6-6l0.2-0.2l6.3-6.3l4.2,4.2l-5.5,5.5l-8.4,8.4h0
	c-3.4,3.3-8,4.5-12.2,3.4l-1.5-0.4L43.4,85c-0.7,3.3-3.5,5.6-6.9,5.6c-4,0-7.1-3.3-7.1-7.1c0-3.4,2.3-6.2,5.5-7.1l1.4-0.4l-0.4-1.4
	c-1-4.2,0.2-8.8,3.4-12.1c0,0,0,0,0,0L39.6,62.3z M46.1,68.6l5.4,5.4l-0.3,0.3c-1.5,1.5-3.9,1.5-5.4,0c-1.5-1.5-1.5-3.9,0-5.4
	L46.1,68.6z M73.2,68.7L73.2,68.7l0.1,0.1c1.5,1.5,1.5,3.9,0,5.4c-1.5,1.5-3.9,1.5-5.4,0l-0.1-0.1L73.2,68.7z"/>
<g>
	<g>
		<path d="M60,120C26.9,120,0,93.1,0,60c0-4.8,0.7-9.7,2-15c0.2-0.8,0.9-1.3,1.7-1.3c0.2,0,0.3,0,0.4,0.1c0.5,0.1,0.9,0.4,1.1,0.8
			c0.2,0.4,0.3,0.9,0.2,1.4c-1.3,5-1.9,9.6-1.9,14.1c0,31.1,25.3,56.4,56.4,56.4c17.5,0,34.3-8.4,44.9-22.5l2.3-3.1h-7.3
			c-1,0-1.8-0.8-1.8-1.8s0.8-1.8,1.8-1.8h10.9c0.5,0,1,0.2,1.4,0.6s0.5,0.9,0.4,1.4l0,10.7c0,1-0.8,1.8-1.8,1.8
			c-1,0-1.8-0.8-1.8-1.8l0-5.2l-3.4,4c-4.4,5.2-9.5,9.5-15.3,12.9C81.2,117.1,70.7,120,60,120z"/>
	</g>
	<g>
		<path d="M116.2,76.3c-0.2,0-0.3,0-0.4-0.1c-0.5-0.1-0.9-0.4-1.1-0.8c-0.2-0.4-0.3-0.9-0.2-1.4c1.3-5,1.9-9.6,1.9-14.1
			c0-31.1-25.3-56.4-56.4-56.4c-17.5,0-34.3,8.4-44.9,22.5l-2.3,3.1h7.4c1,0,1.8,0.8,1.8,1.8s-0.8,1.8-1.8,1.8H9.7
			c-0.3,0-0.4,0-0.5,0c-1,0-1.8-0.8-1.8-1.8V20.1c0-1,0.8-1.8,1.8-1.8c1,0,1.8,0.8,1.8,1.8l0.1,5.1l3.3-3.9
			c4.4-5.2,9.5-9.5,15.3-12.9C38.8,2.9,49.3,0,60,0c33.1,0,60,26.9,60,60c0,4.8-0.7,9.7-2,15C117.8,75.8,117.1,76.3,116.2,76.3z"/>
	</g>
</g>
</svg>
