<?xml version="1.0" encoding="utf-8"?>
<!-- Generator: Adobe Illustrator 22.1.0, SVG Export Plug-In . SVG Version: 6.00 Build 0)  -->
<svg version="1.1" id="Layer_1" xmlns="http://www.w3.org/2000/svg" xmlns:xlink="http://www.w3.org/1999/xlink" x="0px" y="0px"
	 viewBox="0 0 144 143.5" style="enable-background:new 0 0 144 143.5;" xml:space="preserve">
<style type="text/css">
	.st0{fill:#6E7485;}
</style>
<g>
	<path class="st0" d="M1.9,3.8C0.9,3.8,0,3,0,1.9C0,0.9,0.9,0,1.9,0C3,0,3.8,0.9,3.8,1.9C3.8,3,3,3.8,1.9,3.8L1.9,3.8z"/>
	<path class="st0" d="M1.9,23.8c-1.1,0-1.9-0.9-1.9-1.9C0,20.8,0.9,20,1.9,20c1.1,0,1.9,0.9,1.9,1.9S3,23.8,1.9,23.8L1.9,23.8z"/>
	<path class="st0" d="M1.9,43.7c-1.1,0-1.9-0.9-1.9-1.9c0-1.1,0.9-1.9,1.9-1.9c1.1,0,1.9,0.9,1.9,1.9S3,43.7,1.9,43.7L1.9,43.7z"/>
	<path class="st0" d="M1.9,63.6c-1.1,0-1.9-0.9-1.9-1.9c0-1.1,0.9-1.9,1.9-1.9c1.1,0,1.9,0.9,1.9,1.9C3.8,62.8,3,63.6,1.9,63.6
		L1.9,63.6z"/>
	<path class="st0" d="M1.9,83.7c-1.1,0-1.9-0.9-1.9-1.9c0-1.1,0.9-1.9,1.9-1.9c1.1,0,1.9,0.9,1.9,1.9C3.8,82.9,3,83.7,1.9,83.7
		L1.9,83.7z"/>
	<path class="st0" d="M1.9,103.6c-1.1,0-1.9-0.9-1.9-1.9c0-1.1,0.9-1.9,1.9-1.9c1.1,0,1.9,0.9,1.9,1.9C3.8,102.8,3,103.6,1.9,103.6
		L1.9,103.6z"/>
	<path class="st0" d="M1.9,123.6c-1.1,0-1.9-0.9-1.9-1.9c0-1.1,0.9-1.9,1.9-1.9c1.1,0,1.9,0.9,1.9,1.9S3,123.6,1.9,123.6L1.9,123.6z
		"/>
	<path class="st0" d="M1.9,143.5c-1.1,0-1.9-0.9-1.9-1.9c0-1.1,0.9-1.9,1.9-1.9c1.1,0,1.9,0.9,1.9,1.9S3,143.5,1.9,143.5L1.9,143.5z
		"/>
	<path class="st0" d="M21.9,3.8c-1,0-1.9-0.8-1.9-1.9c0-1,0.9-1.9,1.9-1.9c1.1,0,1.9,0.9,1.9,1.9C23.8,3,23,3.8,21.9,3.8L21.9,3.8z"
		/>
	<path class="st0" d="M21.9,23.8c-1.1,0-1.9-0.9-1.9-1.9c0-1.1,0.9-1.9,1.9-1.9c1.1,0,1.9,0.9,1.9,1.9S23,23.8,21.9,23.8L21.9,23.8z
		"/>
	<path class="st0" d="M21.9,43.7c-1.1,0-1.9-0.9-1.9-1.9c0-1.1,0.9-1.9,1.9-1.9c1.1,0,1.9,0.9,1.9,1.9S23,43.7,21.9,43.7L21.9,43.7z
		"/>
	<path class="st0" d="M21.9,63.6c-1.1,0-1.9-0.9-1.9-1.9c0-1.1,0.9-1.9,1.9-1.9c1.1,0,1.9,0.9,1.9,1.9C23.8,62.8,23,63.6,21.9,63.6
		L21.9,63.6z"/>
	<path class="st0" d="M21.9,83.7c-1.1,0-1.9-0.9-1.9-1.9c0-1.1,0.9-1.9,1.9-1.9c1.1,0,1.9,0.9,1.9,1.9C23.8,82.9,23,83.7,21.9,83.7
		L21.9,83.7z"/>
	<path class="st0" d="M21.9,103.6c-1.1,0-1.9-0.9-1.9-1.9c0-1.1,0.9-1.9,1.9-1.9c1.1,0,1.9,0.9,1.9,1.9
		C23.8,102.8,23,103.6,21.9,103.6L21.9,103.6z"/>
	<path class="st0" d="M21.9,123.6c-1.1,0-1.9-0.9-1.9-1.9c0-1.1,0.9-1.9,1.9-1.9c1.1,0,1.9,0.9,1.9,1.9S23,123.6,21.9,123.6
		L21.9,123.6z"/>
	<path class="st0" d="M21.9,143.5c-1.1,0-1.9-0.9-1.9-1.9c0-1.1,0.9-1.9,1.9-1.9c1.1,0,1.9,0.9,1.9,1.9S23,143.5,21.9,143.5
		L21.9,143.5z"/>
	<path class="st0" d="M41.9,3.8c-1,0-1.9-0.8-1.9-1.9c0-1,0.9-1.9,1.9-1.9c1.1,0,1.9,0.9,1.9,1.9C43.8,3,43,3.8,41.9,3.8L41.9,3.8z"
		/>
	<path class="st0" d="M41.9,23.8c-1.1,0-1.9-0.9-1.9-1.9c0-1.1,0.9-1.9,1.9-1.9c1.1,0,1.9,0.9,1.9,1.9C43.8,22.9,43,23.8,41.9,23.8
		L41.9,23.8z"/>
	<path class="st0" d="M41.9,43.7c-1.1,0-1.9-0.9-1.9-1.9c0-1.1,0.9-1.9,1.9-1.9c1.1,0,1.9,0.9,1.9,1.9C43.8,42.8,43,43.7,41.9,43.7
		L41.9,43.7z"/>
	<path class="st0" d="M41.9,63.6c-1.1,0-1.9-0.9-1.9-1.9c0-1.1,0.9-1.9,1.9-1.9c1.1,0,1.9,0.9,1.9,1.9C43.8,62.8,43,63.6,41.9,63.6
		L41.9,63.6z"/>
	<path class="st0" d="M41.9,83.7c-1.1,0-1.9-0.9-1.9-1.9c0-1.1,0.9-1.9,1.9-1.9c1.1,0,1.9,0.9,1.9,1.9C43.8,82.9,43,83.7,41.9,83.7
		L41.9,83.7z"/>
	<path class="st0" d="M41.9,103.6c-1.1,0-1.9-0.9-1.9-1.9c0-1.1,0.9-1.9,1.9-1.9c1.1,0,1.9,0.9,1.9,1.9
		C43.8,102.8,43,103.6,41.9,103.6L41.9,103.6z"/>
	<path class="st0" d="M41.9,123.6c-1.1,0-1.9-0.9-1.9-1.9c0-1.1,0.9-1.9,1.9-1.9c1.1,0,1.9,0.9,1.9,1.9
		C43.8,122.7,43,123.6,41.9,123.6L41.9,123.6z"/>
	<path class="st0" d="M41.9,143.5c-1.1,0-1.9-0.9-1.9-1.9c0-1.1,0.9-1.9,1.9-1.9c1.1,0,1.9,0.9,1.9,1.9
		C43.8,142.6,43,143.5,41.9,143.5L41.9,143.5z"/>
	<path class="st0" d="M61.9,3.8c-1,0-1.9-0.8-1.9-1.9c0-1,0.9-1.9,1.9-1.9c1.1,0,1.9,0.9,1.9,1.9C63.8,3,63,3.8,61.9,3.8L61.9,3.8z"
		/>
	<path class="st0" d="M61.9,23.8c-1.1,0-1.9-0.9-1.9-1.9c0-1.1,0.9-1.9,1.9-1.9c1.1,0,1.9,0.9,1.9,1.9C63.8,22.9,63,23.8,61.9,23.8
		L61.9,23.8z"/>
	<path class="st0" d="M61.9,43.7c-1.1,0-1.9-0.9-1.9-1.9c0-1.1,0.9-1.9,1.9-1.9c1.1,0,1.9,0.9,1.9,1.9C63.8,42.8,63,43.7,61.9,43.7
		L61.9,43.7z"/>
	<path class="st0" d="M61.9,63.6c-1.1,0-1.9-0.9-1.9-1.9c0-1.1,0.9-1.9,1.9-1.9c1.1,0,1.9,0.9,1.9,1.9C63.8,62.8,63,63.6,61.9,63.6
		L61.9,63.6z"/>
	<path class="st0" d="M61.9,83.7c-1.1,0-1.9-0.9-1.9-1.9c0-1.1,0.9-1.9,1.9-1.9c1.1,0,1.9,0.9,1.9,1.9C63.8,82.9,63,83.7,61.9,83.7
		L61.9,83.7z"/>
	<path class="st0" d="M61.9,103.6c-1.1,0-1.9-0.9-1.9-1.9c0-1.1,0.9-1.9,1.9-1.9c1.1,0,1.9,0.9,1.9,1.9
		C63.8,102.8,63,103.6,61.9,103.6L61.9,103.6z"/>
	<path class="st0" d="M61.9,123.6c-1.1,0-1.9-0.9-1.9-1.9c0-1.1,0.9-1.9,1.9-1.9c1.1,0,1.9,0.9,1.9,1.9
		C63.8,122.7,63,123.6,61.9,123.6L61.9,123.6z"/>
	<path class="st0" d="M61.9,143.5c-1.1,0-1.9-0.9-1.9-1.9c0-1.1,0.9-1.9,1.9-1.9c1.1,0,1.9,0.9,1.9,1.9
		C63.8,142.6,63,143.5,61.9,143.5L61.9,143.5z"/>
	<path class="st0" d="M82.1,3.8c-1.1,0-1.9-0.9-1.9-1.9S81,0,82.1,0c1,0,1.9,0.9,1.9,1.9C84,3,83.1,3.8,82.1,3.8L82.1,3.8z"/>
	<path class="st0" d="M82.1,23.8c-1.1,0-1.9-0.9-1.9-1.9c0-1.1,0.9-1.9,1.9-1.9c1.1,0,1.9,0.9,1.9,1.9S83.1,23.8,82.1,23.8
		L82.1,23.8z"/>
	<path class="st0" d="M82.1,43.7c-1.1,0-1.9-0.9-1.9-1.9c0-1.1,0.9-1.9,1.9-1.9c1.1,0,1.9,0.9,1.9,1.9S83.1,43.7,82.1,43.7
		L82.1,43.7z"/>
	<path class="st0" d="M82.1,63.6c-1.1,0-1.9-0.9-1.9-1.9c0-1.1,0.9-1.9,1.9-1.9c1.1,0,1.9,0.9,1.9,1.9C84,62.8,83.1,63.6,82.1,63.6
		L82.1,63.6z"/>
	<path class="st0" d="M82.1,83.7c-1.1,0-1.9-0.9-1.9-1.9c0-1.1,0.9-1.9,1.9-1.9c1.1,0,1.9,0.9,1.9,1.9C84,82.9,83.1,83.7,82.1,83.7
		L82.1,83.7z"/>
	<path class="st0" d="M82.1,103.6c-1.1,0-1.9-0.9-1.9-1.9c0-1.1,0.9-1.9,1.9-1.9c1.1,0,1.9,0.9,1.9,1.9
		C84,102.8,83.1,103.6,82.1,103.6L82.1,103.6z"/>
	<path class="st0" d="M82.1,123.6c-1.1,0-1.9-0.9-1.9-1.9c0-1.1,0.9-1.9,1.9-1.9c1.1,0,1.9,0.9,1.9,1.9S83.1,123.6,82.1,123.6
		L82.1,123.6z"/>
	<path class="st0" d="M82.1,143.5c-1.1,0-1.9-0.9-1.9-1.9c0-1.1,0.9-1.9,1.9-1.9c1.1,0,1.9,0.9,1.9,1.9S83.1,143.5,82.1,143.5
		L82.1,143.5z"/>
	<path class="st0" d="M102.1,3.8c-1.1,0-1.9-0.9-1.9-1.9c0-1.1,0.9-1.9,1.9-1.9c1.1,0,1.9,0.9,1.9,1.9C104,3,103.1,3.8,102.1,3.8
		L102.1,3.8z"/>
	<path class="st0" d="M102.1,23.8c-1.1,0-1.9-0.9-1.9-1.9c0-1.1,0.9-1.9,1.9-1.9c1.1,0,1.9,0.9,1.9,1.9S103.1,23.8,102.1,23.8
		L102.1,23.8z"/>
	<path class="st0" d="M102.1,43.7c-1.1,0-1.9-0.9-1.9-1.9c0-1.1,0.9-1.9,1.9-1.9c1.1,0,1.9,0.9,1.9,1.9S103.1,43.7,102.1,43.7
		L102.1,43.7z"/>
	<path class="st0" d="M102.1,63.6c-1.1,0-1.9-0.9-1.9-1.9c0-1.1,0.9-1.9,1.9-1.9c1.1,0,1.9,0.9,1.9,1.9
		C104,62.8,103.1,63.6,102.1,63.6L102.1,63.6z"/>
	<path class="st0" d="M102.1,83.7c-1.1,0-1.9-0.9-1.9-1.9c0-1.1,0.9-1.9,1.9-1.9c1.1,0,1.9,0.9,1.9,1.9
		C104,82.9,103.1,83.7,102.1,83.7L102.1,83.7z"/>
	<path class="st0" d="M102.1,103.6c-1.1,0-1.9-0.9-1.9-1.9c0-1.1,0.9-1.9,1.9-1.9c1.1,0,1.9,0.9,1.9,1.9
		C104,102.8,103.1,103.6,102.1,103.6L102.1,103.6z"/>
	<path class="st0" d="M102.1,123.6c-1.1,0-1.9-0.9-1.9-1.9c0-1.1,0.9-1.9,1.9-1.9c1.1,0,1.9,0.9,1.9,1.9S103.1,123.6,102.1,123.6
		L102.1,123.6z"/>
	<path class="st0" d="M102.1,143.5c-1.1,0-1.9-0.9-1.9-1.9c0-1.1,0.9-1.9,1.9-1.9c1.1,0,1.9,0.9,1.9,1.9S103.1,143.5,102.1,143.5
		L102.1,143.5z"/>
	<path class="st0" d="M122.1,3.8c-1.1,0-1.9-0.9-1.9-1.9c0-1.1,0.9-1.9,1.9-1.9c1.1,0,1.9,0.9,1.9,1.9C124,3,123.1,3.8,122.1,3.8
		L122.1,3.8z"/>
	<path class="st0" d="M122.1,23.8c-1.1,0-1.9-0.9-1.9-1.9c0-1.1,0.9-1.9,1.9-1.9c1.1,0,1.9,0.9,1.9,1.9S123.1,23.8,122.1,23.8
		L122.1,23.8z"/>
	<path class="st0" d="M122.1,43.7c-1.1,0-1.9-0.9-1.9-1.9c0-1.1,0.9-1.9,1.9-1.9c1.1,0,1.9,0.9,1.9,1.9S123.1,43.7,122.1,43.7
		L122.1,43.7z"/>
	<path class="st0" d="M122.1,63.6c-1.1,0-1.9-0.9-1.9-1.9c0-1.1,0.9-1.9,1.9-1.9c1.1,0,1.9,0.9,1.9,1.9
		C124,62.8,123.1,63.6,122.1,63.6L122.1,63.6z"/>
	<path class="st0" d="M122.1,83.7c-1.1,0-1.9-0.9-1.9-1.9c0-1.1,0.9-1.9,1.9-1.9c1.1,0,1.9,0.9,1.9,1.9
		C124,82.9,123.1,83.7,122.1,83.7L122.1,83.7z"/>
	<path class="st0" d="M122.1,103.6c-1.1,0-1.9-0.9-1.9-1.9c0-1.1,0.9-1.9,1.9-1.9c1.1,0,1.9,0.9,1.9,1.9
		C124,102.8,123.1,103.6,122.1,103.6L122.1,103.6z"/>
	<path class="st0" d="M122.1,123.6c-1.1,0-1.9-0.9-1.9-1.9c0-1.1,0.9-1.9,1.9-1.9c1.1,0,1.9,0.9,1.9,1.9S123.1,123.6,122.1,123.6
		L122.1,123.6z"/>
	<path class="st0" d="M122.1,143.5c-1.1,0-1.9-0.9-1.9-1.9c0-1.1,0.9-1.9,1.9-1.9c1.1,0,1.9,0.9,1.9,1.9S123.1,143.5,122.1,143.5
		L122.1,143.5z"/>
	<path class="st0" d="M142.1,3.8c-1.1,0-1.9-0.9-1.9-1.9c0-1.1,0.9-1.9,1.9-1.9c1.1,0,1.9,0.9,1.9,1.9C144,3,143.1,3.8,142.1,3.8
		L142.1,3.8z"/>
	<path class="st0" d="M142.1,23.8c-1.1,0-1.9-0.9-1.9-1.9c0-1.1,0.9-1.9,1.9-1.9c1.1,0,1.9,0.9,1.9,1.9S143.1,23.8,142.1,23.8
		L142.1,23.8z"/>
	<path class="st0" d="M142.1,43.7c-1.1,0-1.9-0.9-1.9-1.9c0-1.1,0.9-1.9,1.9-1.9c1.1,0,1.9,0.9,1.9,1.9S143.1,43.7,142.1,43.7
		L142.1,43.7z"/>
	<path class="st0" d="M142.1,63.6c-1.1,0-1.9-0.9-1.9-1.9c0-1.1,0.9-1.9,1.9-1.9c1.1,0,1.9,0.9,1.9,1.9
		C144,62.8,143.1,63.6,142.1,63.6L142.1,63.6z"/>
	<path class="st0" d="M142.1,83.7c-1.1,0-1.9-0.9-1.9-1.9c0-1.1,0.9-1.9,1.9-1.9c1.1,0,1.9,0.9,1.9,1.9
		C144,82.9,143.1,83.7,142.1,83.7L142.1,83.7z"/>
	<path class="st0" d="M142.1,103.6c-1.1,0-1.9-0.9-1.9-1.9c0-1.1,0.9-1.9,1.9-1.9c1.1,0,1.9,0.9,1.9,1.9
		C144,102.8,143.1,103.6,142.1,103.6L142.1,103.6z"/>
	<path class="st0" d="M142.1,123.6c-1.1,0-1.9-0.9-1.9-1.9c0-1.1,0.9-1.9,1.9-1.9c1.1,0,1.9,0.9,1.9,1.9S143.1,123.6,142.1,123.6
		L142.1,123.6z"/>
	<path class="st0" d="M142.1,143.5c-1.1,0-1.9-0.9-1.9-1.9c0-1.1,0.9-1.9,1.9-1.9c1.1,0,1.9,0.9,1.9,1.9S143.1,143.5,142.1,143.5
		L142.1,143.5z"/>
</g>
</svg>
