<?xml version="1.0" encoding="utf-8"?>
<!-- Generator: Adobe Illustrator 22.1.0, SVG Export Plug-In . SVG Version: 6.00 Build 0)  -->
<svg version="1.1" id="Layer_1" xmlns="http://www.w3.org/2000/svg" xmlns:xlink="http://www.w3.org/1999/xlink" x="0px" y="0px"
	 viewBox="0 0 71.7 37.1" style="enable-background:new 0 0 71.7 37.1;" xml:space="preserve">
<style type="text/css">
	.st0{fill-rule:evenodd;clip-rule:evenodd;fill:#221F1F;}
	.st1{fill-rule:evenodd;clip-rule:evenodd;fill:#A90533;}
</style>
<g>
	<polygon class="st0" points="38.3,7.4 38.3,0 46.2,0 46.2,7.4 38.3,7.4 	"/>
	<polygon class="st0" points="51.1,37.1 51.1,11.8 59,11.8 59,37.1 51.1,37.1 	"/>
	<polygon class="st0" points="0,0 7.8,0 7.8,37.1 0,37.1 0,0 	"/>
	<polygon class="st0" points="25.6,37.1 25.6,0 33.4,0 33.4,37.1 25.6,37.1 	"/>
	<polygon class="st0" points="12.8,25.4 12.8,0 20.6,0 20.6,25.4 12.8,25.4 	"/>
	<polygon class="st0" points="51.1,7.4 51.1,0 71.7,0 71.7,7.4 51.1,7.4 	"/>
	<polygon class="st1" points="38.4,37.1 38.4,11.7 46.2,11.7 46.2,37.1 38.4,37.1 	"/>
</g>
</svg>
