<?xml version="1.0" encoding="utf-8"?>
<!-- Generator: Adobe Illustrator 22.1.0, SVG Export Plug-In . SVG Version: 6.00 Build 0)  -->
<svg version="1.1" id="Layer_1" xmlns="http://www.w3.org/2000/svg" xmlns:xlink="http://www.w3.org/1999/xlink" x="0px" y="0px"
	 viewBox="0 0 87.2 69.4" style="enable-background:new 0 0 87.2 69.4;" xml:space="preserve">
<g>
	<path d="M77.5,69.4c-0.4,0-0.8-0.1-1.1-0.4c-0.7-0.6-0.7-1.6-0.1-2.3c1.1-1.5,2-3.1,2.9-4.7l0.2-0.3L79,61.5
		c-10.3-6.6-22.9-10.3-35.4-10.3c-12.5,0-25.1,3.6-35.4,10.3l-0.3,0.2L8.1,62c0.8,1.4,1.5,2.7,2.3,3.8l0.1,0.2h59.1
		c0.5,0,0.9,0.2,1.2,0.5c0.3,0.3,0.5,0.7,0.4,1.1c0,0.9-0.7,1.6-1.6,1.6h-60c-0.5,0-1-0.3-1.3-0.7C2.9,60.7,0,52.1,0,43.6
		C0,19.6,19.6,0,43.6,0s43.6,19.6,43.6,43.6c0,8.5-2.9,17.1-8.3,24.9c-0.1,0.2-0.2,0.3-0.2,0.4C78.3,69.2,77.9,69.4,77.5,69.4z
		 M55.6,12c0.2,0,0.4,0,0.5,0.1c0.4,0.1,0.7,0.4,0.9,0.8c0.2,0.4,0.2,0.8,0.1,1.2l-9.4,28l0.3,0.2c2.2,1.3,3.6,3.5,4,6l0,0.3l0.3,0
		c10,1.3,19.7,4.7,27.9,9.9l0.4,0.3l0.2-0.4c1.8-4.2,2.8-8.5,3-12.7l0-0.4h-6.4c-0.9,0-1.6-0.7-1.7-1.5c0-0.4,0.1-0.8,0.4-1.2
		c0.3-0.3,0.7-0.5,1.1-0.5H84l0-0.4c-0.5-9.3-4.1-18.2-10.4-25.1l-0.3-0.3l-5.5,5.5c-0.3,0.3-0.7,0.5-1.2,0.5
		c-0.4,0-0.9-0.2-1.2-0.5c-0.6-0.6-0.6-1.7,0.1-2.3l5.5-5.5l-0.3-0.3C63.8,7.4,54.9,3.7,45.6,3.3l-0.4,0v6.4c0,0.9-0.7,1.6-1.6,1.6
		c-0.4,0-0.8-0.2-1.1-0.5C42.2,10.4,42,10,42,9.6V3.2l-0.4,0c-9.3,0.5-18.2,4.2-25.1,10.4l-0.3,0.3l5.5,5.5c0.3,0.3,0.5,0.8,0.5,1.2
		c0,0.4-0.2,0.8-0.5,1.1c-0.3,0.3-0.7,0.5-1.1,0.5c-0.4,0-0.8-0.2-1.1-0.5l-5.6-5.6l-0.3,0.3C7.4,23.4,3.7,32.3,3.3,41.6l0,0.4h6.4
		c0.5,0,0.9,0.2,1.2,0.5c0.3,0.3,0.5,0.7,0.4,1.1c0,0.9-0.7,1.6-1.6,1.6H3.2l0,0.4c0.2,4.2,1.3,8.5,3.1,12.7l0.2,0.4l0.4-0.3
		c8.2-5.2,17.8-8.6,27.9-9.9l0.3,0l0-0.3c0.7-4.1,4.3-7.3,8.5-7.3c0.3,0,0.6,0,0.8,0l0.3,0l9.3-28c0.2-0.6,0.7-1,1.4-1.1
		C55.5,12,55.6,12,55.6,12z M43.6,48c1.6,0,3.1,0.1,4.6,0.2l0.6,0l-0.2-0.6c-0.8-2.1-2.8-3.4-5-3.4s-4.2,1.3-5,3.4l-0.2,0.6l0.6,0
		C40.5,48.1,42,48,43.6,48z"/>
</g>
</svg>
