<?xml version="1.0" encoding="utf-8"?>
<!-- Generator: Adobe Illustrator 22.0.1, SVG Export Plug-In . SVG Version: 6.00 Build 0)  -->
<svg version="1.1" id="Layer_3" xmlns="http://www.w3.org/2000/svg" xmlns:xlink="http://www.w3.org/1999/xlink" x="0px" y="0px"
	 viewBox="0 0 375.8 183" style="enable-background:new 0 0 375.8 183;" xml:space="preserve">
<style type="text/css">
	.st0{fill:#6E7585;}
</style>
<path class="st0" d="M112,50.6c7.7,0,12.2-3.6,14-9.1l-2.2-0.8c-2,4.6-5.6,7-11.3,7c-8.9,0-14.2-6.2-14.2-15.8v-0.7h28.1
	c0.1-0.5,0.1-1.6,0.1-2.3c0-7.8-4.9-15.8-15.1-15.8c-10,0-16.6,7.6-16.6,18.7S101.4,50.6,112,50.6z M111.3,16.1
	c5.7,0,11.5,3.8,11.8,12.5H98.4C99.5,21,104.3,16.1,111.3,16.1L111.3,16.1z M268.2,6.1c1.7,0,3-1.4,3-3s-1.4-3-3-3s-3,1.4-3,3
	S266.5,6.1,268.2,6.1L268.2,6.1z M102.1,107.9c0,5.3,4.1,8.9,10.6,8.9c5-0.1,9.8-2.1,13.4-5.7c0.4,2.9,3,4.9,5.9,4.7
	c3.3,0,5.5-1.8,6.2-5.5l-1.6-0.7c-0.6,2.2-1.6,3.4-3.5,3.4c-2.5,0-3.6-1.3-3.6-5.8V91.8c0-7.1-2.9-12.3-12.3-12.3
	c-5.5,0-8.7,1.6-10.9,3.6c-1.9,1.8-2.5,3.4-2.5,4.4c0,1.1,0.8,2,1.9,2.1c0.1,0,0.1,0,0.2,0c1.7,0,1.9-1.6,2.9-3.5
	c1.2-2.1,3-3.8,8.1-3.8c5.7,0,9.1,3,9.1,9.1v4C110.6,95.5,102.1,99.9,102.1,107.9z M125.8,108.2c-3.3,3.5-7.8,5.6-12.6,5.7
	c-4.2,0-7.6-2-7.6-6c0-5,4.3-9.7,20.2-10V108.2z M176.1,55.8c0,5.5,5.2,10,15.6,10c11,0,16.7-4.6,16.7-10.7c0-6.7-7.9-8.5-15.6-9.1
	c-5.7-0.5-11-0.7-11-3.5c0-1.4,1.4-2.8,7.7-2.8h2.2c8.5,0,14-5.8,14-13.3c0-3.3-1.2-6.5-3.5-8.9c0.5-6.4,6.2-3.3,6.2-6.6
	c0.1-1.1-0.7-2.1-1.8-2.1c-0.1,0-0.3,0-0.4,0c-3.2,0-5.7,3.3-6.2,6.8c-2.3-1.5-5-2.3-7.8-2.3c-8.6,0-14.2,5.8-14.2,13.1
	c-0.1,4.8,2.4,9.2,6.6,11.5c-3.8,0.4-5.9,2.3-5.9,5c0,1.9,1.2,3.8,4.4,4.8C179.1,48.7,176.1,52,176.1,55.8L176.1,55.8z M181.4,26.5
	c0.2-5.9,5.1-10.4,11-10.2c5.6,0.2,10.1,4.8,10.2,10.4c0,5.5-4,10.3-10.7,10.3c-5.8,0.1-10.5-4.6-10.6-10.3
	C181.4,26.6,181.4,26.6,181.4,26.5z M187.2,48.5l7.1,0.6c8.3,0.7,10.8,3.1,10.8,6.2c0,4.3-4.4,7.6-13.2,7.6
	c-7.9,0-12.5-3.2-12.5-7.4C179.4,52.4,182.1,49.4,187.2,48.5z M201.4,79.5c-9.9,0-16.6,7.7-16.6,18.9c0,11,5.9,18.4,15.7,18.4
	c5.4,0,9.9-2.5,12.2-6.8l0.1,6.1l0.2,0.1l11.2-1.1v-1.9h-8v-51l-1.9-0.6c-3.1,4-6.9,6.1-11.3,6v1.6c3.3,0.7,6.7,0.1,9.6-1.6v17.3
	C210.1,81.4,205.9,79.3,201.4,79.5z M212.7,106.1c-1.8,5-6.2,7.9-11.6,7.9c-8,0-12.7-6.1-12.7-15.7c0-9.4,5.3-15.9,13.5-15.9
	c4.6-0.1,8.8,2.4,10.9,6.4L212.7,106.1z M138.2,18.4v28l-8.4,0.7v2h20v-2l-8-0.7V24.9c2.9-4.9,8-8.6,13.6-8.6s8.7,3.7,8.7,9.4v20.9
	l-8.2,0.7v2h19.3v-2l-7.6-0.7V25.3c0-6.4-3.1-12-11.5-12c-5.8,0.1-11.2,3.1-14.4,8.1v-7.6l-2-0.6c-2.9,3.2-7.1,4.8-11.3,4.6v1.6
	C131.8,19.9,135.4,19.8,138.2,18.4L138.2,18.4z M217.4,18.7v20c0,6.4,3,12,11.6,12c5.8-0.1,11.1-3,14.2-7.9l0.1,7.1l0.2,0.1l11-1.1
	v-1.9h-7.8V13.7l-2-0.6c-3,3.1-7.1,4.8-11.4,4.6v1.6c3.3,0.6,6.9,0.6,9.8-0.9v21c-3,4.7-8.1,8.2-13.6,8.2s-8.6-3.7-8.6-9.3V13.7
	l-1.9-0.6c-3,3.2-6,4.7-10.4,4.6v1.6C211.5,20,214.6,19.8,217.4,18.7L217.4,18.7z M177.5,146.1l-2-0.6c-3,3.1-7.1,4.8-11.4,4.6v1.6
	c3.3,0.6,6.9,0.6,9.8-0.9v21c-3,4.7-8.1,8.2-13.6,8.2s-8.6-3.7-8.6-9.3V146l-1.9-0.5c-3,3.2-6,4.7-10.4,4.6v1.6
	c2.9,0.7,6,0.5,8.8-0.6v20c0,6.4,3,12,11.6,12c5.8-0.1,11.1-3,14.2-7.9l0.1,7.1l0.2,0.1l11-1.1v-1.9h-7.8L177.5,146.1z M241,79.5
	c-10.4,0-17.1,7.5-17.1,18.6s6.7,18.7,17.1,18.7s17.2-7.6,17.2-18.7S251.3,79.5,241,79.5z M241,114c-8.3,0-13.6-6.4-13.6-15.9
	s5.3-15.8,13.6-15.8s13.7,6.3,13.7,15.8S249.4,113.9,241,114L241,114z M238.4,145.6c-10,0-16.6,7.6-16.6,18.7s6.7,18.7,17.2,18.7
	c7.7,0,12.2-3.6,14-9.1l-2.2-0.8c-2,4.6-5.6,7-11.3,7c-8.9,0-14.2-6.2-14.2-15.8v-0.7h28.1c0.1-0.5,0.1-1.6,0.1-2.3
	C253.5,153.6,248.7,145.6,238.4,145.6L238.4,145.6z M225.6,160.9c1.1-7.6,5.9-12.5,12.8-12.5c5.7,0,11.5,3.8,11.8,12.5H225.6z
	 M258.1,47.2v2h20.2v-2l-8.2-0.7V13.7l-2-0.6c-3,3.1-7.1,4.8-11.4,4.6v1.6c3.3,0.7,6.7,0.4,9.8-0.9v28.2L258.1,47.2z M319.1,91.2
	c0-6.5-2.7-11.7-10.2-11.7c-5.7,0-10.2,3-13.2,7.7c-1-4.3-3.8-7.7-9.7-7.7c-5.2,0-10,3.3-13,7.8v-7.4l-2-0.6
	c-2.9,3.1-7.1,4.8-11.3,4.6v1.5c3.3,0.7,6.7,0.4,9.8-0.9v28.1l-8.4,0.7v2.1h18.5v-2l-6.5-0.7v-22c2.7-4.7,7.1-8.1,12-8.1
	c5.7,0,7.5,3.8,7.5,9.6v20.5l-6.9,0.7v2h17.5v-2l-7-0.7v-21c0-0.5,0-0.9-0.1-1.4c3-5,7.1-7.8,11.9-7.8c5.7,0,7.6,3.9,7.6,9.6v20.6
	l-6.5,0.7v2h17.8v-2l-7.7-0.8L319.1,91.2z M202.8,162.4c-4.6-1.1-10.4-2.7-10.4-7.7c0-3.3,2.4-6.3,8.5-6.3c5.5,0,8.3,2.4,10.8,6.9
	l2.3,4l1.8-0.4l-2.3-13.4h-1.9l-0.1,5.9c-2-3.2-5.5-5.7-11.1-5.7c-7.1,0-11.3,4-11.3,9.1c0,7.1,8.1,9.4,13,10.6
	c6.7,1.7,11.2,3.3,11.2,8.1c0,4.2-3.6,6.8-9.1,6.8c-5.7,0-9.2-2.8-12.7-8.5l-2.2-3.6l-1.8,0.4l2.4,13.8h2l-0.2-6.6
	c2.6,4.7,7.6,7.5,13,7.3c7.2,0,12-3.8,12-9.8C216.6,166.4,210.6,164.4,202.8,162.4z M319.3,46.5V25.3c0-6.4-3.1-12-11.5-12
	c-5.8,0.1-11.2,3.2-14.3,8.1v-7.6l-2-0.6c-2.9,3.2-7.1,4.8-11.3,4.6v1.6c3.4,0.6,7,0.6,9.8-0.9v28l-8.4,0.7v2h20v-2l-8.1-0.7V24.9
	c2.9-4.9,8-8.6,13.5-8.6c5.5,0,8.7,3.7,8.7,9.4v20.9l-8.2,0.7v2h19.4v-2L319.3,46.5z M74,113.2l-11-0.7V94.3h14.6l10.3,21.1h13v-2.2
	l-10.5-1.1l-8.8-17.9c8.3-0.4,13.2-6.4,13.2-14.1c0-7.9-5.5-13.6-14-13.6H49v2.2l10.3,0.8v43L49,113.2v2.2h25.1L74,113.2z M63,69.4
	h16.5c7,0,11.5,4.2,11.5,10.8s-3.8,11.2-11.3,11.2H63L63,69.4z M139,113.3v2.1h20v-2l-8.1-0.7V91c2.9-4.9,8-8.5,13.6-8.5
	s8.7,3.6,8.7,9.3v20.9l-8.2,0.7v2h19.3v-2.1l-7.5-0.7V91.4c0-6.5-3.1-12-11.5-12c-5.9,0.1-11.3,3.1-14.5,8.1v-7.6l-2-0.6
	c-2.9,3.2-6.7,4.6-11.3,4.6v1.5c3.4,0.6,7,0.6,9.8-0.9v28L139,113.3z M74,47l-11-0.7V29h16.8c8.8,0,13.9-6.2,13.9-14.6
	s-5.4-14-14.2-14H48.9v2.2l10.3,0.8v43l-10.3,0.7v2.2H74V47z M63,3.2h15.7c6.9,0,11.2,4.5,11.2,11.1s-3.7,11.8-10.6,11.8H63L63,3.2z
	 M94.5,135.7l10.4-0.8v-2.2H80.2v2.2l10.5,0.7v19.1H63.1v-19.1l10.5-0.7v-2.2H48.9v2.2l10.3,0.8v43l-10.3,0.7v2.2h24.7v-2.2
	l-10.5-0.7v-21.1h27.6v21.1l-10.5,0.7v2.2h24.6v-2.2l-10.4-0.7L94.5,135.7z M121.7,145.6c-10.4,0-17.1,7.6-17.1,18.7
	s6.7,18.7,17.1,18.7s17.2-7.6,17.2-18.7S132,145.6,121.7,145.6L121.7,145.6z M121.7,180.2c-8.3,0-13.6-6.4-13.6-15.9
	s5.3-15.9,13.6-15.9s13.7,6.4,13.7,15.9S130,180.2,121.7,180.2L121.7,180.2z"/>
<polygon class="st0" points="0,181.6 3.8,181.6 3.8,90.8 3.8,0.2 0,0.2 0,90.9 "/>
<polygon class="st0" points="372,181.6 375.8,181.6 375.8,90.8 375.8,0.2 372,0.2 372,90.9 "/>
</svg>
