<?xml version="1.0" encoding="utf-8"?>
<!-- Generator: Adobe Illustrator 22.0.1, SVG Export Plug-In . SVG Version: 6.00 Build 0)  -->
<svg version="1.1" id="layer" xmlns="http://www.w3.org/2000/svg" xmlns:xlink="http://www.w3.org/1999/xlink" x="0px" y="0px"
	 viewBox="0 0 600 165.8" style="enable-background:new 0 0 600 165.8;" xml:space="preserve">
<style type="text/css">
	.st0{fill:#6E7485;}
</style>
<g>
	<path class="st0" d="M593.2,46v2.2c0,0.1,0,0.2,0.1,0.2c0,0.1,0.1,0.1,0.2,0.1v0.2h-2.1v-0.2c0.1,0,0.2-0.1,0.2-0.1
		c0-0.1,0.1-0.1,0.1-0.2v-5.6c0-0.1,0-0.2-0.1-0.2c0-0.1-0.1-0.1-0.2-0.1v-0.2h4.2c0.5,0,0.9,0,1.2,0.1s0.6,0.2,0.8,0.3
		c0.3,0.2,0.5,0.4,0.6,0.7c0.1,0.3,0.2,0.6,0.2,0.9c0,1.1-0.6,1.7-1.8,1.9l1.3,1.8c0.2,0.3,0.4,0.5,0.5,0.6s0.2,0.1,0.4,0.2v0.2
		h-2.4v-0.2c0.2,0,0.3-0.1,0.3-0.2s-0.1-0.2-0.2-0.4l-1.4-1.9L593.2,46L593.2,46z M593.2,44.9h2.3c0.3,0,0.6,0,0.7,0
		c0.1,0,0.3-0.1,0.4-0.1c0.3-0.1,0.4-0.4,0.4-0.7c0-0.3-0.1-0.6-0.4-0.7c-0.1-0.1-0.2-0.1-0.4-0.1c-0.1,0-0.4,0-0.7,0h-2.3V44.9z"/>
	<path class="st0" d="M595,50.2c-2.8,0-5-2.2-5-4.9c0-2.7,2.3-4.9,5-4.9c2.8,0,5,2.2,5,4.9C600,48.1,597.8,50.2,595,50.2 M595,40.7
		c-2.7,0-4.8,2.1-4.8,4.7s2.2,4.7,4.8,4.7c2.7,0,4.8-2.1,4.8-4.7S597.7,40.7,595,40.7"/>
</g>
<g>
	<path class="st0" d="M573.6,23.2h13.9V10.7h-48.8v12.5h15.9v44.4l-36-56.9h-49.7v12.5h15.7v51.2h-1.9l0,0h-16.1l-27.8-63.7h-35.9
		l-27,63.7h-13.2l0,0h-5.6V23.2h15.8V10.7h-52.5l-19,43.6l-20.3-43.6h-49.7v0.2l0,0v16.5h-12.9l-29.3,35v8.2h8.5v-5.2l24.9-29.5
		h17.6V23.2h5.5v51.2H230v12.5h45.5V74.4h-10.9V25.1l27.8,61.8h14.9l27.1-62.1v49.6h-10.7v12.5H373l0,0h36.4V74.4h-13.3l6.2-14.5
		h33.3l6.5,14.5h-12.8v12.5h39.6h10.8h39.9V74.4h-15.7V29.8l37.3,57.1h32.3V23.2H573.6z M406.5,50l12.2-29.6L431.5,50H406.5z"/>
	<polygon class="st0" points="523.8,90.9 483.5,90.9 483.5,90.9 429.3,90.9 440.7,99.4 481.5,99.4 481.6,99.4 532.4,99.4 
		532.4,81.6 523.8,74.4 	"/>
	<polygon class="st0" points="550.5,27.3 534.8,27.3 534.8,20.6 523,10.7 550.5,53.6 	"/>
	<polygon class="st0" points="516.6,70.4 516.6,56.6 507.9,43.5 507.9,70.4 	"/>
	<polygon class="st0" points="591.5,27.3 577.5,27.3 577.5,90.9 544.2,90.9 556.1,99.4 586.1,99.4 586.1,36.7 600,36.7 600,19.3 
		591.5,10.7 	"/>
	<polygon class="st0" points="480.9,27.3 468.9,27.3 480.9,36.1 	"/>
	<polygon class="st0" points="306.1,33.2 301.8,24.4 285.8,10.7 301.4,43.7 	"/>
	<polygon class="st0" points="361.1,70.4 370,70.4 370,35.8 385.6,35.8 385.6,26 377,10.7 377,27.3 361.1,27.3 	"/>
	<polygon class="st0" points="268.5,70.4 277.4,70.4 277.4,62.8 268.5,43.9 	"/>
	<polygon class="st0" points="279.6,74.4 279.6,90.9 230,90.9 242.9,99.4 287.7,99.4 287.7,86.8 283.6,77.4 	"/>
	<polygon class="st0" points="330.3,67.4 330.3,44.1 310,90.9 294.8,90.9 306.4,99.4 315.7,99.4 319.6,90.9 319.6,70.4 328.4,70.4 	
		"/>
	<polygon class="st0" points="175.7,40.2 179.8,35.5 173.2,27.6 180.3,27.6 180.3,18.5 171,10.8 171,27.4 164.2,27.4 	"/>
	<polygon class="st0" points="207.6,91 146.9,91 158.5,99.3 216.2,99.3 216.2,81.7 207.6,74.5 	"/>
</g>
<g>
	<path class="st0" d="M121.6,27.4c0-0.1,0-0.2,0-0.3c0-0.4-0.4-2.7-0.6-3.4c0-0.1-0.1-0.2-0.1-0.4h9.3l32,37.7v13.5H147V87h56.7
		V74.5h-18.5V60.6l31.6-37.3h10.9V10.8h-43.3v12.5h10.9L176,47.1l-19.6-23.8h10.7V10.8h-54.4c-4-4-8.1-7.2-8.1-7.2
		c0.8,0.7,1.6,1.4,2.3,2.1c0.7,0.7,1.3,1.5,1.9,2.3s1.2,1.6,1.6,2.4c0.5,0.8,0.8,1.7,1.2,2.5c0.4,0.9,0.7,1.7,1,2.6
		c0.3,0.9,0.5,1.8,0.8,2.8c0.2,1,0.3,2.1,0.4,3.1c0.1,1,0.2,2.1,0.2,3.2c0,1.6-0.1,3.2-0.4,4.6c-0.2,1.5-0.5,2.8-0.9,4.1
		c-0.5,1.4-1,2.7-1.6,3.9c-0.6,1.2-1.3,2.4-2.1,3.5s-1.7,2.1-2.7,3.1c-1,0.9-2,1.8-3.1,2.6c-1.2,0.8-2.4,1.4-3.6,1.9
		c-1.3,0.5-2.6,0.9-4,1.3c0.2,0.1,2.7,1.4,3.6,4.4s3.4,11.2,3.4,11.2c0.6,2,2.3,2.7,3.2,2.7h6.6c-0.1-0.3-0.5-3.1-4.3-6.7
		c-1.9-1.9-4.5-4.3-4.5-4.3c1.5-0.8,3-1.6,4.4-2.5s2.7-1.8,3.8-2.6c1.2-0.9,2.2-1.9,3.1-2.9c0.9-1,1.8-2,2.5-3.2
		c0.8-1.1,1.4-2.3,2-3.4c0.6-1.2,1-2.4,1.3-3.7c0.4-1.2,0.7-2.5,0.9-3.9c0.1-0.9,0.2-1.8,0.3-2.8l4.9,3.9h8.8l-7.5-8.4H121.6z"/>
</g>
<g>
	<polygon class="st0" points="477.9,70.4 459.6,27.6 442.7,10.6 468.9,70.4 	"/>
	<polygon class="st0" points="412.3,46.1 422,46.1 423.6,41.9 418.6,30.1 	"/>
	<polygon class="st0" points="413.2,90.9 362.7,90.9 362.8,90.9 323.6,90.9 334.6,99.4 385.6,99.4 385.6,99.4 421.6,99.4 
		421.6,80.7 413.2,74.4 	"/>
	<polygon class="st0" points="433,63.7 404.6,63.7 402,70.4 435.6,70.4 	"/>
</g>
<g>
	<path class="st0" d="M77.4,23.1c-0.2-0.4-0.5-0.9-0.8-1.2c-0.3-0.4-0.7-0.7-1.2-1s-1.2-0.7-1.8-1c-0.6-0.3-1.8-0.9-5.7-1H43.3v14.2
		h8.8v-4.4l25.4,0.2c0,0,0.5-1.3,0.5-2.2c0-0.7,0-1.3-0.1-2.1C77.8,24.1,77.6,23.5,77.4,23.1"/>
	<path class="st0" d="M62.1,54.8c-0.3-0.2-1.8-1.3-4.3-1.3H43.3v14.2h6.4v-4.3H67C66.9,63.5,64.5,56.8,62.1,54.8"/>
</g>
<g>
	<polygon class="st0" points="59,91 0.2,91 10.5,99.2 67.9,99.2 67.9,79 59,72.3 	"/>
</g>
<g>
	<path class="st0" d="M118.8,91H92.1h-1.5c-0.2,0-1.4,0-1.6,0c-0.7,0-4.1-0.2-7.4-2.2c0,0,6.9,6.7,9.2,8.2
		c4.3,2.7,10.6,2.4,13.2,2.4h23.8v-19l-8.9-8.1V91H118.8z"/>
</g>
<g>
	<polygon class="st0" points="0.2,18.9 12.2,29.2 12.2,18.9 	"/>
</g>
<g>
	<path class="st0" d="M83.9,85.7c0.6,0.2,1.1,0.3,1.7,0.5c0.6,0.1,1.3,0.2,1.9,0.2c0.7,0,1.4,0.1,2.1,0.1h25V72.3l-9.7,0.3
		c-0.4,0-0.8,0-1.1-0.1c-1.9-0.2-4.1-1.7-4.8-3.5c-0.1-0.4-0.3-0.8-0.4-1.2l-4.4-13c-1.9-4.4-4.9-4-5.1-4h-3.5l0.1-3.3
		c1.8,0,3.5-0.1,5.1-0.4s3.2-0.6,4.6-1.2c1.4-0.5,2.7-1.2,4-2s2.4-1.7,3.4-2.8c1.1-1,2-2.2,2.8-3.4c0.8-1.2,1.4-2.6,2-3.9
		c0.5-1.4,0.9-2.8,1.2-4.4s0.4-3.2,0.4-4.9c0-1.2-0.1-2.3-0.2-3.4c-0.1-1-0.3-2.1-0.5-3.1s-0.5-2-0.9-3c-0.3-0.9-0.8-1.8-1.2-2.7
		c-0.5-0.9-1-1.8-1.5-2.6s-1.1-1.5-1.7-2.2c-0.7-0.7-1.4-1.3-2.2-1.9c-0.8-0.6-1.6-1.2-2.4-1.7c-0.6-0.3-1.3-0.6-2-0.9
		c-0.7-0.3-1.4-0.5-2.2-0.8C93.6,2,88.3,0.2,68.6,0H0v14.2h16v58H0v14.2h55V72.2H39.1V48.9l19.2,0.3c0.6,0,1.3,0.1,1.9,0.2
		c0.7,0.1,1.3,0.3,1.8,0.5c0.6,0.2,1.2,0.4,1.7,0.6c0.5,0.3,1,0.6,1.4,1c0.5,0.3,0.9,0.8,1.3,1.3s0.8,1.1,1.2,1.8
		c0.4,0.6,0.8,1.3,1.2,2c0.4,0.7,0.8,1.4,1.1,2.1l8,20.3c0.3,0.7,0.6,1.3,1,1.9c0.3,0.6,0.7,1.1,1,1.6c0.4,0.5,0.8,1,1.2,1.3
		c0.4,0.4,0.9,0.8,1.3,1.1C83,85.3,83.3,85.4,83.9,85.7 M81.8,31.6c-0.3,0.8-0.7,1.5-1,2.1c-0.4,0.6-0.8,1.1-1.4,1.5
		c-0.5,0.4-1.2,0.8-2,1.2c-0.8,0.3-1.7,0.7-2.7,0.9c-1.1,0.3-1.5,0.3-2.7,0.4c-1.4,0.1-2.7,0-4.7,0H39.1V14.2l28.3,0.3
		c1.3,0,2.5,0.1,3.7,0.2c1.2,0.1,2.2,0.3,3.1,0.6s1.8,0.6,2.6,0.9c0.8,0.3,1.5,0.7,2.1,1.2c0.6,0.5,1.2,1.1,1.6,1.7
		c0.5,0.6,0.8,1.2,1.2,1.9c0.3,0.8,0.5,1.6,0.7,2.4c0.2,0.9,0.2,1.8,0.2,2.7c0,1.1-0.1,2.1-0.2,3C82.3,30,82.1,30.9,81.8,31.6"/>
	<path class="st0" d="M15.8,120.8v6c0,0.3,0.1,0.5,0.2,0.6c0.1,0.1,0.3,0.3,0.7,0.3v0.4h-5.6v-0.4c0.3-0.1,0.5-0.2,0.7-0.3
		c0.1-0.1,0.2-0.3,0.2-0.6v-15.2c0-0.3-0.1-0.5-0.2-0.6c-0.1-0.1-0.3-0.3-0.7-0.3v-0.4h11.2c1.4,0,2.5,0.1,3.3,0.2
		c0.8,0.2,1.5,0.4,2.1,0.8c0.7,0.5,1.2,1.1,1.6,1.9c0.3,0.8,0.5,1.6,0.5,2.4c0,2.9-1.6,4.6-4.9,5.1l3.5,5c0.6,0.9,1.1,1.4,1.3,1.7
		c0.3,0.2,0.6,0.4,1,0.4v0.4h-6.5v-0.4c0.4-0.1,0.7-0.2,0.7-0.5c0-0.2-0.2-0.5-0.6-1.1l-3.6-5.3h-4.9V120.8z M15.8,117.8h6.1
		c0.9,0,1.5,0,1.9-0.1s0.7-0.2,1-0.3c0.7-0.4,1-1,1-1.9s-0.3-1.6-1-2c-0.3-0.2-0.7-0.3-1-0.3c-0.4,0-1-0.1-1.9-0.1h-6.1V117.8z"/>
	<path class="st0" d="M43.4,121.6v5.1c0,0.3,0.1,0.5,0.2,0.6s0.3,0.3,0.7,0.4v0.4h-5.2v-0.4c0.3-0.1,0.5-0.2,0.7-0.4
		c0.1-0.1,0.2-0.4,0.2-0.6v-5.1l-4.4-6c-0.5-0.7-0.9-1.1-1.2-1.4c-0.3-0.3-0.6-0.4-1-0.5v-0.3H40v0.4c-0.6,0.1-0.9,0.4-0.9,0.8
		c0,0.2,0.2,0.6,0.6,1.2l2.1,3l2.1-3c0.4-0.6,0.6-1,0.6-1.2c0-0.4-0.3-0.6-0.8-0.8v-0.4H50v0.4c-0.4,0.1-0.8,0.3-1,0.5
		c-0.3,0.3-0.7,0.7-1.2,1.4L43.4,121.6z"/>
	<path class="st0" d="M62.4,128.1l-5.4-9.7v8.3c0,0.3,0.1,0.5,0.2,0.6s0.3,0.3,0.7,0.4v0.4H53v-0.4c0.3-0.1,0.5-0.2,0.6-0.3
		c0.1-0.1,0.2-0.4,0.2-0.6v-12.1c0-0.3-0.1-0.5-0.2-0.6s-0.3-0.3-0.7-0.3v-0.4h6.2v0.4c-0.4,0.1-0.6,0.4-0.6,0.8s0.1,0.8,0.4,1.3
		l3.7,6.7l3.7-6.6c0.4-0.7,0.6-1.2,0.6-1.5c0-0.4-0.2-0.6-0.6-0.7v-0.4h6.1v0.4c-0.3,0.1-0.5,0.2-0.7,0.3c-0.1,0.1-0.2,0.3-0.2,0.6
		v12.1c0,0.3,0.1,0.5,0.2,0.6c0.1,0.2,0.3,0.3,0.7,0.4v0.4h-5.2v-0.4c0.3-0.1,0.5-0.2,0.7-0.3c0.1-0.1,0.2-0.4,0.2-0.6v-8.5
		L62.4,128.1z"/>
	<path class="st0" d="M88.3,124.4h-6.8l-0.8,1.6c-0.2,0.4-0.3,0.7-0.3,0.9c0,0.4,0.3,0.7,0.8,0.8v0.4h-5.4v-0.4
		c0.3-0.1,0.6-0.2,0.7-0.3c0.2-0.1,0.4-0.4,0.6-0.9l5.4-10.9c0.2-0.4,0.3-0.8,0.3-1.1c0-0.4-0.2-0.6-0.7-0.8v-0.3h5.7v0.4
		c-0.5,0.2-0.7,0.5-0.7,0.9c0,0.3,0.1,0.6,0.3,1.1l5.6,10.6c0.3,0.6,0.5,0.9,0.7,1.1s0.4,0.3,0.8,0.4v0.4h-6v-0.4
		c0.6-0.1,0.9-0.4,0.9-0.8c0-0.3-0.1-0.6-0.3-1L88.3,124.4z M87.2,122.4l-2.4-4.7l-2.3,4.7H87.2z"/>
	<path class="st0" d="M101.9,118.4v8.4c0,0.3,0.1,0.5,0.2,0.6s0.3,0.3,0.7,0.4v0.4h-4.9v-0.4c0.3-0.1,0.5-0.2,0.6-0.3
		c0.1-0.2,0.2-0.4,0.2-0.6v-12.1c0-0.3-0.1-0.5-0.2-0.6s-0.3-0.3-0.7-0.4v-0.4h5.7v0.4c-0.4,0.1-0.6,0.3-0.6,0.5s0.1,0.5,0.4,0.7
		l7.9,7.8v-8.1c0-0.3-0.1-0.5-0.2-0.6c-0.1-0.1-0.3-0.3-0.7-0.4v-0.3h4.9v0.4c-0.3,0.1-0.5,0.2-0.7,0.4c-0.1,0.1-0.2,0.4-0.2,0.6v12
		c0,0.3,0.1,0.5,0.2,0.6c0.1,0.1,0.3,0.3,0.7,0.4v0.4h-5.3v-0.4c0.4-0.1,0.6-0.2,0.6-0.5c0-0.1-0.1-0.2-0.2-0.4
		c-0.1-0.1-0.3-0.4-0.7-0.8L101.9,118.4z"/>
	<path class="st0" d="M144.1,120.3h-10.4v6.5c0,0.3,0.1,0.5,0.2,0.6c0.1,0.1,0.3,0.3,0.7,0.3v0.4H129v-0.4c0.3-0.1,0.5-0.2,0.7-0.3
		c0.1-0.1,0.2-0.3,0.2-0.6v-15.2c0-0.3-0.1-0.5-0.2-0.6c-0.1-0.1-0.3-0.3-0.7-0.3v-0.4h5.6v0.4c-0.3,0.1-0.5,0.2-0.7,0.3
		c-0.1,0.1-0.2,0.3-0.2,0.6v5.8h10.4v-5.8c0-0.3-0.1-0.5-0.2-0.6c-0.1-0.1-0.3-0.3-0.7-0.3v-0.4h5.6v0.4c-0.3,0.1-0.5,0.2-0.7,0.3
		c-0.1,0.1-0.2,0.3-0.2,0.6v15.2c0,0.3,0.1,0.5,0.2,0.6c0.1,0.1,0.3,0.3,0.7,0.3v0.4h-5.6v-0.4c0.3-0.1,0.5-0.2,0.7-0.3
		c0.1-0.1,0.2-0.3,0.2-0.6V120.3z"/>
	<path class="st0" d="M162.1,113c2.3,0,4.3,0.6,5.9,1.8c1.9,1.4,2.8,3.4,2.8,6c0,2.4-0.9,4.3-2.8,5.8c-1.5,1.2-3.5,1.8-5.8,1.8
		s-4.3-0.6-5.8-1.8c-1.9-1.4-2.8-3.4-2.8-5.9s0.9-4.5,2.8-5.9C157.9,113.7,159.8,113.1,162.1,113 M162.1,115.8
		c-1.5,0-2.8,0.5-3.7,1.5c-0.9,0.9-1.3,2.1-1.3,3.4c0,1.4,0.4,2.5,1.3,3.4c1,1,2.2,1.5,3.7,1.5s2.8-0.5,3.7-1.5
		c0.9-0.9,1.3-2,1.3-3.4s-0.4-2.6-1.3-3.5C164.9,116.3,163.7,115.9,162.1,115.8"/>
	<path class="st0" d="M189.2,114.7l-1.8,3.4l-0.3-0.2c0-0.3-0.1-0.5-0.3-0.7c-0.5-0.4-1.2-0.8-2.2-1.1c-1-0.3-2-0.4-3-0.4
		c-0.8,0-1.6,0.1-2.3,0.4c-0.9,0.3-1.4,0.8-1.4,1.5c0,0.4,0.2,0.7,0.7,0.9c0.5,0.2,1.3,0.3,2.6,0.4l2.1,0.2c1.8,0.1,3.2,0.5,4.1,1.1
		c0.5,0.3,1,0.7,1.3,1.3c0.4,0.7,0.6,1.4,0.6,2.2c0,1.5-0.7,2.7-2,3.6c-1.3,0.8-3,1.3-5.2,1.3s-4.4-0.5-6.4-1.4
		c-0.1-0.1-0.3-0.1-0.4-0.1c-0.2,0-0.3,0.1-0.5,0.3l-0.3-0.1l1.5-3.6l0.3,0.1v0.1c0,0.2,0.1,0.4,0.3,0.6c0.4,0.4,1.2,0.7,2.3,1
		s2.1,0.4,3.2,0.4c0.9,0,1.8-0.1,2.5-0.4c0.9-0.3,1.4-0.8,1.4-1.4c0-0.5-0.3-0.9-0.9-1.1c-0.4-0.1-1.2-0.3-2.3-0.4l-2.1-0.2
		c-1.1-0.1-2-0.2-2.6-0.3c-0.6-0.1-1.1-0.4-1.5-0.6c-0.6-0.3-1-0.8-1.3-1.4s-0.5-1.3-0.5-2c0-1.6,0.7-2.9,2.1-3.7
		c1.3-0.8,2.8-1.2,4.7-1.2c1,0,2,0.1,2.8,0.3c0.9,0.2,1.9,0.6,3.1,1.2c0.4,0.2,0.6,0.3,0.7,0.3s0.3-0.1,0.5-0.3L189.2,114.7z"/>
	<path class="st0" d="M198.1,122.1v4.7c0,0.3,0.1,0.5,0.2,0.6c0.1,0.1,0.3,0.3,0.7,0.4v0.4h-5.2v-0.4c0.3-0.1,0.5-0.2,0.6-0.3
		c0.1-0.1,0.2-0.4,0.2-0.6v-12.1c0-0.3-0.1-0.5-0.2-0.6c-0.1-0.1-0.3-0.3-0.7-0.4v-0.4h9.6c1.9,0,3.3,0.3,4.3,0.9
		c0.6,0.3,1,0.8,1.3,1.4s0.5,1.3,0.5,2.1c0,1.5-0.5,2.6-1.5,3.3c-1,0.7-2.5,1.1-4.6,1.1L198.1,122.1L198.1,122.1z M198.1,119.4h5
		c0.9,0,1.6-0.1,1.9-0.3c0.5-0.3,0.8-0.7,0.8-1.4c0-0.7-0.3-1.2-0.8-1.4c-0.4-0.2-1-0.3-1.9-0.3h-5V119.4z"/>
	<path class="st0" d="M217.7,114.7v12.1c0,0.3,0.1,0.5,0.2,0.6c0.1,0.1,0.3,0.3,0.7,0.4v0.4h-5.2v-0.4c0.3-0.1,0.5-0.2,0.6-0.3
		c0.1-0.1,0.2-0.4,0.2-0.6v-12.1c0-0.3-0.1-0.5-0.2-0.6c-0.1-0.1-0.3-0.3-0.7-0.4v-0.4h5.2v0.4c-0.3,0.1-0.5,0.2-0.7,0.4
		C217.7,114.2,217.7,114.4,217.7,114.7"/>
	<path class="st0" d="M231.3,116v10.7c0,0.3,0.1,0.5,0.2,0.6c0.1,0.1,0.3,0.3,0.7,0.4v0.4H227v-0.4c0.3-0.1,0.5-0.2,0.6-0.3
		c0.1-0.2,0.2-0.4,0.2-0.6v-10.7h-4.3c-0.3,0-0.5,0.1-0.6,0.2s-0.3,0.3-0.3,0.7h-0.4v-4.4h0.4c0.1,0.3,0.2,0.5,0.3,0.7
		c0.1,0.1,0.4,0.2,0.6,0.2h12.2c0.3,0,0.5-0.1,0.6-0.2s0.3-0.3,0.3-0.7h0.4v4.4h-0.4c-0.1-0.3-0.2-0.5-0.3-0.7
		c-0.1-0.1-0.4-0.2-0.6-0.2h-4.4V116z"/>
	<path class="st0" d="M250,124.4h-6.8l-0.8,1.6c-0.2,0.4-0.3,0.7-0.3,0.9c0,0.4,0.3,0.7,0.8,0.8v0.4h-5.4v-0.4
		c0.3-0.1,0.6-0.2,0.7-0.3c0.2-0.1,0.4-0.4,0.6-0.9l5.4-10.9c0.2-0.4,0.3-0.8,0.3-1.1c0-0.4-0.2-0.6-0.7-0.8v-0.3h5.7v0.4
		c-0.5,0.2-0.7,0.5-0.7,0.9c0,0.3,0.1,0.6,0.3,1.1l5.6,10.6c0.3,0.6,0.5,0.9,0.7,1.1s0.4,0.3,0.8,0.4v0.4h-6v-0.4
		c0.6-0.1,0.9-0.4,0.9-0.8c0-0.3-0.1-0.6-0.3-1L250,124.4z M249,122.4l-2.4-4.7l-2.3,4.7H249z"/>
	<path class="st0" d="M264,125.4h8.3c0.3,0,0.5-0.1,0.6-0.2s0.3-0.3,0.4-0.7h0.4v4.4h-0.4c-0.1-0.3-0.2-0.5-0.3-0.7
		c-0.1-0.1-0.4-0.2-0.6-0.2h-12.6v-0.4c0.3-0.1,0.5-0.2,0.6-0.3c0.1-0.2,0.2-0.4,0.2-0.6v-12.1c0-0.3-0.1-0.5-0.2-0.6
		s-0.3-0.3-0.7-0.4v-0.2h5.2v0.4c-0.3,0.1-0.5,0.2-0.7,0.3c-0.1,0.1-0.2,0.4-0.2,0.6L264,125.4L264,125.4z"/>
	<path class="st0" d="M281.5,114.7v12.1c0,0.3,0.1,0.5,0.2,0.6s0.3,0.3,0.7,0.4v0.4h-5.3v-0.4c0.3-0.1,0.5-0.2,0.6-0.3
		c0.1-0.1,0.2-0.4,0.2-0.6v-12.1c0-0.3-0.1-0.5-0.2-0.6s-0.3-0.3-0.7-0.4v-0.4h5.2v0.4c-0.3,0.1-0.5,0.2-0.7,0.4
		C281.5,114.2,281.5,114.4,281.5,114.7"/>
	<path class="st0" d="M295.1,116v10.7c0,0.3,0.1,0.5,0.2,0.6s0.3,0.3,0.7,0.4v0.4h-5.2v-0.4c0.3-0.1,0.5-0.2,0.7-0.3
		c0.1-0.2,0.2-0.4,0.2-0.6v-10.7h-4.3c-0.3,0-0.5,0.1-0.6,0.2s-0.3,0.3-0.4,0.7H286v-4.4h0.4c0.1,0.3,0.2,0.5,0.3,0.7
		c0.1,0.1,0.4,0.2,0.6,0.2h12.2c0.3,0,0.5-0.1,0.6-0.2s0.3-0.3,0.3-0.7h0.4v4.4h-0.4c-0.1-0.3-0.2-0.5-0.3-0.7
		c-0.1-0.1-0.4-0.2-0.6-0.2h-4.4V116z"/>
	<path class="st0" d="M312.8,121.6v5.1c0,0.3,0.1,0.5,0.2,0.6s0.3,0.3,0.7,0.4v0.4h-5.2v-0.4c0.3-0.1,0.5-0.2,0.7-0.4
		c0.1-0.1,0.2-0.4,0.2-0.6v-5.1l-4.4-6c-0.5-0.7-0.9-1.1-1.2-1.4c-0.3-0.3-0.6-0.4-1.1-0.5v-0.3h6.7v0.4c-0.6,0.1-0.9,0.4-0.9,0.8
		c0,0.2,0.2,0.6,0.6,1.2l2.1,3l2.1-3c0.4-0.6,0.6-1,0.6-1.2c0-0.4-0.3-0.6-0.8-0.8v-0.4h6.3v0.4c-0.4,0.1-0.8,0.3-1,0.5
		c-0.3,0.3-0.7,0.7-1.2,1.4L312.8,121.6z"/>
	<path class="st0" d="M336.3,120.8v5.9c0,0.3,0.1,0.5,0.2,0.6s0.3,0.3,0.7,0.3v0.4h-5.6v-0.4c0.3-0.1,0.5-0.2,0.7-0.3
		c0.1-0.1,0.2-0.3,0.2-0.6v-15.2c0-0.3-0.1-0.5-0.2-0.6s-0.3-0.3-0.7-0.3v-0.4h11.2c1.3,0,2.3,0.1,3.1,0.3c0.8,0.2,1.4,0.5,2,0.9
		s1.1,1,1.4,1.8s0.5,1.6,0.5,2.4c0,1.2-0.3,2.3-1,3.2c-0.6,0.8-1.3,1.3-2.2,1.7c-0.9,0.3-2.2,0.5-3.9,0.5h-6.4V120.8z M336.3,117.9
		h6c1.2,0,2-0.1,2.5-0.4c0.3-0.2,0.6-0.4,0.7-0.8c0.2-0.4,0.3-0.8,0.3-1.2c0-0.4-0.1-0.8-0.3-1.2c-0.2-0.4-0.4-0.6-0.7-0.8
		c-0.5-0.3-1.3-0.4-2.5-0.4h-6V117.9z"/>
	<path class="st0" d="M358.2,122.1v4.7c0,0.3,0.1,0.5,0.2,0.6s0.3,0.3,0.7,0.4v0.4h-5.2v-0.4c0.3-0.1,0.5-0.2,0.6-0.3
		c0.1-0.1,0.2-0.4,0.2-0.6v-12.1c0-0.3-0.1-0.5-0.2-0.6s-0.3-0.3-0.7-0.4v-0.4h9.7c1.3,0,2.2,0.1,2.9,0.2c0.7,0.1,1.2,0.4,1.8,0.7
		c1.1,0.7,1.6,1.8,1.6,3.4c0,1.2-0.3,2.1-1,2.8c-0.7,0.7-1.7,1.2-3.2,1.5l2.8,3.9c0.5,0.7,0.9,1.2,1.2,1.5c0.3,0.3,0.6,0.4,1,0.5
		v0.4h-6.2v-0.4c0.5-0.1,0.7-0.3,0.7-0.6c0-0.2-0.1-0.5-0.4-0.9l-2.9-4.2L358.2,122.1L358.2,122.1z M358.2,119.4h5.3
		c0.8,0,1.4-0.1,1.8-0.3c0.5-0.2,0.8-0.7,0.8-1.4c0-0.6-0.2-1.1-0.6-1.3c-0.4-0.2-1.1-0.4-2-0.4h-5.3L358.2,119.4L358.2,119.4z"/>
	<path class="st0" d="M382.4,113c2.3,0,4.3,0.6,5.9,1.8c1.9,1.4,2.8,3.4,2.8,6c0,2.4-0.9,4.3-2.8,5.8c-1.5,1.2-3.5,1.8-5.8,1.8
		s-4.3-0.6-5.8-1.8c-1.9-1.4-2.8-3.4-2.8-5.9s0.9-4.5,2.8-5.9C378.1,113.7,380.1,113.1,382.4,113 M382.4,115.8
		c-1.5,0-2.8,0.5-3.7,1.5c-0.9,0.9-1.3,2.1-1.3,3.4c0,1.4,0.4,2.5,1.3,3.4c1,1,2.2,1.5,3.7,1.5s2.8-0.5,3.7-1.5
		c0.9-0.9,1.3-2,1.3-3.4s-0.4-2.6-1.3-3.5S383.9,115.9,382.4,115.8"/>
	<path class="st0" d="M399.7,122.1v4.7c0,0.3,0.1,0.5,0.2,0.6s0.3,0.3,0.7,0.4v0.4h-5.2v-0.4c0.3-0.1,0.5-0.2,0.6-0.3
		c0.1-0.1,0.2-0.4,0.2-0.6v-12.1c0-0.3-0.1-0.5-0.2-0.6s-0.3-0.3-0.7-0.4v-0.4h9.6c1.9,0,3.3,0.3,4.3,0.9c0.6,0.3,1,0.8,1.3,1.4
		s0.5,1.3,0.5,2.1c0,1.5-0.5,2.6-1.5,3.3c-1,0.7-2.5,1.1-4.6,1.1L399.7,122.1L399.7,122.1z M399.7,119.4h5c0.9,0,1.6-0.1,1.9-0.3
		c0.5-0.3,0.8-0.7,0.8-1.4c0-0.7-0.3-1.2-0.8-1.4c-0.3-0.2-1-0.3-1.9-0.3h-5V119.4z"/>
	<path class="st0" d="M419.3,121.8v3.6h9.4c0.3,0,0.5-0.1,0.6-0.2s0.3-0.3,0.4-0.7h0.4v4.4h-0.4c-0.1-0.3-0.2-0.5-0.3-0.6
		c-0.1-0.1-0.4-0.2-0.6-0.2h-13.7v-0.4c0.3-0.1,0.5-0.2,0.6-0.3c0.1-0.1,0.2-0.4,0.2-0.6v-12.1c0-0.3-0.1-0.5-0.2-0.6
		s-0.3-0.3-0.7-0.4v-0.3h13.3c0.3,0,0.5-0.1,0.6-0.2s0.3-0.3,0.4-0.7h0.4v4.4h-0.4c-0.1-0.3-0.2-0.5-0.4-0.7
		c-0.1-0.1-0.4-0.2-0.6-0.2h-9v3.2h5.6c0.3,0,0.5-0.1,0.6-0.2s0.3-0.3,0.4-0.7h0.4v4.3h-0.4c-0.1-0.3-0.2-0.5-0.3-0.7
		c-0.1-0.1-0.4-0.2-0.6-0.2h-5.7V121.8z"/>
	<path class="st0" d="M438.6,122.1v4.7c0,0.3,0.1,0.5,0.2,0.6s0.3,0.3,0.7,0.4v0.4h-5.2v-0.4c0.3-0.1,0.5-0.2,0.6-0.3
		c0.1-0.1,0.2-0.4,0.2-0.6v-12.1c0-0.3-0.1-0.5-0.2-0.6s-0.3-0.3-0.7-0.4v-0.4h9.7c1.3,0,2.2,0.1,2.9,0.2c0.7,0.1,1.2,0.4,1.8,0.7
		c1.1,0.7,1.6,1.8,1.6,3.4c0,1.2-0.3,2.1-1,2.8c-0.7,0.7-1.7,1.2-3.2,1.5l2.8,3.9c0.5,0.7,0.9,1.2,1.2,1.5c0.3,0.3,0.6,0.4,1,0.5
		v0.4h-6.2v-0.4c0.5-0.1,0.7-0.3,0.7-0.6c0-0.2-0.1-0.5-0.4-0.9l-2.9-4.2L438.6,122.1L438.6,122.1z M438.6,119.4h5.3
		c0.8,0,1.4-0.1,1.8-0.3c0.5-0.2,0.8-0.7,0.8-1.4c0-0.6-0.2-1.1-0.6-1.3c-0.4-0.2-1.1-0.4-2-0.4h-5.3L438.6,119.4L438.6,119.4z"/>
	<path class="st0" d="M463.1,116v10.7c0,0.3,0.1,0.5,0.2,0.6s0.3,0.3,0.7,0.4v0.4h-5.2v-0.4c0.3-0.1,0.5-0.2,0.6-0.3
		c0.1-0.2,0.2-0.4,0.2-0.6v-10.7h-4.3c-0.3,0-0.5,0.1-0.6,0.2s-0.3,0.3-0.3,0.7H454v-4.4h0.4c0.1,0.3,0.2,0.5,0.3,0.7
		c0.1,0.1,0.4,0.2,0.6,0.2h12.2c0.3,0,0.5-0.1,0.6-0.2s0.3-0.3,0.4-0.7h0.4v4.4h-0.4c-0.1-0.3-0.2-0.5-0.4-0.7
		c-0.1-0.1-0.4-0.2-0.6-0.2h-4.4V116z"/>
	<path class="st0" d="M476.7,114.7v12.1c0,0.3,0.1,0.5,0.2,0.6s0.3,0.3,0.7,0.4v0.4h-5.2v-0.4c0.3-0.1,0.5-0.2,0.6-0.3
		c0.1-0.1,0.2-0.4,0.2-0.6v-12.1c0-0.3-0.1-0.5-0.2-0.6s-0.3-0.3-0.7-0.4v-0.4h5.2v0.4c-0.3,0.1-0.5,0.2-0.7,0.4
		C476.7,114.2,476.7,114.4,476.7,114.7"/>
	<path class="st0" d="M486.5,121.8v3.6h9.4c0.3,0,0.5-0.1,0.6-0.2s0.3-0.3,0.4-0.7h0.4v4.4h-0.4c-0.1-0.3-0.2-0.5-0.3-0.6
		s-0.4-0.2-0.6-0.2h-13.9v-0.4c0.3-0.1,0.5-0.2,0.6-0.3c0.1-0.1,0.2-0.4,0.2-0.6v-12.1c0-0.3-0.1-0.5-0.2-0.6s-0.3-0.3-0.7-0.4v-0.3
		h13.3c0.3,0,0.5-0.1,0.6-0.2s0.3-0.3,0.3-0.7h0.4v4.4h-0.4c-0.1-0.3-0.2-0.5-0.3-0.7c-0.2-0.1-0.4-0.2-0.6-0.2h-9v3.2h5.6
		c0.3,0,0.5-0.1,0.6-0.2s0.3-0.3,0.4-0.7h0.4v4.3h-0.4c-0.1-0.3-0.2-0.5-0.3-0.7c-0.1-0.1-0.4-0.2-0.6-0.2h-5.5V121.8z"/>
	<path class="st0" d="M515.6,114.7l-1.8,3.4l-0.3-0.2c0-0.3-0.1-0.5-0.3-0.7c-0.5-0.4-1.2-0.8-2.2-1.1c-1-0.3-2-0.4-3-0.4
		c-0.8,0-1.6,0.1-2.3,0.4c-0.9,0.3-1.4,0.8-1.4,1.5c0,0.4,0.2,0.7,0.7,0.9c0.5,0.2,1.3,0.3,2.6,0.4l2.1,0.2c1.8,0.1,3.2,0.5,4.1,1.1
		c0.5,0.3,1,0.7,1.3,1.3c0.4,0.7,0.7,1.4,0.7,2.2c0,1.5-0.7,2.7-2,3.6c-1.3,0.8-3,1.3-5.2,1.3s-4.4-0.5-6.4-1.4
		c-0.1-0.1-0.3-0.1-0.4-0.1c-0.2,0-0.3,0.1-0.5,0.3l-0.3-0.1l1.5-3.6l0.3,0.1v0.1c0,0.2,0.1,0.4,0.3,0.6c0.4,0.4,1.2,0.7,2.3,1
		s2.1,0.4,3.2,0.4c0.9,0,1.8-0.1,2.5-0.4c0.9-0.3,1.4-0.8,1.4-1.4c0-0.5-0.3-0.9-0.9-1.1c-0.4-0.1-1.2-0.3-2.3-0.4l-2.1-0.2
		c-1.1-0.1-2-0.2-2.6-0.3c-0.6-0.1-1.1-0.4-1.5-0.6c-0.6-0.3-1-0.8-1.3-1.4s-0.5-1.3-0.5-2c0-1.6,0.7-2.9,2.1-3.7
		c1.3-0.8,2.8-1.2,4.7-1.2c1,0,2,0.1,2.8,0.3c0.9,0.2,1.9,0.6,3.1,1.2c0.4,0.2,0.6,0.3,0.7,0.3c0.1,0,0.3-0.1,0.5-0.3L515.6,114.7z"
		/>
	<path class="st0" d="M521.4,131.4c0.7-0.5,1.2-0.9,1.6-1.4c0.3-0.4,0.5-1,0.7-1.7c-0.4,0.1-0.7,0.1-0.9,0.1c-0.6,0-1-0.2-1.4-0.6
		s-0.5-0.9-0.5-1.6s0.2-1.2,0.5-1.6c0.4-0.4,0.8-0.6,1.4-0.6c0.8,0,1.4,0.3,1.8,1c0.4,0.6,0.6,1.3,0.6,2.1c0,1.9-1,3.6-3.1,5.1
		L521.4,131.4z"/>
	<path class="st0" d="M537.7,126.7v-15.2c0-0.3-0.1-0.5-0.2-0.6c-0.1-0.1-0.3-0.3-0.7-0.3v-0.4h5.6v0.4c-0.3,0.1-0.5,0.2-0.7,0.3
		c-0.1,0.1-0.2,0.4-0.2,0.6v15.2c0,0.3,0.1,0.5,0.2,0.6c0.1,0.1,0.3,0.3,0.7,0.3v0.4h-5.6v-0.4c0.3-0.1,0.5-0.2,0.7-0.3
		C537.6,127.2,537.7,127,537.7,126.7"/>
	<path class="st0" d="M551.4,118.4v8.4c0,0.3,0.1,0.5,0.2,0.6c0.1,0.1,0.3,0.3,0.7,0.4v0.4h-4.9v-0.4c0.3-0.1,0.5-0.2,0.6-0.3
		c0.1-0.2,0.2-0.4,0.2-0.6v-12.1c0-0.3-0.1-0.5-0.2-0.6c-0.1-0.1-0.3-0.3-0.7-0.4v-0.4h5.7v0.4c-0.4,0.1-0.6,0.3-0.6,0.5
		s0.1,0.5,0.4,0.7l7.9,7.8v-8.1c0-0.3-0.1-0.5-0.2-0.6c-0.1-0.1-0.3-0.3-0.7-0.4v-0.3h4.9v0.4c-0.3,0.1-0.5,0.2-0.7,0.4
		c-0.1,0.1-0.2,0.4-0.2,0.6v12c0,0.3,0.1,0.5,0.2,0.6c0.1,0.1,0.3,0.3,0.7,0.4v0.4h-5.3v-0.4c0.4-0.1,0.6-0.2,0.6-0.5
		c0-0.1-0.1-0.2-0.2-0.4c-0.1-0.1-0.3-0.4-0.7-0.8L551.4,118.4z"/>
	<path class="st0" d="M583.9,122.8l2.2,3.3l-0.3,0.2c-0.2-0.1-0.4-0.2-0.5-0.2s-0.5,0.2-1,0.5c-1.2,0.7-2.3,1.2-3.2,1.5
		s-2,0.4-3.2,0.4c-2.4,0-4.4-0.6-5.9-1.7c-0.9-0.7-1.5-1.5-2.1-2.5c-0.5-1.1-0.8-2.2-0.8-3.5c0-1.7,0.5-3.3,1.5-4.6
		c1.6-2.1,4-3.1,7.2-3.1c1.2,0,2.3,0.1,3.2,0.4s2,0.8,3.2,1.5c0.5,0.3,0.9,0.5,1,0.5s0.3-0.1,0.5-0.2l0.3,0.2l-2.2,3.2l-0.3-0.2
		c0-0.1,0-0.2,0-0.2c0-0.1,0-0.1,0-0.2c0-0.4-0.6-0.9-1.8-1.5c-1.1-0.5-2.3-0.8-3.4-0.8c-1.6,0-2.9,0.4-4,1.3
		c-1.2,0.9-1.8,2.2-1.8,3.6c0,1.5,0.6,2.7,1.8,3.7c1,0.8,2.4,1.2,4,1.2c1.2,0,2.5-0.3,3.7-0.9c1-0.5,1.4-0.9,1.4-1.3
		c0,0,0-0.1,0-0.4L583.9,122.8z"/>
	<path class="st0" d="M593.5,123.7c0.7,0,1.2,0.2,1.7,0.7s0.7,1,0.7,1.7s-0.2,1.2-0.7,1.7s-1,0.7-1.7,0.7s-1.2-0.2-1.7-0.7
		s-0.7-1-0.7-1.7s0.2-1.2,0.7-1.7S592.9,123.7,593.5,123.7"/>
	<path class="st0" d="M116.2,161.2h-7.5l-1.2,2.7c-0.1,0.3-0.2,0.4-0.2,0.5c0,0.2,0.2,0.3,0.6,0.4v0.3h-3.1v-0.3
		c0.3,0,0.5-0.2,0.6-0.3c0.1-0.2,0.3-0.5,0.6-1l5.1-11c0.1-0.3,0.2-0.4,0.2-0.5c0-0.2-0.2-0.3-0.5-0.4v-0.3h3.4v0.3
		c-0.3,0.1-0.5,0.3-0.5,0.4s0.1,0.2,0.2,0.5l4.9,10.6c0.4,0.8,0.6,1.2,0.7,1.4c0.1,0.1,0.4,0.3,0.8,0.4v0.3H117v-0.3
		c0.4-0.1,0.6-0.2,0.6-0.5c0-0.1-0.1-0.3-0.2-0.6L116.2,161.2z M115.6,159.9l-3.1-6.9l-3.1,6.9H115.6z"/>
	<path class="st0" d="M132.4,158.8v5.1c0,0.3,0,0.5,0.1,0.6s0.3,0.2,0.5,0.3v0.3h-2.9v-0.3c0.3-0.1,0.4-0.2,0.5-0.3
		c0.1-0.1,0.1-0.3,0.1-0.6v-11.5c0-0.3,0-0.5-0.1-0.6s-0.3-0.2-0.5-0.3v-0.3h7.7c1.1,0,1.9,0.1,2.5,0.2s1.1,0.3,1.6,0.6
		c0.5,0.3,0.8,0.7,1.1,1.2c0.3,0.6,0.5,1.2,0.5,1.9c0,1.1-0.4,1.9-1.1,2.6c-0.7,0.7-1.7,1.1-2.9,1.2l3.5,5.5
		c0.2,0.3,0.5,0.5,0.9,0.5v0.3h-3.2v-0.3c0.3-0.1,0.5-0.1,0.5-0.3c0-0.1-0.1-0.3-0.4-0.7l-3.2-5h-5.2V158.8z M132.4,157.5h5.7
		c0.8,0,1.4,0,1.7-0.1c0.4-0.1,0.7-0.2,1-0.4c0.7-0.4,1.1-1.1,1.1-2.1s-0.4-1.7-1.1-2.1c-0.3-0.2-0.7-0.3-1.1-0.4
		c-0.4-0.1-1-0.1-1.8-0.1h-5.5L132.4,157.5L132.4,157.5z"/>
	<path class="st0" d="M149.7,159.8v4.2h7.1c0.3,0,0.5,0,0.6-0.1s0.2-0.3,0.3-0.5h0.3v2.4h-0.3c-0.1-0.3-0.1-0.4-0.3-0.5
		c-0.1-0.1-0.3-0.1-0.6-0.1h-9.2v-0.3c0.3-0.1,0.4-0.2,0.5-0.3c0.1-0.1,0.1-0.3,0.1-0.6v-9.1c0-0.3,0-0.5-0.1-0.6s-0.3-0.2-0.5-0.3
		v-0.3h9.1c0.3,0,0.5,0,0.6-0.1s0.2-0.3,0.3-0.5h0.3v2.4h-0.3c-0.1-0.3-0.2-0.4-0.3-0.5s-0.3-0.1-0.6-0.1h-7v3.9h4.5
		c0.3,0,0.5,0,0.6-0.1s0.2-0.3,0.3-0.5h0.3v2.4h-0.3c-0.1-0.3-0.2-0.4-0.3-0.5s-0.3-0.1-0.6-0.1h-4.5V159.8z"/>
	<path class="st0" d="M169.8,161.9h-6l-0.9,1.9c-0.1,0.2-0.2,0.4-0.2,0.5c0,0.2,0.2,0.4,0.5,0.5v0.3h-2.8v-0.3
		c0.3,0,0.5-0.2,0.6-0.3c0.2-0.2,0.3-0.5,0.5-1l3.8-8.3c0.2-0.5,0.3-0.8,0.3-0.9c0-0.2-0.2-0.4-0.5-0.4v-0.3h3.3v0.3
		c-0.3,0.1-0.5,0.2-0.5,0.4c0,0.1,0.1,0.5,0.4,1.1l3.6,7.9c0.2,0.5,0.5,0.9,0.6,1.1c0.2,0.2,0.4,0.3,0.7,0.4v0.3h-3v-0.3
		c0.3-0.1,0.5-0.2,0.5-0.3c0-0.1-0.1-0.3-0.2-0.7L169.8,161.9z M169.3,160.8l-2.5-5.6l-2.5,5.6H169.3z"/>
	<path class="st0" d="M178.3,164h7c0.3,0,0.5,0,0.6-0.1s0.2-0.3,0.3-0.5h0.3v2.4h-0.3c-0.1-0.3-0.2-0.4-0.3-0.5s-0.3-0.1-0.6-0.1
		h-9.1v-0.3c0.3-0.1,0.4-0.2,0.5-0.3c0.1-0.1,0.1-0.3,0.1-0.6v-9.1c0-0.3,0-0.5-0.1-0.6s-0.3-0.2-0.5-0.3v-0.3h2.8v0.3
		c-0.3,0.1-0.4,0.2-0.5,0.3c-0.1,0.1-0.1,0.3-0.1,0.6L178.3,164L178.3,164z"/>
	<path class="st0" d="M198.8,158.6v5.2h9c0.3,0,0.5,0,0.6-0.1s0.2-0.3,0.3-0.5h0.3v2.6h-0.3c-0.1-0.3-0.2-0.4-0.3-0.5
		s-0.3-0.1-0.6-0.1h-11.2v-0.3c0.3-0.1,0.4-0.2,0.5-0.3c0.1-0.1,0.1-0.3,0.1-0.6v-11.6c0-0.3,0-0.5-0.1-0.6s-0.3-0.2-0.5-0.3v-0.3
		h11.1c0.3,0,0.5,0,0.6-0.1s0.2-0.3,0.3-0.5h0.3v2.6h-0.3c-0.1-0.3-0.2-0.4-0.3-0.5s-0.3-0.1-0.6-0.1h-8.8v4.8h5.8
		c0.3,0,0.5,0,0.6-0.1s0.2-0.3,0.3-0.5h0.3v2.6h-0.3c-0.1-0.3-0.2-0.4-0.3-0.5s-0.3-0.1-0.6-0.1h-5.9V158.6z"/>
	<path class="st0" d="M223.8,154.3l-1.1,2.2l-0.2-0.1c0-0.2,0.1-0.3,0.1-0.4c0-0.2-0.2-0.4-0.7-0.6c-0.9-0.5-2.1-0.8-3.4-0.8
		c-1.1,0-2,0.2-2.8,0.6s-1.1,1-1.1,1.7c0,0.3,0.1,0.6,0.3,0.9s0.4,0.5,0.8,0.6c0.3,0.1,0.7,0.2,1,0.2c0.4,0,1.2,0.1,2.4,0.1
		c1,0,1.8,0.1,2.3,0.2s1,0.2,1.4,0.5c0.4,0.2,0.7,0.6,1,1c0.2,0.4,0.3,0.9,0.3,1.4c0,1.1-0.4,1.9-1.3,2.5c-1,0.7-2.4,1.1-4.1,1.1
		c-0.8,0-1.7-0.1-2.7-0.4c-0.9-0.3-1.8-0.6-2.6-1.1c-0.1-0.1-0.2-0.1-0.2-0.1c-0.1,0-0.3,0.1-0.5,0.4l-0.2-0.2l1.3-2.2l0.2,0.1
		c0,0.1,0,0.1,0,0.2s0,0.2,0,0.3c0,0.2,0.4,0.5,1,0.8c1.2,0.6,2.4,0.9,3.7,0.9c1.2,0,2.1-0.2,2.9-0.6c0.4-0.2,0.7-0.5,0.9-0.8
		s0.3-0.7,0.3-1s-0.1-0.6-0.3-0.9s-0.4-0.4-0.7-0.6c-0.3-0.1-0.6-0.2-0.9-0.2c-0.3,0-1-0.1-2-0.1c-1.1,0-1.9-0.1-2.4-0.2
		s-0.9-0.2-1.4-0.3c-0.5-0.2-1-0.5-1.3-1s-0.5-1-0.5-1.6c0-1.1,0.5-2,1.5-2.6s2.3-1,3.9-1c1.4,0,2.9,0.3,4.3,1
		c0.2,0.1,0.3,0.1,0.4,0.1c0.1,0,0.2-0.1,0.4-0.4L223.8,154.3z"/>
	<path class="st0" d="M233.2,154.8v9.1c0,0.3,0,0.5,0.1,0.6s0.3,0.2,0.5,0.3v0.3h-2.7v-0.3c0.3-0.1,0.4-0.2,0.5-0.3
		c0.1-0.1,0.1-0.3,0.1-0.6v-9.1H228c-0.3,0-0.5,0-0.6,0.1s-0.2,0.3-0.3,0.5h-0.3V153h0.3c0.1,0.3,0.2,0.4,0.3,0.5s0.3,0.1,0.6,0.1
		h8.9c0.3,0,0.5,0,0.6-0.1s0.2-0.3,0.3-0.5h0.3v2.4h-0.3c-0.1-0.3-0.2-0.4-0.3-0.5c-0.1-0.1-0.3-0.1-0.6-0.1H233.2z"/>
	<path class="st0" d="M247.9,161.9h-6l-0.9,1.9c-0.1,0.2-0.2,0.4-0.2,0.5c0,0.2,0.2,0.4,0.5,0.5v0.3h-2.8v-0.3
		c0.3,0,0.5-0.2,0.6-0.3c0.2-0.2,0.3-0.5,0.5-1l3.8-8.3c0.2-0.5,0.3-0.8,0.3-0.9c0-0.2-0.2-0.4-0.5-0.4v-0.3h3.3v0.3
		c-0.3,0.1-0.5,0.2-0.5,0.4c0,0.1,0.1,0.5,0.4,1.1l3.6,7.9c0.2,0.5,0.5,0.9,0.6,1.1c0.2,0.2,0.4,0.3,0.7,0.4v0.3h-3v-0.3
		c0.3-0.1,0.5-0.2,0.5-0.3c0-0.1-0.1-0.3-0.2-0.7L247.9,161.9z M247.4,160.8l-2.5-5.6l-2.5,5.6H247.4z"/>
	<path class="st0" d="M259.6,154.8v9.1c0,0.3,0,0.5,0.1,0.6s0.3,0.2,0.5,0.3v0.3h-2.8v-0.3c0.3-0.1,0.4-0.2,0.5-0.3
		c0.1-0.1,0.1-0.3,0.1-0.6v-9.1h-3.7c-0.3,0-0.5,0-0.6,0.1s-0.2,0.3-0.3,0.5h-0.3V153h0.3c0.1,0.3,0.2,0.4,0.3,0.5
		c0.1,0.1,0.3,0.1,0.6,0.1h8.9c0.3,0,0.5,0,0.6-0.1s0.2-0.3,0.3-0.5h0.3v2.4h-0.3c-0.1-0.3-0.2-0.4-0.3-0.5
		c-0.1-0.1-0.3-0.1-0.6-0.1H259.6z"/>
	<path class="st0" d="M269.8,159.8v4.2h7.1c0.3,0,0.5,0,0.6-0.1s0.2-0.3,0.3-0.5h0.3v2.4h-0.3c-0.1-0.3-0.1-0.4-0.3-0.5
		c-0.1-0.1-0.3-0.1-0.6-0.1h-9.2v-0.3c0.3-0.1,0.4-0.2,0.5-0.3c0.1-0.1,0.1-0.3,0.1-0.6v-9.1c0-0.3,0-0.5-0.1-0.6s-0.3-0.2-0.5-0.3
		v-0.3h9.1c0.3,0,0.5,0,0.6-0.1s0.2-0.3,0.3-0.5h0.3v2.4h-0.3c-0.1-0.3-0.2-0.4-0.3-0.5c-0.1-0.1-0.3-0.1-0.6-0.1h-7v3.9h4.5
		c0.3,0,0.5,0,0.6-0.1s0.2-0.3,0.3-0.5h0.3v2.4h-0.4c-0.1-0.3-0.2-0.4-0.3-0.5c-0.1-0.1-0.3-0.1-0.6-0.1h-4.4V159.8z"/>
	<path class="st0" d="M289.5,163.9v-11.5c0-0.3,0-0.5-0.1-0.6s-0.3-0.2-0.5-0.3v-0.3h2.9v0.3c-0.3,0.1-0.4,0.2-0.5,0.3
		c-0.1,0.1-0.1,0.3-0.1,0.6V164c0,0.3,0,0.5,0.1,0.6s0.3,0.2,0.5,0.3v0.3h-2.9v-0.3c0.3-0.1,0.4-0.2,0.5-0.3
		C289.5,164.4,289.5,164.2,289.5,163.9"/>
	<path class="st0" d="M298,155.5v8.5c0,0.3,0,0.5,0.1,0.6s0.3,0.2,0.5,0.3v0.3h-2.5v-0.3c0.3-0.1,0.4-0.2,0.5-0.3
		c0.1-0.1,0.1-0.3,0.1-0.6v-9.2c0-0.3,0-0.5-0.1-0.6s-0.3-0.2-0.5-0.3v-0.3h3.7v0.3c-0.4,0.1-0.5,0.3-0.5,0.5s0.1,0.4,0.4,0.7
		l6.8,7.6v-8c0-0.3,0-0.5-0.1-0.6s-0.3-0.2-0.5-0.3v-0.3h2.5v0.3c-0.3,0.1-0.4,0.2-0.5,0.3c-0.1,0.1-0.1,0.3-0.1,0.6v9.2
		c0,0.3,0,0.5,0.1,0.6s0.3,0.2,0.5,0.3v0.3h-3v-0.3c0.4-0.1,0.5-0.2,0.5-0.4c0-0.1-0.2-0.4-0.5-0.8L298,155.5z"/>
	<path class="st0" d="M317.9,163.5l3.7-8.4c0.1-0.2,0.2-0.4,0.2-0.6c0-0.3-0.2-0.5-0.6-0.6v-0.3h2.8v0.3c-0.3,0.1-0.5,0.2-0.6,0.4
		c-0.1,0.2-0.3,0.6-0.6,1.2l-3.5,8c-0.2,0.4-0.2,0.7-0.2,0.8c0,0.3,0.2,0.5,0.6,0.6v0.3h-3.5v-0.3c0.4-0.1,0.6-0.3,0.6-0.6
		c0-0.2-0.1-0.5-0.3-0.8l-3.6-8c-0.3-0.6-0.5-1-0.6-1.2s-0.3-0.3-0.6-0.4v-0.3h3.2v0.3c-0.4,0.1-0.6,0.3-0.6,0.6
		c0,0.2,0.1,0.4,0.2,0.6L317.9,163.5z"/>
	<path class="st0" d="M329.2,159.8v4.2h7.1c0.3,0,0.5,0,0.6-0.1s0.2-0.3,0.3-0.5h0.3v2.4h-0.3c-0.1-0.3-0.1-0.4-0.3-0.5
		c-0.1-0.1-0.3-0.1-0.6-0.1h-9.2v-0.3c0.3-0.1,0.4-0.2,0.5-0.3c0.1-0.1,0.1-0.3,0.1-0.6v-9.1c0-0.3,0-0.5-0.1-0.6s-0.3-0.2-0.5-0.3
		v-0.3h9.1c0.3,0,0.5,0,0.6-0.1s0.2-0.3,0.3-0.5h0.3v2.4h-0.3c-0.1-0.3-0.2-0.4-0.3-0.5c-0.1-0.1-0.3-0.1-0.6-0.1h-7v3.9h4.5
		c0.3,0,0.5,0,0.6-0.1s0.2-0.3,0.3-0.5h0.3v2.4h-0.3c-0.1-0.3-0.2-0.4-0.3-0.5c-0.1-0.1-0.3-0.1-0.6-0.1h-4.5V159.8z"/>
	<path class="st0" d="M352.1,154.3l-1.1,2.2l-0.2-0.1c0-0.2,0.1-0.3,0.1-0.4c0-0.2-0.2-0.4-0.7-0.6c-0.9-0.5-2.1-0.8-3.4-0.8
		c-1.1,0-2,0.2-2.8,0.6s-1.1,1-1.1,1.7c0,0.3,0.1,0.6,0.3,0.9c0.2,0.3,0.4,0.5,0.8,0.6c0.3,0.1,0.7,0.2,1,0.2c0.4,0,1.2,0.1,2.4,0.1
		c1,0,1.8,0.1,2.3,0.2s1,0.2,1.4,0.5c0.4,0.2,0.7,0.6,1,1c0.2,0.4,0.3,0.9,0.3,1.4c0,1.1-0.4,1.9-1.3,2.5c-1,0.7-2.4,1.1-4.1,1.1
		c-0.8,0-1.7-0.1-2.7-0.4c-0.9-0.3-1.8-0.6-2.6-1.1c-0.1-0.1-0.2-0.1-0.2-0.1c-0.1,0-0.3,0.1-0.5,0.4l-0.2-0.2l1.3-2.2l0.2,0.1
		c0,0.1,0,0.1,0,0.2s-0.1,0.2-0.1,0.3c0,0.2,0.4,0.5,1,0.8c1.2,0.6,2.4,0.9,3.7,0.9c1.2,0,2.1-0.2,2.9-0.6c0.4-0.2,0.7-0.5,0.9-0.8
		c0.2-0.3,0.3-0.7,0.3-1s-0.1-0.6-0.3-0.9c-0.2-0.3-0.4-0.4-0.7-0.6c-0.3-0.1-0.6-0.2-0.9-0.2s-1-0.1-2-0.1c-1.1,0-1.9-0.1-2.4-0.2
		s-0.9-0.2-1.4-0.3c-0.5-0.2-1-0.5-1.3-1s-0.5-1-0.5-1.6c0-1.1,0.5-2,1.5-2.6s2.3-1,3.9-1c1.4,0,2.9,0.3,4.3,1
		c0.2,0.1,0.3,0.1,0.4,0.1s0.2-0.1,0.4-0.4L352.1,154.3z"/>
	<path class="st0" d="M361.4,154.8v9.1c0,0.3,0,0.5,0.1,0.6s0.3,0.2,0.5,0.3v0.3h-2.8v-0.3c0.3-0.1,0.4-0.2,0.5-0.3
		c0.1-0.1,0.1-0.3,0.1-0.6v-9.1h-3.7c-0.3,0-0.5,0-0.6,0.1s-0.2,0.3-0.3,0.5h-0.1V153h0.3c0.1,0.3,0.2,0.4,0.3,0.5
		c0.1,0.1,0.3,0.1,0.6,0.1h8.9c0.3,0,0.5,0,0.6-0.1s0.2-0.3,0.3-0.5h0.3v2.4h-0.3c-0.1-0.3-0.2-0.4-0.3-0.5
		c-0.1-0.1-0.3-0.1-0.6-0.1H361.4z"/>
	<path class="st0" d="M376.1,165.1l-4.9-9.7v8.5c0,0.3,0,0.5,0.1,0.6s0.3,0.2,0.5,0.3v0.3h-2.5v-0.3c0.3-0.1,0.4-0.2,0.5-0.3
		c0.1-0.1,0.1-0.3,0.1-0.6v-9.1c0-0.3,0-0.5-0.1-0.6s-0.3-0.2-0.5-0.3v-0.3h3.5v0.3c-0.3,0.1-0.5,0.3-0.5,0.5c0,0.1,0.1,0.3,0.3,0.6
		l3.6,7.3l3.6-7.3c0.2-0.3,0.2-0.5,0.2-0.6c0-0.2-0.2-0.3-0.5-0.5v-0.3h3.5v0.3c-0.3,0.1-0.4,0.2-0.5,0.3c-0.1,0.1-0.1,0.3-0.1,0.6
		v9.1c0,0.3,0,0.5,0.1,0.6s0.3,0.2,0.5,0.3v0.3h-2.8v-0.3c0.3-0.1,0.4-0.2,0.5-0.3c0.1-0.1,0.1-0.3,0.1-0.6v-8.5L376.1,165.1z"/>
	<path class="st0" d="M389.2,159.8v4.2h7.1c0.3,0,0.5,0,0.6-0.1s0.2-0.3,0.3-0.5h0.3v2.4h-0.3c-0.1-0.3-0.1-0.4-0.3-0.5
		c-0.1-0.1-0.3-0.1-0.6-0.1h-9.2v-0.3c0.3-0.1,0.4-0.2,0.5-0.3c0.1-0.1,0.1-0.3,0.1-0.6v-9.1c0-0.3,0-0.5-0.1-0.6s-0.3-0.2-0.5-0.3
		v-0.3h9.1c0.3,0,0.5,0,0.6-0.1s0.2-0.3,0.3-0.5h0.3v2.4h-0.3c-0.1-0.3-0.2-0.4-0.3-0.5c-0.1-0.1-0.3-0.1-0.6-0.1h-7v3.9h4.5
		c0.3,0,0.5,0,0.6-0.1s0.2-0.3,0.3-0.5h0.3v2.4h-0.3c-0.1-0.3-0.2-0.4-0.3-0.5c-0.1-0.1-0.3-0.1-0.6-0.1h-4.5V159.8z"/>
	<path class="st0" d="M403,155.5v8.5c0,0.3,0,0.5,0.1,0.6s0.3,0.2,0.5,0.3v0.3h-2.5v-0.3c0.3-0.1,0.4-0.2,0.5-0.3
		c0.1-0.1,0.1-0.3,0.1-0.6v-9.2c0-0.3,0-0.5-0.1-0.6s-0.3-0.2-0.5-0.3v-0.3h3.7v0.3c-0.4,0.1-0.5,0.3-0.5,0.5s0.1,0.4,0.4,0.7
		l6.8,7.6v-8c0-0.3,0-0.5-0.1-0.6s-0.3-0.2-0.5-0.3v-0.3h2.5v0.3c-0.3,0.1-0.4,0.2-0.5,0.3c-0.1,0.1-0.1,0.3-0.1,0.6v9.2
		c0,0.3,0,0.5,0.1,0.6s0.3,0.2,0.5,0.3v0.3h-3v-0.3c0.4-0.1,0.5-0.2,0.5-0.4c0-0.1-0.2-0.4-0.5-0.8L403,155.5z"/>
	<path class="st0" d="M422.7,154.8v9.1c0,0.3,0,0.5,0.1,0.6s0.3,0.2,0.5,0.3v0.3h-2.8v-0.3c0.3-0.1,0.4-0.2,0.5-0.3
		c0.1-0.1,0.1-0.3,0.1-0.6v-9.1h-3.7c-0.3,0-0.5,0-0.6,0.1s-0.2,0.3-0.3,0.5h-0.3V153h0.3c0.1,0.3,0.2,0.4,0.3,0.5
		c0.1,0.1,0.3,0.1,0.6,0.1h8.9c0.3,0,0.5,0,0.6-0.1s0.2-0.3,0.3-0.5h0.3v2.4h-0.3c-0.1-0.3-0.2-0.4-0.3-0.5
		c-0.1-0.1-0.3-0.1-0.6-0.1H422.7z"/>
	<path class="st0" d="M443.9,152.5v11.4c0,0.3,0,0.5,0.1,0.6s0.3,0.2,0.5,0.3v0.3h-2.9v-0.3c0.3-0.1,0.4-0.2,0.5-0.3
		c0.1-0.1,0.1-0.3,0.1-0.6v-11.4h-4.7c-0.3,0-0.5,0-0.6,0.1s-0.2,0.3-0.3,0.5h-0.3v-2.6h0.3c0.1,0.3,0.2,0.4,0.3,0.5
		c0.1,0.1,0.3,0.1,0.6,0.1h11.1c0.3,0,0.5,0,0.6-0.1s0.2-0.3,0.3-0.5h0.3v2.6h-0.3c-0.1-0.3-0.2-0.4-0.3-0.5
		c-0.1-0.1-0.3-0.1-0.6-0.1H443.9z"/>
	<path class="st0" d="M453,159.9v4c0,0.3,0,0.5,0.1,0.6s0.3,0.2,0.5,0.3v0.3h-2.8v-0.3c0.3-0.1,0.4-0.2,0.5-0.3
		c0.1-0.1,0.1-0.3,0.1-0.6v-9.1c0-0.3,0-0.5-0.1-0.6s-0.3-0.2-0.5-0.3v-0.3h6.8c0.8,0,1.4,0.1,1.9,0.2s0.9,0.3,1.3,0.6
		c0.8,0.6,1.2,1.4,1.2,2.5c0,0.9-0.3,1.6-0.8,2.1c-0.6,0.5-1.4,0.8-2.4,0.9l2.9,4.6c0.1,0.2,0.2,0.3,0.3,0.3
		c0.1,0.1,0.3,0.1,0.5,0.1v0.3h-2.8v-0.3c0.3-0.1,0.4-0.1,0.4-0.3c0-0.1-0.1-0.2-0.2-0.5l-2.6-4.2L453,159.9L453,159.9z M453,158.8
		h4.4c0.7,0,1.2,0,1.6-0.1s0.7-0.1,0.9-0.3c0.5-0.3,0.8-0.8,0.8-1.6c0-0.7-0.3-1.3-0.8-1.6c-0.5-0.3-1.3-0.5-2.4-0.5H453V158.8z"/>
	<path class="st0" d="M467.6,154.8v5.9c0,0.9,0,1.5,0.1,1.9c0.1,0.3,0.3,0.6,0.6,0.9c0.6,0.5,1.7,0.7,3.2,0.7c1.6,0,2.8-0.3,3.3-0.9
		c0.2-0.2,0.3-0.5,0.4-0.8s0.1-0.9,0.1-1.7v-5.9c0-0.3,0-0.5-0.1-0.6s-0.3-0.2-0.5-0.3v-0.3h2.5v0.3c-0.3,0.1-0.4,0.2-0.5,0.3
		c-0.1,0.1-0.1,0.3-0.1,0.6v6.2c0,1-0.1,1.8-0.3,2.2c-0.3,0.7-0.9,1.3-1.6,1.6c-0.8,0.3-1.9,0.5-3.3,0.5c-2,0-3.4-0.4-4.2-1.1
		c-0.4-0.4-0.6-0.8-0.8-1.2c-0.1-0.4-0.2-1.1-0.2-2.1v-6.2c0-0.3,0-0.5-0.1-0.6s-0.3-0.2-0.5-0.3v-0.3h2.8v0.3
		c-0.3,0.1-0.4,0.2-0.5,0.3C467.6,154.3,467.6,154.5,467.6,154.8"/>
	<path class="st0" d="M491.9,154.3l-1.1,2.2l-0.2-0.1c0-0.2,0-0.3,0-0.4c0-0.2-0.2-0.4-0.7-0.6c-0.9-0.5-2.1-0.8-3.4-0.8
		c-1.1,0-2,0.2-2.8,0.6s-1.1,1-1.1,1.7c0,0.3,0.1,0.6,0.3,0.9c0.2,0.3,0.4,0.5,0.8,0.6c0.3,0.1,0.7,0.2,1,0.2c0.4,0,1.2,0.1,2.4,0.1
		c1,0,1.8,0.1,2.3,0.2s1,0.2,1.4,0.5c0.4,0.2,0.7,0.6,1,1c0.2,0.4,0.3,0.9,0.3,1.4c0,1.1-0.4,1.9-1.3,2.5c-1,0.7-2.4,1.1-4.1,1.1
		c-0.8,0-1.7-0.1-2.7-0.4c-0.9-0.3-1.8-0.6-2.6-1.1c-0.1-0.1-0.2-0.1-0.2-0.1c-0.1,0-0.3,0.1-0.5,0.4l-0.2-0.2l1.3-2.2l0.2,0.1
		c0,0.1,0,0.1,0,0.2s0,0.2,0,0.3c0,0.2,0.3,0.5,1,0.8c1.2,0.6,2.4,0.9,3.7,0.9c1.2,0,2.1-0.2,2.9-0.6c0.4-0.2,0.7-0.5,0.9-0.8
		c0.2-0.3,0.3-0.7,0.3-1s-0.1-0.6-0.3-0.9c-0.2-0.3-0.4-0.4-0.7-0.6c-0.3-0.1-0.6-0.2-0.9-0.2s-1-0.1-2-0.1c-1.1,0-1.9-0.1-2.4-0.2
		s-0.9-0.2-1.4-0.3c-0.5-0.2-1-0.5-1.3-1s-0.5-1-0.5-1.6c0-1.1,0.5-2,1.5-2.6s2.3-1,3.9-1c1.4,0,2.9,0.3,4.3,1
		c0.2,0.1,0.3,0.1,0.4,0.1c0.1,0,0.2-0.1,0.4-0.4L491.9,154.3z"/>
	<path class="st0" d="M501.2,154.8v9.1c0,0.3,0,0.5,0.1,0.6s0.3,0.2,0.5,0.3v0.3h-2.7v-0.3c0.3-0.1,0.4-0.2,0.5-0.3
		c0.1-0.1,0.1-0.3,0.1-0.6v-9.1H496c-0.3,0-0.5,0-0.6,0.1s-0.2,0.3-0.3,0.5h-0.3V153h0.3c0.1,0.3,0.2,0.4,0.3,0.5s0.3,0.1,0.6,0.1
		h8.9c0.3,0,0.5,0,0.6-0.1s0.2-0.3,0.3-0.5h0.3v2.4h-0.3c-0.1-0.3-0.2-0.4-0.3-0.5s-0.3-0.1-0.6-0.1H501.2z"/>
</g>
</svg>
