<?xml version="1.0" encoding="utf-8"?>
<!-- Generator: Adobe Illustrator 22.1.0, SVG Export Plug-In . SVG Version: 6.00 Build 0)  -->
<svg version="1.1" id="Layer_1" xmlns="http://www.w3.org/2000/svg" xmlns:xlink="http://www.w3.org/1999/xlink" x="0px" y="0px"
	 viewBox="0 0 117 117" style="enable-background:new 0 0 117 117;" xml:space="preserve">
<g id="Data_file">
	<path d="M9.8,11.7h1.9c1.1,0,1.9-0.9,1.9-1.9s-0.9-1.9-1.9-1.9H9.8c-1.1,0-1.9,0.9-1.9,1.9S8.7,11.7,9.8,11.7z"/>
	<path d="M19.5,11.7h2c1.1,0,1.9-0.9,1.9-1.9s-0.9-1.9-1.9-1.9h-2c-1.1,0-2,0.9-2,1.9S18.4,11.7,19.5,11.7z"/>
	<path d="M29.3,11.7h2c1.1,0,2-0.9,2-1.9s-0.9-1.9-2-1.9h-2c-1.1,0-2,0.9-2,1.9S28.2,11.7,29.3,11.7z"/>
	<path d="M111.2,31.2h-9.8V5.8c0-3.2-2.6-5.8-5.8-5.8H5.8C2.6,0,0,2.6,0,5.8v74.1c0,3.2,2.6,5.9,5.8,5.9h9.8v25.3
		c0,3.2,2.6,5.8,5.9,5.8h89.7c3.2,0,5.8-2.6,5.8-5.8V37C117,33.8,114.4,31.2,111.2,31.2z M113.1,37v9.8H19.5V37c0-1.1,0.9-2,2-2
		h89.7C112.2,35.1,113.1,36,113.1,37z M5.8,3.9h89.7c1.1,0,1.9,0.9,1.9,1.9v9.8H3.9V5.8C3.9,4.8,4.8,3.9,5.8,3.9z M5.8,81.9
		c-1.1,0-1.9-0.9-1.9-2V19.5h93.6v11.7H21.5c-3.2,0-5.9,2.6-5.9,5.8v44.9H5.8z M111.2,113.1H21.5c-1.1,0-2-0.9-2-1.9V50.7h93.6v60.5
		C113.1,112.2,112.2,113.1,111.2,113.1z"/>
	<path d="M27.3,39h-1.9c-1.1,0-2,0.9-2,2s0.9,2,2,2h1.9c1.1,0,2-0.9,2-2S28.4,39,27.3,39z"/>
	<path d="M37,39h-2c-1.1,0-1.9,0.9-1.9,2s0.9,2,1.9,2h2c1.1,0,2-0.9,2-2S38.1,39,37,39z"/>
	<path d="M46.8,39h-2c-1.1,0-1.9,0.9-1.9,2s0.9,2,1.9,2h2c1.1,0,2-0.9,2-2S47.9,39,46.8,39z"/>
	<g>
		<g>
			<path d="M66.4,103.5c-11.8,0-21.3-9.6-21.3-21.3s9.6-21.3,21.3-21.3s21.3,9.6,21.3,21.3S78.1,103.5,66.4,103.5z M66.4,63.8
				C56.2,63.8,48,72,48,82.2s8.2,18.4,18.4,18.4s18.4-8.2,18.4-18.4S76.5,63.8,66.4,63.8z"/>
		</g>
		<g>
			<path d="M73.1,95.4c-0.6,0-1.1-0.4-1.4-0.9l-4.2-10.1l-3.8,10c-0.2,0.6-0.7,0.9-1.3,0.9c-0.6,0-1.1-0.4-1.4-0.9l-7.8-18.8
				c-0.2-0.4-0.2-0.8,0-1.1c0.1-0.4,0.4-0.6,0.8-0.8c0.2-0.1,0.4-0.1,0.6-0.1c0.6,0,1.1,0.4,1.4,0.9L62.3,90l3.6-9.5l-2-4.7
				c-0.2-0.4-0.2-0.8,0-1.1c0.1-0.4,0.4-0.6,0.8-0.8c0.2-0.1,0.4-0.1,0.6-0.1c0.6,0,1.1,0.4,1.4,0.9L73,90l4.8-12.6l-2.1-3.2
				c-0.2-0.3-0.3-0.7-0.2-1.1c0.1-0.4,0.3-0.7,0.6-0.9c0.2-0.2,0.5-0.2,0.8-0.2c0.5,0,1,0.2,1.2,0.7l2.5,3.8
				c0.3,0.4,0.3,0.9,0.1,1.3l-6.4,16.7C74.3,95,73.7,95.4,73.1,95.4L73.1,95.4L73.1,95.4z"/>
		</g>
	</g>
</g>
</svg>
