<?xml version="1.0" encoding="utf-8"?>
<!-- Generator: Adobe Illustrator 22.1.0, SVG Export Plug-In . SVG Version: 6.00 Build 0)  -->
<svg version="1.1" id="Layer_1" xmlns="http://www.w3.org/2000/svg" xmlns:xlink="http://www.w3.org/1999/xlink" x="0px" y="0px"
	 viewBox="0 0 106.4 98.9" style="enable-background:new 0 0 106.4 98.9;" xml:space="preserve">
<g>
	<path d="M1.5,78.7C0.7,78.7,0,78,0,77.1c0-7.6,6.2-13.8,13.8-13.8c0.9,0,1.5,0.7,1.5,1.5s-0.7,1.5-1.5,1.5
		c-5.9,0-10.7,4.8-10.7,10.7C3.1,78,2.4,78.7,1.5,78.7z"/>
</g>
<g>
	<path d="M13.8,66.4c-0.9,0-1.5-0.7-1.5-1.5s0.7-1.5,1.5-1.5l8.2,0c0.9,0,1.5,0.7,1.5,1.5s-0.7,1.5-1.5,1.5l0,0L13.8,66.4z"/>
</g>
<g>
	<path d="M1.5,94.8c-0.9,0-1.5-0.7-1.5-1.5V77.7c0-0.9,0.7-1.5,1.5-1.5s1.5,0.7,1.5,1.5v15.5C3.1,94.1,2.4,94.8,1.5,94.8z"/>
</g>
<g>
	<path d="M62.8,78.7c-0.9,0-1.5-0.7-1.5-1.5c0-5.9-4.8-10.7-10.7-10.7c-0.9,0-1.5-0.7-1.5-1.5s0.7-1.5,1.5-1.5
		c7.6,0,13.8,6.2,13.8,13.8C64.4,78,63.7,78.7,62.8,78.7z"/>
</g>
<g>
	<path d="M42.4,66.4c-0.9,0-1.5-0.7-1.5-1.5s0.7-1.5,1.5-1.5l8.2,0c0.9,0,1.5,0.7,1.5,1.5s-0.7,1.5-1.5,1.5L42.4,66.4z"/>
</g>
<g>
	<path d="M62.8,94.8c-0.9,0-1.5-0.7-1.5-1.5V77.7c0-0.9,0.7-1.5,1.5-1.5s1.5,0.7,1.5,1.5v15.5C64.4,94.1,63.7,94.8,62.8,94.8z"/>
</g>
<g>
	<path d="M5.6,98.9c-0.9,0-1.5-0.7-1.5-1.5s0.7-1.5,1.5-1.5h53.1c0.9,0,1.5,0.7,1.5,1.5s-0.7,1.5-1.5,1.5H5.6z"/>
</g>
<g>
	<path d="M22,66.4c-0.9,0-1.5-0.7-1.5-1.5v-6.5c0-0.9,0.7-1.5,1.5-1.5s1.5,0.7,1.5,1.5v6.5C23.5,65.7,22.8,66.4,22,66.4z"/>
</g>
<g>
	<path d="M42.4,66.4c-0.9,0-1.5-0.7-1.5-1.5v-6.5c0-0.9,0.7-1.5,1.5-1.5s1.5,0.7,1.5,1.5v6.5C43.9,65.7,43.2,66.4,42.4,66.4z"/>
</g>
<g>
	<path d="M32.2,62.3c-13.2,0-24-10.8-24-24c0-0.9,0.7-1.5,1.5-1.5s1.5,0.7,1.5,1.5c0,11.5,9.4,20.9,20.9,20.9
		c11.5,0,20.9-9.4,20.9-20.9c0-0.9,0.7-1.5,1.5-1.5s1.5,0.7,1.5,1.5C56.2,51.5,45.4,62.3,32.2,62.3z"/>
</g>
<g>
	<path d="M9.7,39.9c-0.9,0-1.5-0.7-1.5-1.5V19.9c0-0.9,0.7-1.5,1.5-1.5s1.5,0.7,1.5,1.5v18.4C11.3,39.2,10.6,39.9,9.7,39.9z"/>
</g>
<g>
	<path d="M54.6,39.9c-0.9,0-1.5-0.7-1.5-1.5V19.9c0-0.9,0.7-1.5,1.5-1.5s1.5,0.7,1.5,1.5v18.4C56.2,39.2,55.5,39.9,54.6,39.9z"/>
</g>
<g>
	<path d="M54.6,21.5c-0.9,0-1.5-0.7-1.5-1.5c0-4.8-3.9-8.7-8.7-8.7c-0.9,0-1.5-0.7-1.5-1.5s0.7-1.5,1.5-1.5
		c6.5,0,11.8,5.3,11.8,11.8C56.2,20.8,55.5,21.5,54.6,21.5z"/>
</g>
<g>
	<path d="M44.4,11.3c-0.9,0-1.5-0.7-1.5-1.5V1.5c0-0.9,0.7-1.5,1.5-1.5S46,0.7,46,1.5v8.2C46,10.6,45.3,11.3,44.4,11.3z"/>
</g>
<g>
	<path d="M28.1,3.1c-0.9,0-1.5-0.7-1.5-1.5S27.2,0,28.1,0h16.3C45.3,0,46,0.7,46,1.5s-0.7,1.5-1.5,1.5H28.1z"/>
</g>
<g>
	<path d="M9.7,21.5c-0.9,0-1.5-0.7-1.5-1.5C8.2,8.9,17.1,0,28.1,0c0.9,0,1.5,0.7,1.5,1.5s-0.7,1.5-1.5,1.5
		c-9.3,0-16.8,7.6-16.8,16.8C11.3,20.8,10.6,21.5,9.7,21.5z"/>
</g>
<g>
	<path d="M54.6,31.7c-0.4,0-0.8-0.2-1.1-0.5l-6.1-6.1C47.1,24.8,47,24.4,47,24c0-0.4,0.2-0.8,0.5-1.1s0.7-0.5,1.1-0.5
		c0.4,0,0.8,0.2,1.1,0.5l6.1,6.1c0.3,0.3,0.5,0.7,0.5,1.1s-0.2,0.8-0.5,1.1C55.4,31.5,55.1,31.7,54.6,31.7z"/>
</g>
<g>
	<path d="M32.2,29.6c-9,0-16.7-4.1-17.1-4.3c-0.7-0.4-1-1.3-0.6-2.1c0.3-0.5,0.8-0.8,1.4-0.8c0.3,0,0.5,0.1,0.7,0.2
		c0.1,0,7.4,3.9,15.6,3.9c8.3,0,15.6-3.9,15.6-3.9c0.2-0.1,0.5-0.2,0.7-0.2c0.6,0,1.1,0.3,1.4,0.8c0.2,0.4,0.2,0.8,0.1,1.2
		c-0.1,0.4-0.4,0.7-0.7,0.9C49.2,25.4,41.3,29.6,32.2,29.6z"/>
</g>
<g>
	<path d="M9.7,31.7c-0.4,0-0.8-0.2-1.1-0.5c-0.3-0.3-0.5-0.7-0.5-1.1s0.2-0.8,0.5-1.1l6.1-6.1c0.3-0.3,0.7-0.5,1.1-0.5
		c0.4,0,0.8,0.2,1.1,0.5s0.5,0.7,0.5,1.1c0,0.4-0.2,0.8-0.5,1.1l-6.1,6.1C10.5,31.5,10.1,31.7,9.7,31.7z"/>
</g>
<g>
	<path d="M26.1,70.5c-0.4,0-0.8-0.2-1.1-0.5L20.9,66c-0.6-0.6-0.6-1.6,0-2.2c0.3-0.3,0.7-0.5,1.1-0.5c0.4,0,0.8,0.2,1.1,0.5l4.1,4.1
		c0.6,0.6,0.6,1.6,0,2.2C26.9,70.3,26.5,70.5,26.1,70.5z"/>
</g>
<g>
	<path d="M26.1,70.5c-0.7,0-1.3-0.4-1.5-1.1c-0.1-0.4-0.1-0.8,0.1-1.2c0.2-0.4,0.5-0.6,0.9-0.8l6.1-2c0.2-0.1,0.3-0.1,0.5-0.1
		c0.7,0,1.2,0.4,1.5,1.1c0.1,0.4,0.1,0.8-0.1,1.2s-0.5,0.6-0.9,0.8l-6.1,2C26.4,70.5,26.2,70.5,26.1,70.5z"/>
</g>
<g>
	<path d="M38.3,70.5c-0.4,0-0.8-0.2-1.1-0.5c-0.6-0.6-0.6-1.6,0-2.2l4.1-4.1c0.3-0.3,0.7-0.5,1.1-0.5c0.4,0,0.8,0.2,1.1,0.5
		c0.6,0.6,0.6,1.6,0,2.2L39.4,70C39.1,70.3,38.7,70.5,38.3,70.5z"/>
</g>
<g>
	<path d="M38.3,70.5c-0.2,0-0.3,0-0.5-0.1l-6.1-2c-0.4-0.1-0.7-0.4-0.9-0.8c-0.2-0.4-0.2-0.8-0.1-1.2c0.2-0.6,0.8-1.1,1.5-1.1
		c0.2,0,0.3,0,0.5,0.1l6.1,2c0.4,0.1,0.7,0.4,0.9,0.8c0.2,0.4,0.2,0.8,0.1,1.2C39.6,70.1,39,70.5,38.3,70.5z"/>
</g>
<g>
	<path d="M58.7,98.9c-0.9,0-1.5-0.7-1.5-1.5s0.7-1.5,1.5-1.5c1.4,0,2.5-1.1,2.5-2.5c0-0.9,0.7-11.5,1.5-11.5s1.5,10.7,1.5,11.5
		C64.4,96.3,61.8,98.9,58.7,98.9z"/>
</g>
<g>
	<path d="M5.6,98.9c-3.1,0-5.6-2.5-5.6-5.6c0-0.9,0.7-11.5,1.5-11.5s1.5,10.7,1.5,11.5c0,1.4,1.1,2.5,2.5,2.5c0.9,0,1.5,0.7,1.5,1.5
		S6.5,98.9,5.6,98.9z"/>
</g>
<g>
	<path d="M32.2,78.7c-0.9,0-1.6-0.7-1.6-1.5s0.7-1.5,1.5-1.5c0.9,0,1.6,0.7,1.6,1.5S33.1,78.7,32.2,78.7z"/>
</g>
<g>
	<path d="M82.9,73.6c-12.9,0-23.4-10.5-23.4-23.4c0-12.9,10.5-23.4,23.4-23.4c12.9,0,23.4,10.5,23.4,23.4
		C106.4,63.1,95.9,73.6,82.9,73.6L82.9,73.6z M82.9,29.3c-11.5,0-20.9,9.4-20.9,20.9c0,11.5,9.4,20.9,20.9,20.9
		c11.5,0,20.9-9.4,20.9-20.9C103.8,38.6,94.4,29.3,82.9,29.3z"/>
</g>
<g>
	<path d="M88.9,61.5c-0.5,0-1-0.3-1.2-0.8l-4.2-10l-3.8,10c-0.2,0.5-0.7,0.9-1.2,0.9c-0.6,0-1.1-0.3-1.3-0.8l-7.6-18.3
		c-0.1-0.3-0.1-0.7,0-1c0.1-0.3,0.4-0.6,0.7-0.7c0.2-0.1,0.3-0.1,0.5-0.1c0.5,0,1,0.3,1.2,0.8l6.3,15.2L82,47L80,42.4
		c-0.1-0.3-0.1-0.7,0-1c0.1-0.3,0.4-0.6,0.7-0.7c0.2-0.1,0.3-0.1,0.5-0.1c0.5,0,1,0.3,1.2,0.8l6.3,15.2L93.6,44l-2.1-3.1
		c-0.2-0.3-0.3-0.7-0.2-1c0.1-0.3,0.3-0.7,0.6-0.9c0.2-0.1,0.5-0.2,0.7-0.2c0.5,0,0.9,0.2,1.1,0.6l2.5,3.7c0.2,0.4,0.3,0.8,0.1,1.2
		l-6.2,16.3C90,61.1,89.5,61.5,88.9,61.5L88.9,61.5L88.9,61.5z"/>
</g>
</svg>
