<?xml version="1.0" encoding="utf-8"?>
<!-- Generator: Adobe Illustrator 22.1.0, SVG Export Plug-In . SVG Version: 6.00 Build 0)  -->
<svg version="1.1" id="Layer_1" xmlns="http://www.w3.org/2000/svg" xmlns:xlink="http://www.w3.org/1999/xlink" x="0px" y="0px"
	 viewBox="0 0 118 118" style="enable-background:new 0 0 118 118;" xml:space="preserve">
<g>
	<path d="M59,104c-24.8,0-45-20.2-45-45c0-24.8,20.2-45,45-45s45,20.2,45,45C104,83.8,83.8,104,59,104z M59,17.2
		c-23.1,0-41.8,18.8-41.8,41.8s18.8,41.8,41.8,41.8s41.8-18.8,41.8-41.8S82.1,17.2,59,17.2z M59,92.2c-12.4,0-22.9-5.9-28.8-16.2
		l-0.1-0.1c-2.8-5-4.3-10.9-4.3-16.8c0-18.3,14.9-33.2,33.2-33.2c18.3,0,33.2,14.9,33.2,33.2C92.2,77.9,77.9,92.2,59,92.2z
		 M38.4,81.4c2.6,2.3,4.4,3.3,4.5,3.3C47.6,87.5,53,89,59,89c10.8,0,20.1-4.9,25.4-13.3l0.2-0.3L81.1,73l-0.2,0.3
		C78.2,77.2,70.4,86.2,57,86.2c-4.9,0-9.6-0.7-13.8-2.2C43,84,40.9,83.1,38.4,81.4z M39.3,78.4c2.3,1.8,5,2.7,5,2.7
		c3.9,1.3,8.2,2,12.7,2c14.7,0,22.2-12.9,22.3-13l0.8-1.5l5.9,3.9l0.2-0.4C88.1,68,89,63.6,89,59c0-1.2-0.1-2.5-0.3-4l0-0.3h-8.4
		l0,0.4c-0.4,4.7-2.3,16.2-12.5,23.1c-3.3,2.2-7.7,3.4-13,3.4c-3.1,0-6.4-0.4-10.2-1.1C44.4,80.3,42.1,79.7,39.3,78.4z M42.8,76.6
		c2.7,0.8,5.4,1.1,5.4,1.1c2.2,0.3,4.4,0.5,6.3,0.5c4.8,0,8.7-0.9,11.4-2.7c10.8-7.2,11.2-21.8,11.2-22.4l0-1.6H88L87.9,51
		c-1.3-4.9-3.9-9.4-7.4-12.9l-0.2-0.3l-9.5,7.9l0.1,0.3c1.4,3.8,3.7,13.8-4.7,23.9c-3.8,4.6-9.8,6.9-17.8,7.1c0,0-0.3,0-0.8,0
		C46.5,77,44.8,76.9,42.8,76.6z M31.4,71.4c1.2,0.3,8.2,2,13.1,2.3c1,0.1,2,0.1,3,0.1c7.3,0,12.9-2.1,16.2-5.9
		c4.8-5.8,5.6-11.5,5.4-15.2c-0.2-4-1.6-6.7-1.6-6.8l-0.6-1.1l11-9.1l-0.4-0.3C72.2,31.2,65.8,29,59,29c-16.8,0-30,13.2-30,30
		C29,63.3,29.8,67.5,31.4,71.4z"/>
</g>
<g>
	<g>
		<path d="M59,119C25.9,119-1,92.1-1,59c0-4.8,0.7-9.7,2-15c0.2-0.8,0.9-1.3,1.7-1.3c0.2,0,0.3,0,0.4,0.1c0.5,0.1,0.9,0.4,1.1,0.8
			c0.2,0.4,0.3,0.9,0.2,1.4c-1.3,5-1.9,9.6-1.9,14.1c0,31.1,25.3,56.4,56.4,56.4c17.5,0,34.3-8.4,44.9-22.5l2.3-3.1h-7.3
			c-1,0-1.8-0.8-1.8-1.8s0.8-1.8,1.8-1.8h10.9c0.5,0,1,0.2,1.4,0.6s0.5,0.9,0.4,1.4l0,10.7c0,1-0.8,1.8-1.8,1.8
			c-1,0-1.8-0.8-1.8-1.8l0-5.2l-3.4,4c-4.4,5.2-9.5,9.5-15.3,12.9C80.2,116.1,69.7,119,59,119z"/>
	</g>
	<g>
		<path d="M115.2,75.3c-0.2,0-0.3,0-0.4-0.1c-0.5-0.1-0.9-0.4-1.1-0.8c-0.2-0.4-0.3-0.9-0.2-1.4c1.3-5,1.9-9.6,1.9-14.1
			c0-31.1-25.3-56.4-56.4-56.4c-17.5,0-34.3,8.4-44.9,22.5l-2.3,3.1h7.4c1,0,1.8,0.8,1.8,1.8s-0.8,1.8-1.8,1.8H8.7
			c-0.3,0-0.4,0-0.5,0c-1,0-1.8-0.8-1.8-1.8V19.1c0-1,0.8-1.8,1.8-1.8c1,0,1.8,0.8,1.8,1.8l0.1,5.1l3.3-3.9
			c4.4-5.2,9.5-9.5,15.3-12.9C37.8,1.9,48.3-1,59-1c33.1,0,60,26.9,60,60c0,4.8-0.7,9.7-2,15C116.8,74.8,116.1,75.3,115.2,75.3z"/>
	</g>
</g>
</svg>
