<?xml version="1.0" encoding="utf-8"?>
<!-- Generator: Adobe Illustrator 23.1.0, SVG Export Plug-In . SVG Version: 6.00 Build 0)  -->
<svg version="1.1" id="Layer_1" xmlns="http://www.w3.org/2000/svg" xmlns:xlink="http://www.w3.org/1999/xlink" x="0px" y="0px"
	 viewBox="0 0 1240.9 351.9" style="enable-background:new 0 0 1240.9 351.9;" xml:space="preserve">
<style type="text/css">
	.st0{fill:#6E7485;}
</style>
<title>tropicana-brand-group</title>
<g>
	<path class="st0" d="M534,328.6v6.9h-11.7v-73h12.3v25.1c4.6-5.3,11.3-8.2,18.3-8.1c15.1,0,25.4,12.8,25.4,28.6
		s-10.3,28.5-25.4,28.5C545.2,336.6,538.5,333.8,534,328.6 M565.8,308.1c0-9.6-6.7-16.8-16-16.8c-8.8,0-15.2,7.1-15.2,16.8
		s6.5,16.6,15.2,16.6C559.1,324.8,565.8,317.8,565.8,308.1"/>
	<path class="st0" d="M589.3,280.6h12.3v10.9c2.1-5.5,8.1-12,19.9-12v13.4c-12.1,0-19.9,5.8-19.9,20.2v22.4h-12.3V280.6z"/>
	<path class="st0" d="M627,308.1c0-15.9,10.3-28.6,25.4-28.6c7-0.1,13.7,2.8,18.3,8.1v-7H683v54.9h-12.3v-6.9
		c-4.3,5.1-10.9,8-18.3,8C637.3,336.6,627,323.9,627,308.1 M670.8,308.1c0-9.6-6.4-16.8-15.2-16.8c-9.3,0-16,7.1-16,16.8
		s6.7,16.6,16,16.6C664.2,324.8,670.8,317.9,670.8,308.1"/>
	<path class="st0" d="M696.5,280.6h12.3v7.9c4.1-6.1,10.4-9,17.8-9c14.9,0,19.8,9.9,19.8,24.5v31.5H734v-30c0-9-2-14.2-11.2-14.2
		c-8.1,0-14,6.3-14,15.4v28.7h-12.3V280.6z"/>
	<path class="st0" d="M756.7,308.1c0-15.9,10.3-28.6,25.4-28.6c7-0.1,13.7,2.8,18.3,8.1v-25.1h12.3v73H801v-6.9
		c-4.4,5.1-11.2,8-18.9,8C767,336.6,756.7,323.9,756.7,308.1 M800.5,308.1c0-9.6-6.4-16.8-15.2-16.8c-9.3,0-16,7.1-16,16.8
		s6.7,16.6,16,16.6C793.9,324.8,800.5,317.9,800.5,308.1"/>
	<path class="st0" d="M822.6,328.6l4.7-10.1c4.8,4.2,11,6.5,17.4,6.5c5,0,10.9-1.9,10.9-5.8s-5.5-5-11-6.5
		c-10.4-2.9-19.3-6-19.3-16.8s11-16.5,20.6-16.5c8.2,0,13.7,2.1,19.6,5.7l-4.5,10c-4.5-2.7-9.7-4.2-15-4.1c-4.1,0-8.2,1.9-8.2,4.8
		c0,3.8,4.5,4.7,9.4,5.7c10.2,2.2,20.9,6.3,20.9,17.6c0,12.9-13.2,17.5-23.4,17.5C833.3,336.6,825.6,331.5,822.6,328.6"/>
	<path class="st0" d="M907.2,344.5l4.8-7.8c4.3,3.8,10.8,5.7,16.4,5.7c11.8,0,17.5-7.5,17.5-18.8v-0.4c-2.2,4.4-8.1,9.4-18.1,9.4
		c-15.2,0-25.2-11.8-25.2-26.5s10-26.6,25.2-26.6c8.3,0,15.8,3.9,18.7,9.3v-8.2h11.8V323c0,19.2-12.9,28.9-28.6,28.9
		C920.2,351.9,912.3,349.1,907.2,344.5 M945.9,305.7c0.1-8.4-6.6-15.3-14.9-15.4c-0.2,0-0.3,0-0.5,0c-8.7,0-15.3,6.8-15.3,15.9
		s6.7,15.8,15.3,15.8C939.4,321.9,945.9,315.2,945.9,305.7"/>
	<path class="st0" d="M971.6,280.6h12.3v10.9c2.1-5.5,8.1-12,19.9-12v13.4c-12.1,0-19.9,5.8-19.9,20.2v22.4h-12.3V280.6z"/>
	<path class="st0" d="M1009,308.1c0-16,13-28.6,29.2-28.6s29.2,12.6,29.2,28.6s-13,28.5-29.2,28.5S1009,324,1009,308.1
		 M1054.8,308.1c0-9.2-7.5-16.6-16.7-16.6s-16.6,7.5-16.6,16.6c0,9.2,7.5,16.6,16.6,16.6c0,0,0,0,0,0c9,0.2,16.5-7,16.6-16
		C1054.8,308.6,1054.8,308.3,1054.8,308.1"/>
	<path class="st0" d="M1077.4,314v-33.4h12.3v31.6c0,8.8,3.9,12.5,11.5,12.5c8.6,0,13.1-7.1,13.1-15v-29.2h12.3v54.9H1115v-8.4
		c-3.3,6-11,9.5-17.6,9.5C1082.8,336.6,1077.4,328.4,1077.4,314"/>
	<path class="st0" d="M1140.1,280.6h11.8v6.9c4.4-5.1,11.2-8,18.9-8c15.1,0,25.4,12.8,25.4,28.5s-10.3,28.6-25.4,28.6
		c-7,0.1-13.7-2.8-18.3-8.1v22.9h-12.3V280.6z M1183.6,308c0-9.6-6.7-16.6-16-16.6c-8.7,0-15.2,6.9-15.2,16.6s6.4,16.8,15.2,16.8
		C1176.9,324.8,1183.6,317.7,1183.6,308"/>
	<path class="st0" d="M300.8,80.9c-39.1,0-71,32.2-71,71.7s31.8,71.7,71,71.7s71-32.2,71-71.7S340,80.9,300.8,80.9 M300.8,189.2
		c-20.2,0-36.5-16.3-36.5-36.5s16.3-36.5,36.5-36.5c20.2,0,36.5,16.3,36.5,36.5c0,0,0,0,0,0C337.3,172.8,321,189.1,300.8,189.2"/>
	<path class="st0" d="M880.5,85.2c-11-2.8-22.6-2.8-33.6,0c-2.6,0.6-4.2,3.2-3.8,5.8c0.6,3.6,1,7.6,1.3,11.4
		C831,87.2,813,82.2,804.3,82.2c-38,0-62.6,31.5-62.6,70.5s24.7,70.5,62.6,70.5c8.8,0,27.3-5.3,40.9-21v13.1c0,3,2.5,5.5,5.5,5.5
		l0,0h26.1c3,0,5.5-2.5,5.5-5.5l0,0v-96.6c0-9.2,0.7-18.5,2-27.6C884.7,88.4,883.1,85.9,880.5,85.2 M810,188.5
		c-19.9,0-33.7-14.6-33.7-35.9s13.8-35.9,33.7-35.9c19.7,0,33.1,14.6,33.1,35.9S829.7,188.5,810,188.5"/>
	<path class="st0" d="M989.1,82.2c-13.9-0.1-27.4,4.6-38.1,13.5c0.2-1.6,0.4-3.2,0.7-4.7c0.4-2.6-1.2-5.1-3.8-5.7
		c-11-2.8-22.6-2.8-33.6,0c-2.6,0.6-4.3,3.1-3.8,5.8c1.3,9.2,2,18.4,2,27.6v96.5c0,3,2.5,5.5,5.5,5.5H944c3,0,5.5-2.5,5.5-5.5v-63.8
		c0-21.1,8.3-34.7,27.2-34.7c12.5,0,22.5,10.6,22.5,23.1v75.3c0,3,2.5,5.5,5.5,5.5l0,0h25.9c3,0,5.5-2.5,5.5-5.5l0,0v-69.7
		C1036.1,107.7,1028.2,82.1,989.1,82.2"/>
	<path class="st0" d="M572.1,25.1c-12.4,0-22.4,10-22.4,22.4c0,12.4,10,22.4,22.4,22.4c12.4,0,22.4-10,22.4-22.4c0,0,0,0,0,0
		C594.5,35.1,584.5,25.1,572.1,25.1"/>
	<path class="st0" d="M588.9,85.2c-11-2.8-22.6-2.8-33.6,0c-2.6,0.6-4.2,3.2-3.8,5.8c1.3,9.2,2,18.4,2,27.6v96.5
		c0,3,2.5,5.5,5.5,5.5h26.1c3,0,5.5-2.5,5.5-5.5v-96.6c0-9.2,0.7-18.5,2-27.6C593,88.4,591.4,85.9,588.9,85.2"/>
	<path class="st0" d="M469.6,82.2c-8.4,0-26.8,2.6-41.1,16.2c0.2-2.5,0.6-5,1-7.4c0.4-2.6-1.2-5.1-3.8-5.7c-11-2.8-22.6-2.8-33.6,0
		c-2.6,0.7-4.2,3.2-3.8,5.8c1.3,9.2,2,18.4,2,27.6v137.5c0,3,2.5,5.5,5.5,5.5h26.1c3,0,5.5-2.5,5.5-5.5v-50.2
		c14.5,14.5,33.6,17.2,42.2,17.2c38,0,62.6-31.4,62.6-70.5S507.5,82.2,469.6,82.2 M496.2,163.8c-3.5,14.9-17,25.2-32.3,24.7
		c-7.9,0.2-15.6-2.6-21.6-7.7c-5-4.5-8.5-10.4-10.1-16.9c-0.9-3.7-1.4-7.4-1.4-11.2c0-5,0.8-9.9,2.4-14.6
		c4.7-13.1,16-21.3,30.7-21.3c14.9,0,26.4,8.2,31.2,21.3c1.7,4.7,2.5,9.6,2.5,14.6C497.6,156.4,497.1,160.2,496.2,163.8"/>
	<path class="st0" d="M1193.5,85.2c-11-2.8-22.6-2.8-33.6,0c-2.6,0.6-4.2,3.1-3.8,5.7c0.6,3.6,1,7.6,1.3,11.4
		c-13.5-15.2-31.5-20.2-40.2-20.2c-38,0-62.6,31.5-62.6,70.5s24.7,70.5,62.6,70.5c8.8,0,27.3-5.3,40.9-21v13.1c0,3,2.4,5.5,5.5,5.5
		c0,0,0,0,0,0h26.1c3,0,5.5-2.5,5.5-5.5v-96.6c0-9.2,0.7-18.5,2-27.6C1197.6,88.4,1196,85.9,1193.5,85.2 M1122.9,188.5
		c-19.9,0-33.7-14.6-33.7-35.9s13.8-35.9,33.7-35.9c19.7,0,33.1,14.6,33.1,35.9S1142.6,188.5,1122.9,188.5"/>
	<path class="st0" d="M218.8,85.9c-0.6-2.5-3.1-3.7-5.7-3.7c-3.2,0-6.3,0.5-9.4,1.5c-17.7,4.4-27.3,16-31.1,24.8
		c0.3-5.9,0.8-11.7,1.7-17.5c0.4-2.6-1.2-5.1-3.8-5.7c-11-2.8-22.6-2.8-33.6,0c-2.5,0.6-4.2,3.1-3.8,5.7c1.3,9.2,2,18.4,2,27.6v96.5
		c0,3,2.5,5.5,5.5,5.5h26.1c3,0,5.5-2.5,5.5-5.5v-46.8l0,0c0-19.1,5.4-32,16.4-39.3c3.4-1.9,6.9-3.6,10.6-4.9c3.2-0.9,6.4-1.6,9.7-2
		c1.4-0.1,2.7,0,4.1,0.2c2.6,0.4,5-1.2,5.7-3.7C221.6,108,221.6,96.6,218.8,85.9"/>
	<path class="st0" d="M728.7,202.2l-12.8-18.8c-1.7-2.4-5-3.1-7.5-1.5c-7.2,4.3-15.5,6.6-23.9,6.6c-22.2,0-36.9-16.3-36.9-35.9
		c-0.2-19.6,15.5-35.7,35.1-35.9c0.2,0,0.5,0,0.7,0c1.5,0,3,0.1,4.5,0.2c5.9,0.9,9.9,2,13,3.5c0.6,0.3,1.1,0.6,1.7,0.8
		c2,1.2,3.9,2.6,5.5,4.3c1.6,1.6,4.2,1.6,5.9,0.1c7.2-6.7,11.5-18.1,14-27.9c0.6-2.3-0.5-5-2.7-5.5c-13.8-2.8-17.5-8.4-36.4-9.9
		l-1.5-0.1l-1-0.1l0,0c-1.2-0.1-2.4-0.1-3.7-0.1c-38.4,0-69.7,31.4-69.7,70.5c0,39.3,31.3,70.5,69.7,70.5
		c15.9,0.1,31.4-4.5,44.6-13.3C729.8,208.1,730.5,204.7,728.7,202.2"/>
	<path class="st0" d="M65.4,146.7v-25.8h4.5c10.8-0.5,21.6,0.2,32.3,2c2.6,0.4,5.1-1.2,5.7-3.8c2.8-9.9,2.8-20.4,0-30.3
		c-0.6-2.6-3.1-4.2-5.7-3.8c-10.7,1.8-21.5,2.5-32.3,2h-4.5V74.8c0-9.2,0.7-18.5,2-27.6c0.4-2.6-1.2-5.1-3.8-5.7
		c-11-2.8-22.6-2.8-33.6,0c-2.5,0.6-4.2,3.1-3.8,5.7c1.3,9.2,2,18.4,2,27.6v12.2h-4.6c-8.5,0-6.7-0.8-15.8-2
		c-2.6-0.4-5.1,1.3-5.7,3.8C0.7,94.3,0,99.8,0,105.4c0,5.2,0.7,8.4,2.1,13.8c0.7,2.6,3.1,4.2,5.7,3.8c9.1-1.2,7.3-2,15.8-2h4.6v56.4
		c0,29.2,12,45.8,42,45.8c14.8,0,28.4-6.4,36.1-10.7c2.4-1.3,3.4-4.1,2.6-6.7l-7.3-20.7c-1-2.9-4.1-4.4-7-3.4
		c-0.1,0-0.2,0.1-0.3,0.1c-5.8,2.4-14.8,5.8-19.2,5.8c-6.1,0-9.7-1.8-9.7-11.9v-29L65.4,146.7z"/>
	<path class="st0" d="M146.1,5L145,1.3c-0.3-1-1.3-1.5-2.3-1.3c-3.5,1-12.9,3.8-33.7,10.6c-27.6,9.1-28,46.6-27.6,57
		c0,1.5,1.3,2.8,2.8,2.8c13.6,0.1,73.8-2.5,63.1-60.2C147.1,8.5,146.7,6.7,146.1,5"/>
	<path class="st0" d="M1203.3,53.7h-6.6v-5.3h19.3v5.3h-6.7v16.3h-5.9V53.7z M1218.7,48.4h4.4l6.8,6.8l6.7-6.8h4.3v21.7h-5.9v-12
		l-5.1,5l-5.2-5v12h-6L1218.7,48.4z"/>
</g>
</svg>
