<?xml version="1.0" encoding="utf-8"?>
<!-- Generator: Adobe Illustrator 22.0.1, SVG Export Plug-In . SVG Version: 6.00 Build 0)  -->
<svg version="1.1" id="图层_1" xmlns="http://www.w3.org/2000/svg" xmlns:xlink="http://www.w3.org/1999/xlink" x="0px" y="0px"
	 viewBox="0 0 623.6 81.2" style="enable-background:new 0 0 623.6 81.2;" xml:space="preserve">
<style type="text/css">
	.st0{clip-path:url(#XMLID_9_);fill:#6E7585;}
	.st1{clip-path:url(#SVGID_4_);fill:#6E7585;}
	.st2{clip-path:url(#XMLID_12_);fill:#6E7585;}
	.st3{clip-path:url(#SVGID_10_);fill:#6E7585;}
	.st4{clip-path:url(#XMLID_15_);fill:#6E7585;}
	.st5{clip-path:url(#SVGID_16_);fill:#6E7585;}
	.st6{clip-path:url(#XMLID_18_);fill:#6E7585;}
	.st7{clip-path:url(#SVGID_22_);fill:#6E7585;}
	.st8{clip-path:url(#XMLID_54_);fill:#6E7585;}
	.st9{clip-path:url(#XMLID_65_);fill:#6E7585;}
</style>
<g>
	<g>
		<g>
			<defs>
				<polygon id="XMLID_47_" points="72.9,1.1 50.9,52.7 50.7,52.7 51.2,1.1 36.7,1.1 14.4,52.7 14.2,52.7 15,1.1 1,1.1 0,80.1 
					14.4,80.1 38.3,26 38.6,26 37.6,80.1 52.2,80.1 87,1.1 				"/>
			</defs>
			<clipPath id="XMLID_8_">
				<use xlink:href="#XMLID_47_"  style="overflow:visible;"/>
			</clipPath>
		</g>
		<g>
			<defs>
				<polygon id="XMLID_43_" points="72.9,1.1 50.9,52.7 50.7,52.7 51.2,1.1 36.7,1.1 14.4,52.7 14.2,52.7 15,1.1 1,1.1 0,80.1 
					14.4,80.1 38.3,26 38.6,26 37.6,80.1 52.2,80.1 87,1.1 				"/>
			</defs>
			<use xlink:href="#XMLID_43_"  style="overflow:visible;fill:#6E7585;"/>
			<clipPath id="XMLID_9_">
				<use xlink:href="#XMLID_43_"  style="overflow:visible;"/>
			</clipPath>
			<rect id="XMLID_44_" x="0" y="1.1" class="st0" width="87" height="79"/>
		</g>
		<g>
			<defs>
				<polygon id="XMLID_32_" points="72.9,1.1 50.9,52.7 50.7,52.7 51.2,1.1 36.7,1.1 14.4,52.7 14.2,52.7 15,1.1 1,1.1 0,80.1 
					14.4,80.1 38.3,26 38.6,26 37.6,80.1 52.2,80.1 87,1.1 				"/>
			</defs>
			<clipPath id="XMLID_10_">
				<use xlink:href="#XMLID_32_"  style="overflow:visible;"/>
			</clipPath>
		</g>
	</g>
	<g>
		<g>
			<defs>
				<path id="SVGID_1_" d="M97.8,56.7l7.1-32.2c1.9-8.7,6.3-11.2,12.3-11.2c6,0,9.3,2.4,7.4,11.2l-7.1,32.2
					c-1.9,8.7-6.3,11.2-12.3,11.2C99.2,67.8,95.9,65.4,97.8,56.7 M89.4,26.5l-6.2,28.2c-4.3,19.5,4.4,26.5,19.1,26.5
					c14.7,0,26.5-7,30.8-26.5l6.3-28.2C143.6,7,134.9,0,120.2,0S93.7,7,89.4,26.5"/>
			</defs>
			<clipPath id="SVGID_2_">
				<use xlink:href="#SVGID_1_"  style="overflow:visible;"/>
			</clipPath>
		</g>
		<g>
			<defs>
				<path id="SVGID_3_" d="M97.8,56.7l7.1-32.2c1.9-8.7,6.3-11.2,12.3-11.2c6,0,9.3,2.4,7.4,11.2l-7.1,32.2
					c-1.9,8.7-6.3,11.2-12.3,11.2C99.2,67.8,95.9,65.4,97.8,56.7 M89.4,26.5l-6.2,28.2c-4.3,19.5,4.4,26.5,19.1,26.5
					c14.7,0,26.5-7,30.8-26.5l6.3-28.2C143.6,7,134.9,0,120.2,0S93.7,7,89.4,26.5"/>
			</defs>
			<use xlink:href="#SVGID_3_"  style="overflow:visible;fill:#6E7585;"/>
			<clipPath id="SVGID_4_">
				<use xlink:href="#SVGID_3_"  style="overflow:visible;"/>
			</clipPath>
			<rect id="XMLID_72_" x="78.9" y="0" class="st1" width="64.8" height="81.2"/>
		</g>
		<g>
			<defs>
				<path id="SVGID_5_" d="M97.8,56.7l7.1-32.2c1.9-8.7,6.3-11.2,12.3-11.2c6,0,9.3,2.4,7.4,11.2l-7.1,32.2
					c-1.9,8.7-6.3,11.2-12.3,11.2C99.2,67.8,95.9,65.4,97.8,56.7 M89.4,26.5l-6.2,28.2c-4.3,19.5,4.4,26.5,19.1,26.5
					c14.7,0,26.5-7,30.8-26.5l6.3-28.2C143.6,7,134.9,0,120.2,0S93.7,7,89.4,26.5"/>
			</defs>
			<clipPath id="SVGID_6_">
				<use xlink:href="#SVGID_5_"  style="overflow:visible;"/>
			</clipPath>
		</g>
	</g>
	<g>
		<g>
			<defs>
				<polygon id="XMLID_39_" points="195.8,1.1 185.4,47.9 185.2,47.9 174.6,1.1 158,1.1 140.5,80.1 154.3,80.1 165.6,29.1 
					165.8,29.1 177.6,80.1 192.1,80.1 209.6,1.1 				"/>
			</defs>
			<clipPath id="XMLID_11_">
				<use xlink:href="#XMLID_39_"  style="overflow:visible;"/>
			</clipPath>
		</g>
		<g>
			<defs>
				<polygon id="XMLID_37_" points="195.8,1.1 185.4,47.9 185.2,47.9 174.6,1.1 158,1.1 140.5,80.1 154.3,80.1 165.6,29.1 
					165.8,29.1 177.6,80.1 192.1,80.1 209.6,1.1 				"/>
			</defs>
			<use xlink:href="#XMLID_37_"  style="overflow:visible;fill:#6E7585;"/>
			<clipPath id="XMLID_12_">
				<use xlink:href="#XMLID_37_"  style="overflow:visible;"/>
			</clipPath>
			<rect id="XMLID_38_" x="140.5" y="1.1" class="st2" width="69" height="79"/>
		</g>
		<g>
			<defs>
				<polygon id="XMLID_28_" points="195.8,1.1 185.4,47.9 185.2,47.9 174.6,1.1 158,1.1 140.5,80.1 154.3,80.1 165.6,29.1 
					165.8,29.1 177.6,80.1 192.1,80.1 209.6,1.1 				"/>
			</defs>
			<clipPath id="XMLID_13_">
				<use xlink:href="#XMLID_28_"  style="overflow:visible;"/>
			</clipPath>
		</g>
	</g>
	<g>
		<g>
			<defs>
				<path id="SVGID_7_" d="M236.1,14.4h5.3c9.4,0,12.1,4.6,9.6,15.7L246.4,51c-2.6,11.8-8.3,15.7-16.6,15.7h-5.2L236.1,14.4z
					 M224,1.1l-17.5,79h21c17.3,0,28.6-7.4,33.6-27.3l5.4-24.3c3.7-19.9-4.2-27.4-21.5-27.4H224z"/>
			</defs>
			<clipPath id="SVGID_8_">
				<use xlink:href="#SVGID_7_"  style="overflow:visible;"/>
			</clipPath>
		</g>
		<g>
			<defs>
				<path id="SVGID_9_" d="M236.1,14.4h5.3c9.4,0,12.1,4.6,9.6,15.7L246.4,51c-2.6,11.8-8.3,15.7-16.6,15.7h-5.2L236.1,14.4z
					 M224,1.1l-17.5,79h21c17.3,0,28.6-7.4,33.6-27.3l5.4-24.3c3.7-19.9-4.2-27.4-21.5-27.4H224z"/>
			</defs>
			<use xlink:href="#SVGID_9_"  style="overflow:visible;fill:#6E7585;"/>
			<clipPath id="SVGID_10_">
				<use xlink:href="#SVGID_9_"  style="overflow:visible;"/>
			</clipPath>
			<rect id="XMLID_61_" x="206.5" y="1.1" class="st3" width="63.8" height="79"/>
		</g>
		<g>
			<defs>
				<path id="SVGID_11_" d="M236.1,14.4h5.3c9.4,0,12.1,4.6,9.6,15.7L246.4,51c-2.6,11.8-8.3,15.7-16.6,15.7h-5.2L236.1,14.4z
					 M224,1.1l-17.5,79h21c17.3,0,28.6-7.4,33.6-27.3l5.4-24.3c3.7-19.9-4.2-27.4-21.5-27.4H224z"/>
			</defs>
			<clipPath id="SVGID_12_">
				<use xlink:href="#SVGID_11_"  style="overflow:visible;"/>
			</clipPath>
		</g>
	</g>
	<g>
		<g>
			<defs>
				<polygon id="XMLID_36_" points="284.8,1.1 267.3,80.1 309.7,80.1 312.7,66.7 285.3,66.7 289.9,45.9 310,45.9 312.9,32.6 
					292.9,32.6 296.9,14.4 323.2,14.4 326.1,1.1 				"/>
			</defs>
			<clipPath id="XMLID_14_">
				<use xlink:href="#XMLID_36_"  style="overflow:visible;"/>
			</clipPath>
		</g>
		<g>
			<defs>
				<polygon id="XMLID_34_" points="284.8,1.1 267.3,80.1 309.7,80.1 312.7,66.7 285.3,66.7 289.9,45.9 310,45.9 312.9,32.6 
					292.9,32.6 296.9,14.4 323.2,14.4 326.1,1.1 				"/>
			</defs>
			<use xlink:href="#XMLID_34_"  style="overflow:visible;fill:#6E7585;"/>
			<clipPath id="XMLID_15_">
				<use xlink:href="#XMLID_34_"  style="overflow:visible;"/>
			</clipPath>
			<rect id="XMLID_35_" x="267.3" y="1.1" class="st4" width="58.8" height="79"/>
		</g>
		<g>
			<defs>
				<polygon id="XMLID_24_" points="284.8,1.1 267.3,80.1 309.7,80.1 312.7,66.7 285.3,66.7 289.9,45.9 310,45.9 312.9,32.6 
					292.9,32.6 296.9,14.4 323.2,14.4 326.1,1.1 				"/>
			</defs>
			<clipPath id="XMLID_16_">
				<use xlink:href="#XMLID_24_"  style="overflow:visible;"/>
			</clipPath>
		</g>
	</g>
	<g>
		<g>
			<defs>
				<path id="SVGID_13_" d="M351.8,13.6h7.8c6.7,0,10,3.3,8.3,10.9c-1.7,7.7-6.5,10.9-13.1,10.9H347L351.8,13.6z M339.5,1.1
					l-17.5,79h15.1l7.1-32.2h7.2l6,32.2h16.2l-7.1-35.2c9.1-3.2,14.2-10.3,16.4-20.1c3.3-14.9-3.4-23.6-21.6-23.6H339.5z"/>
			</defs>
			<clipPath id="SVGID_14_">
				<use xlink:href="#SVGID_13_"  style="overflow:visible;"/>
			</clipPath>
		</g>
		<g>
			<defs>
				<path id="SVGID_15_" d="M351.8,13.6h7.8c6.7,0,10,3.3,8.3,10.9c-1.7,7.7-6.5,10.9-13.1,10.9H347L351.8,13.6z M339.5,1.1
					l-17.5,79h15.1l7.1-32.2h7.2l6,32.2h16.2l-7.1-35.2c9.1-3.2,14.2-10.3,16.4-20.1c3.3-14.9-3.4-23.6-21.6-23.6H339.5z"/>
			</defs>
			<use xlink:href="#SVGID_15_"  style="overflow:visible;fill:#6E7585;"/>
			<clipPath id="SVGID_16_">
				<use xlink:href="#SVGID_15_"  style="overflow:visible;"/>
			</clipPath>
			<rect id="XMLID_51_" x="322" y="1.1" class="st5" width="64.2" height="79"/>
		</g>
		<g>
			<defs>
				<path id="SVGID_17_" d="M351.8,13.6h7.8c6.7,0,10,3.3,8.3,10.9c-1.7,7.7-6.5,10.9-13.1,10.9H347L351.8,13.6z M339.5,1.1
					l-17.5,79h15.1l7.1-32.2h7.2l6,32.2h16.2l-7.1-35.2c9.1-3.2,14.2-10.3,16.4-20.1c3.3-14.9-3.4-23.6-21.6-23.6H339.5z"/>
			</defs>
			<clipPath id="SVGID_18_">
				<use xlink:href="#SVGID_17_"  style="overflow:visible;"/>
			</clipPath>
		</g>
	</g>
	<g>
		<g>
			<defs>
				<polygon id="XMLID_31_" points="467.9,1.1 445.9,52.7 445.7,52.7 446.2,1.1 431.7,1.1 409.4,52.7 409.2,52.7 410,1.1 396,1.1 
					395,80.1 409.5,80.1 433.4,26 433.6,26 432.7,80.1 447.2,80.1 482,1.1 				"/>
			</defs>
			<clipPath id="XMLID_17_">
				<use xlink:href="#XMLID_31_"  style="overflow:visible;"/>
			</clipPath>
		</g>
		<g>
			<defs>
				<polygon id="XMLID_29_" points="467.9,1.1 445.9,52.7 445.7,52.7 446.2,1.1 431.7,1.1 409.4,52.7 409.2,52.7 410,1.1 396,1.1 
					395,80.1 409.5,80.1 433.4,26 433.6,26 432.7,80.1 447.2,80.1 482,1.1 				"/>
			</defs>
			<use xlink:href="#XMLID_29_"  style="overflow:visible;fill:#6E7585;"/>
			<clipPath id="XMLID_18_">
				<use xlink:href="#XMLID_29_"  style="overflow:visible;"/>
			</clipPath>
			<rect id="XMLID_30_" x="395" y="1.1" class="st6" width="87" height="79"/>
		</g>
		<g>
			<defs>
				<polygon id="XMLID_21_" points="467.9,1.1 445.9,52.7 445.7,52.7 446.2,1.1 431.7,1.1 409.4,52.7 409.2,52.7 410,1.1 396,1.1 
					395,80.1 409.5,80.1 433.4,26 433.6,26 432.7,80.1 447.2,80.1 482,1.1 				"/>
			</defs>
			<clipPath id="XMLID_42_">
				<use xlink:href="#XMLID_21_"  style="overflow:visible;"/>
			</clipPath>
		</g>
	</g>
	<g>
		<g>
			<defs>
				<path id="SVGID_19_" d="M509.3,18.2h0.2l0.2,31.9h-15L509.3,18.2z M503.6,1.1l-37.1,79h14.6l7.9-16.6H510l0.1,16.6h14.4l-1.5-79
					H503.6z"/>
			</defs>
			<clipPath id="SVGID_20_">
				<use xlink:href="#SVGID_19_"  style="overflow:visible;"/>
			</clipPath>
		</g>
		<g>
			<defs>
				<path id="SVGID_21_" d="M509.3,18.2h0.2l0.2,31.9h-15L509.3,18.2z M503.6,1.1l-37.1,79h14.6l7.9-16.6H510l0.1,16.6h14.4l-1.5-79
					H503.6z"/>
			</defs>
			<use xlink:href="#SVGID_21_"  style="overflow:visible;fill:#6E7585;"/>
			<clipPath id="SVGID_22_">
				<use xlink:href="#SVGID_21_"  style="overflow:visible;"/>
			</clipPath>
			<rect id="XMLID_88_" x="466.6" y="1.1" class="st7" width="58" height="79"/>
		</g>
		<g>
			<defs>
				<path id="SVGID_23_" d="M509.3,18.2h0.2l0.2,31.9h-15L509.3,18.2z M503.6,1.1l-37.1,79h14.6l7.9-16.6H510l0.1,16.6h14.4l-1.5-79
					H503.6z"/>
			</defs>
			<clipPath id="SVGID_24_">
				<use xlink:href="#SVGID_23_"  style="overflow:visible;"/>
			</clipPath>
		</g>
	</g>
	<g>
		<g>
			<defs>
				<polygon id="XMLID_27_" points="550.2,1.1 532.7,80.1 572.1,80.1 575.1,66.7 550.8,66.7 565.3,1.1 				"/>
			</defs>
			<clipPath id="XMLID_53_">
				<use xlink:href="#XMLID_27_"  style="overflow:visible;"/>
			</clipPath>
		</g>
		<g>
			<defs>
				<polygon id="XMLID_25_" points="550.2,1.1 532.7,80.1 572.1,80.1 575.1,66.7 550.8,66.7 565.3,1.1 				"/>
			</defs>
			<use xlink:href="#XMLID_25_"  style="overflow:visible;fill:#6E7585;"/>
			<clipPath id="XMLID_54_">
				<use xlink:href="#XMLID_25_"  style="overflow:visible;"/>
			</clipPath>
			<rect id="XMLID_26_" x="532.7" y="1.1" class="st8" width="42.3" height="79"/>
		</g>
		<g>
			<defs>
				<polygon id="XMLID_20_" points="550.2,1.1 532.7,80.1 572.1,80.1 575.1,66.7 550.8,66.7 565.3,1.1 				"/>
			</defs>
			<clipPath id="XMLID_58_">
				<use xlink:href="#XMLID_20_"  style="overflow:visible;"/>
			</clipPath>
		</g>
	</g>
	<g>
		<g>
			<defs>
				<polygon id="XMLID_55_" points="598.8,1.1 581.3,80.1 620.7,80.1 623.6,66.7 599.3,66.7 613.9,1.1 				"/>
			</defs>
			<clipPath id="XMLID_64_">
				<use xlink:href="#XMLID_55_"  style="overflow:visible;"/>
			</clipPath>
		</g>
		<g>
			<defs>
				<polygon id="XMLID_22_" points="598.8,1.1 581.3,80.1 620.7,80.1 623.6,66.7 599.3,66.7 613.9,1.1 				"/>
			</defs>
			<use xlink:href="#XMLID_22_"  style="overflow:visible;fill:#6E7585;"/>
			<clipPath id="XMLID_65_">
				<use xlink:href="#XMLID_22_"  style="overflow:visible;"/>
			</clipPath>
			<rect id="XMLID_23_" x="581.3" y="1.1" class="st9" width="42.3" height="79"/>
		</g>
		<g>
			<defs>
				<polygon id="XMLID_19_" points="598.8,1.1 581.3,80.1 620.7,80.1 623.6,66.7 599.3,66.7 613.9,1.1 				"/>
			</defs>
			<clipPath id="XMLID_68_">
				<use xlink:href="#XMLID_19_"  style="overflow:visible;"/>
			</clipPath>
		</g>
	</g>
</g>
</svg>
