<?xml version="1.0" encoding="utf-8"?>
<!-- Generator: Adobe Illustrator 22.1.0, SVG Export Plug-In . SVG Version: 6.00 Build 0)  -->
<svg version="1.1" id="Layer_1" xmlns="http://www.w3.org/2000/svg" xmlns:xlink="http://www.w3.org/1999/xlink" x="0px" y="0px"
	 viewBox="0 0 120 120" style="enable-background:new 0 0 120 120;" xml:space="preserve">
<g>
	<path d="M74.5,86.4c-0.9,0-1.7-0.5-2-1.3L61.2,58.3L51.1,85c-0.3,0.8-1.1,1.4-2,1.4c-0.9,0-1.7-0.5-2-1.3L28.5,40.8
		c-0.2-0.5-0.2-1.1,0-1.7c0.2-0.5,0.6-1,1.2-1.2c0.3-0.1,0.6-0.2,0.8-0.2c0.9,0,1.7,0.5,2,1.3L49,78.4l9.9-26l-4.9-11.6
		c-0.2-0.5-0.2-1.1,0-1.7c0.2-0.5,0.6-1,1.2-1.2c0.3-0.1,0.6-0.2,0.8-0.2c0.9,0,1.7,0.5,2,1.3l16.4,39.2L87,45l-5.3-8
		c-0.3-0.5-0.4-1.1-0.3-1.6c0.1-0.6,0.4-1.1,0.9-1.4c0.4-0.2,0.8-0.4,1.2-0.4c0.7,0,1.4,0.4,1.8,1l5.9,9c0.4,0.6,0.5,1.3,0.2,2
		L76.5,85C76.2,85.9,75.4,86.4,74.5,86.4L74.5,86.4L74.5,86.4z"/>
</g>
<g>
	<g>
		<path d="M60,120C26.9,120,0,93.1,0,60c0-4.8,0.7-9.7,2-15c0.2-0.8,0.9-1.3,1.7-1.3c0.2,0,0.3,0,0.4,0.1c0.5,0.1,0.9,0.4,1.1,0.8
			s0.3,0.9,0.2,1.4c-1.3,5-1.9,9.6-1.9,14.1c0,31.1,25.3,56.4,56.4,56.4c17.5,0,34.3-8.4,44.9-22.5l2.3-3.1h-7.3
			c-1,0-1.8-0.8-1.8-1.8c0-1,0.8-1.8,1.8-1.8h10.9c0.5,0,1,0.2,1.4,0.6s0.5,0.9,0.4,1.4l0,10.7c0,1-0.8,1.8-1.8,1.8
			c-1,0-1.8-0.8-1.8-1.8l0-5.2l-3.4,4c-4.4,5.2-9.5,9.5-15.3,12.9C81.2,117.1,70.7,120,60,120z"/>
	</g>
	<g>
		<path d="M116.2,76.3c-0.2,0-0.3,0-0.4-0.1c-0.5-0.1-0.9-0.4-1.1-0.8c-0.2-0.4-0.3-0.9-0.2-1.4c1.3-5,1.9-9.6,1.9-14.1
			c0-31.1-25.3-56.4-56.4-56.4c-17.5,0-34.3,8.4-44.9,22.5l-2.3,3.1h7.4c1,0,1.8,0.8,1.8,1.8c0,1-0.8,1.8-1.8,1.8H9.7
			c-0.3,0-0.4,0-0.5,0c-1,0-1.8-0.8-1.8-1.8V20.1c0-1,0.8-1.8,1.8-1.8c1,0,1.8,0.8,1.8,1.8l0.1,5.1l3.3-3.9
			c4.4-5.2,9.5-9.5,15.3-12.9C38.8,2.9,49.3,0,60,0c33.1,0,60,26.9,60,60c0,4.8-0.7,9.7-2,15C117.8,75.8,117.1,76.3,116.2,76.3z"/>
	</g>
</g>
</svg>
